G04 EAGLE Gerber RS-274X export*
G75*
%MOMM*%
%FSLAX34Y34*%
%LPD*%
%AMOC8*
5,1,8,0,0,1.08239X$1,22.5*%
G01*
%ADD10C,0.127000*%
%ADD11C,0.101600*%
%ADD12C,0.177800*%
%ADD13C,0.076200*%
%ADD14C,0.400000*%
%ADD15C,0.254000*%
%ADD16C,0.152400*%
%ADD17C,0.200000*%


D10*
X230723Y67587D02*
X230723Y75214D01*
X232630Y75214D01*
X234536Y73307D01*
X234536Y67587D01*
X234536Y73307D02*
X236443Y75214D01*
X238350Y73307D01*
X238350Y67587D01*
X244324Y67587D02*
X248137Y67587D01*
X250043Y69494D01*
X250043Y73307D01*
X248137Y75214D01*
X244324Y75214D01*
X242417Y73307D01*
X242417Y69494D01*
X244324Y67587D01*
X256018Y69494D02*
X256018Y77120D01*
X256018Y69494D02*
X257924Y67587D01*
X257924Y75214D02*
X254111Y75214D01*
X263814Y67587D02*
X267627Y67587D01*
X269533Y69494D01*
X269533Y73307D01*
X267627Y75214D01*
X263814Y75214D01*
X261907Y73307D01*
X261907Y69494D01*
X263814Y67587D01*
X273601Y67587D02*
X273601Y75214D01*
X277414Y75214D02*
X273601Y71400D01*
X277414Y75214D02*
X279321Y75214D01*
D11*
X102694Y73961D02*
X102694Y67859D01*
X102694Y73961D02*
X104219Y75486D01*
X107270Y75486D01*
X108795Y73961D01*
X108795Y67859D01*
X107270Y66334D01*
X104219Y66334D01*
X102694Y67859D01*
X105745Y69385D02*
X108795Y66334D01*
X112049Y67859D02*
X112049Y72435D01*
X112049Y67859D02*
X113574Y66334D01*
X115100Y67859D01*
X116625Y66334D01*
X118150Y67859D01*
X118150Y72435D01*
X121404Y72435D02*
X122930Y72435D01*
X122930Y66334D01*
X124455Y66334D02*
X121404Y66334D01*
X122930Y75486D02*
X122930Y77011D01*
X127641Y72435D02*
X129166Y72435D01*
X129166Y66334D01*
X127641Y66334D02*
X130692Y66334D01*
X129166Y75486D02*
X129166Y77011D01*
X135403Y72435D02*
X139979Y72435D01*
X135403Y72435D02*
X133878Y70910D01*
X133878Y67859D01*
X135403Y66334D01*
X139979Y66334D01*
D12*
X260953Y14995D02*
X271630Y14995D01*
X266292Y20333D02*
X266292Y9656D01*
X245310Y14995D02*
X234633Y14995D01*
D13*
X89494Y82169D02*
X88265Y80940D01*
X88265Y79712D01*
X89494Y78483D01*
X95637Y78483D01*
X95637Y79712D02*
X95637Y77254D01*
X95637Y74685D02*
X88265Y74685D01*
X95637Y74685D02*
X95637Y70999D01*
X94409Y69770D01*
X91951Y69770D01*
X90722Y70999D01*
X90722Y74685D01*
X93180Y67201D02*
X95637Y64743D01*
X88265Y64743D01*
X88265Y62286D02*
X88265Y67201D01*
X163449Y102997D02*
X165906Y102997D01*
X164678Y102997D02*
X164678Y110369D01*
X165906Y110369D02*
X163449Y110369D01*
X168438Y110369D02*
X168438Y102997D01*
X173353Y102997D02*
X168438Y110369D01*
X173353Y110369D02*
X173353Y102997D01*
X178380Y102997D02*
X178380Y110369D01*
X175923Y110369D02*
X180837Y110369D01*
D10*
X169216Y32950D02*
X169216Y5010D01*
X169216Y32950D02*
X181916Y32950D01*
X181916Y5010D01*
X169216Y5010D01*
X205090Y109014D02*
X205090Y136954D01*
X205090Y109014D02*
X192390Y109014D01*
X192390Y136954D01*
X205090Y136954D01*
D14*
X93946Y55000D02*
X93948Y55075D01*
X93954Y55149D01*
X93964Y55223D01*
X93977Y55296D01*
X93995Y55369D01*
X94016Y55440D01*
X94041Y55511D01*
X94070Y55580D01*
X94103Y55647D01*
X94139Y55712D01*
X94178Y55776D01*
X94220Y55837D01*
X94266Y55896D01*
X94315Y55953D01*
X94367Y56006D01*
X94421Y56057D01*
X94478Y56106D01*
X94538Y56150D01*
X94600Y56192D01*
X94664Y56231D01*
X94730Y56266D01*
X94797Y56297D01*
X94867Y56325D01*
X94937Y56349D01*
X95009Y56370D01*
X95082Y56386D01*
X95155Y56399D01*
X95230Y56408D01*
X95304Y56413D01*
X95379Y56414D01*
X95453Y56411D01*
X95528Y56404D01*
X95601Y56393D01*
X95675Y56379D01*
X95747Y56360D01*
X95818Y56338D01*
X95888Y56312D01*
X95957Y56282D01*
X96023Y56249D01*
X96088Y56212D01*
X96151Y56172D01*
X96212Y56128D01*
X96270Y56082D01*
X96326Y56032D01*
X96379Y55980D01*
X96430Y55925D01*
X96477Y55867D01*
X96521Y55807D01*
X96562Y55744D01*
X96600Y55680D01*
X96634Y55614D01*
X96665Y55545D01*
X96692Y55476D01*
X96715Y55405D01*
X96734Y55333D01*
X96750Y55260D01*
X96762Y55186D01*
X96770Y55112D01*
X96774Y55037D01*
X96774Y54963D01*
X96770Y54888D01*
X96762Y54814D01*
X96750Y54740D01*
X96734Y54667D01*
X96715Y54595D01*
X96692Y54524D01*
X96665Y54455D01*
X96634Y54386D01*
X96600Y54320D01*
X96562Y54256D01*
X96521Y54193D01*
X96477Y54133D01*
X96430Y54075D01*
X96379Y54020D01*
X96326Y53968D01*
X96270Y53918D01*
X96212Y53872D01*
X96151Y53828D01*
X96088Y53788D01*
X96023Y53751D01*
X95957Y53718D01*
X95888Y53688D01*
X95818Y53662D01*
X95747Y53640D01*
X95675Y53621D01*
X95601Y53607D01*
X95528Y53596D01*
X95453Y53589D01*
X95379Y53586D01*
X95304Y53587D01*
X95230Y53592D01*
X95155Y53601D01*
X95082Y53614D01*
X95009Y53630D01*
X94937Y53651D01*
X94867Y53675D01*
X94797Y53703D01*
X94730Y53734D01*
X94664Y53769D01*
X94600Y53808D01*
X94538Y53850D01*
X94478Y53894D01*
X94421Y53943D01*
X94367Y53994D01*
X94315Y54047D01*
X94266Y54104D01*
X94220Y54163D01*
X94178Y54224D01*
X94139Y54288D01*
X94103Y54353D01*
X94070Y54420D01*
X94041Y54489D01*
X94016Y54560D01*
X93995Y54631D01*
X93977Y54704D01*
X93964Y54777D01*
X93954Y54851D01*
X93948Y54925D01*
X93946Y55000D01*
D15*
X105360Y6000D02*
X135360Y6000D01*
X90360Y32000D02*
X90360Y48500D01*
X142860Y48500D02*
X150360Y48500D01*
X150360Y32000D01*
X97860Y48500D02*
X90360Y48500D01*
D14*
X144406Y90100D02*
X144408Y90175D01*
X144414Y90249D01*
X144424Y90323D01*
X144437Y90396D01*
X144455Y90469D01*
X144476Y90540D01*
X144501Y90611D01*
X144530Y90680D01*
X144563Y90747D01*
X144599Y90812D01*
X144638Y90876D01*
X144680Y90937D01*
X144726Y90996D01*
X144775Y91053D01*
X144827Y91106D01*
X144881Y91157D01*
X144938Y91206D01*
X144998Y91250D01*
X145060Y91292D01*
X145124Y91331D01*
X145190Y91366D01*
X145257Y91397D01*
X145327Y91425D01*
X145397Y91449D01*
X145469Y91470D01*
X145542Y91486D01*
X145615Y91499D01*
X145690Y91508D01*
X145764Y91513D01*
X145839Y91514D01*
X145913Y91511D01*
X145988Y91504D01*
X146061Y91493D01*
X146135Y91479D01*
X146207Y91460D01*
X146278Y91438D01*
X146348Y91412D01*
X146417Y91382D01*
X146483Y91349D01*
X146548Y91312D01*
X146611Y91272D01*
X146672Y91228D01*
X146730Y91182D01*
X146786Y91132D01*
X146839Y91080D01*
X146890Y91025D01*
X146937Y90967D01*
X146981Y90907D01*
X147022Y90844D01*
X147060Y90780D01*
X147094Y90714D01*
X147125Y90645D01*
X147152Y90576D01*
X147175Y90505D01*
X147194Y90433D01*
X147210Y90360D01*
X147222Y90286D01*
X147230Y90212D01*
X147234Y90137D01*
X147234Y90063D01*
X147230Y89988D01*
X147222Y89914D01*
X147210Y89840D01*
X147194Y89767D01*
X147175Y89695D01*
X147152Y89624D01*
X147125Y89555D01*
X147094Y89486D01*
X147060Y89420D01*
X147022Y89356D01*
X146981Y89293D01*
X146937Y89233D01*
X146890Y89175D01*
X146839Y89120D01*
X146786Y89068D01*
X146730Y89018D01*
X146672Y88972D01*
X146611Y88928D01*
X146548Y88888D01*
X146483Y88851D01*
X146417Y88818D01*
X146348Y88788D01*
X146278Y88762D01*
X146207Y88740D01*
X146135Y88721D01*
X146061Y88707D01*
X145988Y88696D01*
X145913Y88689D01*
X145839Y88686D01*
X145764Y88687D01*
X145690Y88692D01*
X145615Y88701D01*
X145542Y88714D01*
X145469Y88730D01*
X145397Y88751D01*
X145327Y88775D01*
X145257Y88803D01*
X145190Y88834D01*
X145124Y88869D01*
X145060Y88908D01*
X144998Y88950D01*
X144938Y88994D01*
X144881Y89043D01*
X144827Y89094D01*
X144775Y89147D01*
X144726Y89204D01*
X144680Y89263D01*
X144638Y89324D01*
X144599Y89388D01*
X144563Y89453D01*
X144530Y89520D01*
X144501Y89589D01*
X144476Y89660D01*
X144455Y89731D01*
X144437Y89804D01*
X144424Y89877D01*
X144414Y89951D01*
X144408Y90025D01*
X144406Y90100D01*
D15*
X135820Y139100D02*
X105820Y139100D01*
X150820Y113100D02*
X150820Y96600D01*
X98320Y96600D02*
X90820Y96600D01*
X90820Y113100D01*
X143320Y96600D02*
X150820Y96600D01*
D16*
X85590Y84118D02*
X85590Y58718D01*
X65270Y84118D02*
X65272Y84218D01*
X65278Y84317D01*
X65288Y84417D01*
X65301Y84515D01*
X65319Y84614D01*
X65340Y84711D01*
X65365Y84807D01*
X65394Y84903D01*
X65427Y84997D01*
X65463Y85090D01*
X65503Y85181D01*
X65547Y85271D01*
X65594Y85359D01*
X65644Y85445D01*
X65698Y85529D01*
X65755Y85611D01*
X65815Y85690D01*
X65879Y85768D01*
X65945Y85842D01*
X66014Y85914D01*
X66086Y85983D01*
X66160Y86049D01*
X66238Y86113D01*
X66317Y86173D01*
X66399Y86230D01*
X66483Y86284D01*
X66569Y86334D01*
X66657Y86381D01*
X66747Y86425D01*
X66838Y86465D01*
X66931Y86501D01*
X67025Y86534D01*
X67121Y86563D01*
X67217Y86588D01*
X67314Y86609D01*
X67413Y86627D01*
X67511Y86640D01*
X67611Y86650D01*
X67710Y86656D01*
X67810Y86658D01*
X65270Y58718D02*
X65272Y58618D01*
X65278Y58519D01*
X65288Y58419D01*
X65301Y58321D01*
X65319Y58222D01*
X65340Y58125D01*
X65365Y58029D01*
X65394Y57933D01*
X65427Y57839D01*
X65463Y57746D01*
X65503Y57655D01*
X65547Y57565D01*
X65594Y57477D01*
X65644Y57391D01*
X65698Y57307D01*
X65755Y57225D01*
X65815Y57146D01*
X65879Y57068D01*
X65945Y56994D01*
X66014Y56922D01*
X66086Y56853D01*
X66160Y56787D01*
X66238Y56723D01*
X66317Y56663D01*
X66399Y56606D01*
X66483Y56552D01*
X66569Y56502D01*
X66657Y56455D01*
X66747Y56411D01*
X66838Y56371D01*
X66931Y56335D01*
X67025Y56302D01*
X67121Y56273D01*
X67217Y56248D01*
X67314Y56227D01*
X67413Y56209D01*
X67511Y56196D01*
X67611Y56186D01*
X67710Y56180D01*
X67810Y56178D01*
X83050Y56178D02*
X83150Y56180D01*
X83249Y56186D01*
X83349Y56196D01*
X83447Y56209D01*
X83546Y56227D01*
X83643Y56248D01*
X83739Y56273D01*
X83835Y56302D01*
X83929Y56335D01*
X84022Y56371D01*
X84113Y56411D01*
X84203Y56455D01*
X84291Y56502D01*
X84377Y56552D01*
X84461Y56606D01*
X84543Y56663D01*
X84622Y56723D01*
X84700Y56787D01*
X84774Y56853D01*
X84846Y56922D01*
X84915Y56994D01*
X84981Y57068D01*
X85045Y57146D01*
X85105Y57225D01*
X85162Y57307D01*
X85216Y57391D01*
X85266Y57477D01*
X85313Y57565D01*
X85357Y57655D01*
X85397Y57746D01*
X85433Y57839D01*
X85466Y57933D01*
X85495Y58029D01*
X85520Y58125D01*
X85541Y58222D01*
X85559Y58321D01*
X85572Y58419D01*
X85582Y58519D01*
X85588Y58618D01*
X85590Y58718D01*
X85590Y84118D02*
X85588Y84218D01*
X85582Y84317D01*
X85572Y84417D01*
X85559Y84515D01*
X85541Y84614D01*
X85520Y84711D01*
X85495Y84807D01*
X85466Y84903D01*
X85433Y84997D01*
X85397Y85090D01*
X85357Y85181D01*
X85313Y85271D01*
X85266Y85359D01*
X85216Y85445D01*
X85162Y85529D01*
X85105Y85611D01*
X85045Y85690D01*
X84981Y85768D01*
X84915Y85842D01*
X84846Y85914D01*
X84774Y85983D01*
X84700Y86049D01*
X84622Y86113D01*
X84543Y86173D01*
X84461Y86230D01*
X84377Y86284D01*
X84291Y86334D01*
X84203Y86381D01*
X84113Y86425D01*
X84022Y86465D01*
X83929Y86501D01*
X83835Y86534D01*
X83739Y86563D01*
X83643Y86588D01*
X83546Y86609D01*
X83447Y86627D01*
X83349Y86640D01*
X83249Y86650D01*
X83150Y86656D01*
X83050Y86658D01*
X67810Y86658D01*
X67810Y56178D02*
X83050Y56178D01*
X65270Y58718D02*
X65270Y84118D01*
D13*
X83050Y97309D02*
X83119Y97307D01*
X83187Y97302D01*
X83255Y97292D01*
X83323Y97279D01*
X83390Y97263D01*
X83456Y97243D01*
X83520Y97219D01*
X83583Y97192D01*
X83645Y97161D01*
X83705Y97127D01*
X83763Y97090D01*
X83819Y97050D01*
X83872Y97007D01*
X83923Y96961D01*
X83972Y96912D01*
X84018Y96861D01*
X84061Y96808D01*
X84101Y96752D01*
X84138Y96694D01*
X84172Y96634D01*
X84203Y96572D01*
X84230Y96509D01*
X84254Y96445D01*
X84274Y96379D01*
X84290Y96312D01*
X84303Y96244D01*
X84313Y96176D01*
X84318Y96108D01*
X84320Y96039D01*
X84320Y89689D01*
X84318Y89620D01*
X84313Y89552D01*
X84303Y89484D01*
X84290Y89416D01*
X84274Y89349D01*
X84254Y89283D01*
X84230Y89219D01*
X84203Y89156D01*
X84172Y89094D01*
X84138Y89034D01*
X84101Y88976D01*
X84061Y88920D01*
X84018Y88867D01*
X83972Y88816D01*
X83923Y88767D01*
X83872Y88721D01*
X83819Y88678D01*
X83763Y88638D01*
X83705Y88601D01*
X83645Y88567D01*
X83583Y88536D01*
X83520Y88509D01*
X83456Y88485D01*
X83390Y88465D01*
X83323Y88449D01*
X83255Y88436D01*
X83187Y88426D01*
X83119Y88421D01*
X83050Y88419D01*
X67810Y88419D01*
X67741Y88421D01*
X67673Y88426D01*
X67605Y88436D01*
X67537Y88449D01*
X67470Y88465D01*
X67404Y88485D01*
X67340Y88509D01*
X67277Y88536D01*
X67215Y88567D01*
X67155Y88601D01*
X67097Y88638D01*
X67041Y88678D01*
X66988Y88721D01*
X66937Y88767D01*
X66888Y88816D01*
X66842Y88867D01*
X66799Y88920D01*
X66759Y88976D01*
X66722Y89034D01*
X66688Y89094D01*
X66657Y89156D01*
X66630Y89219D01*
X66606Y89283D01*
X66586Y89349D01*
X66570Y89416D01*
X66557Y89484D01*
X66547Y89552D01*
X66542Y89620D01*
X66540Y89689D01*
X66540Y96039D01*
X66542Y96108D01*
X66547Y96176D01*
X66557Y96244D01*
X66570Y96312D01*
X66586Y96379D01*
X66606Y96445D01*
X66630Y96509D01*
X66657Y96572D01*
X66688Y96634D01*
X66722Y96694D01*
X66759Y96752D01*
X66799Y96808D01*
X66842Y96861D01*
X66888Y96912D01*
X66937Y96961D01*
X66988Y97007D01*
X67041Y97050D01*
X67097Y97090D01*
X67155Y97127D01*
X67215Y97161D01*
X67277Y97192D01*
X67340Y97219D01*
X67404Y97243D01*
X67470Y97263D01*
X67537Y97279D01*
X67605Y97292D01*
X67673Y97302D01*
X67741Y97307D01*
X67810Y97309D01*
X83050Y97309D01*
X83120Y54403D02*
X83189Y54401D01*
X83257Y54396D01*
X83325Y54386D01*
X83393Y54373D01*
X83460Y54357D01*
X83526Y54337D01*
X83590Y54313D01*
X83653Y54286D01*
X83715Y54255D01*
X83775Y54221D01*
X83833Y54184D01*
X83889Y54144D01*
X83942Y54101D01*
X83993Y54055D01*
X84042Y54006D01*
X84088Y53955D01*
X84131Y53902D01*
X84171Y53846D01*
X84208Y53788D01*
X84242Y53728D01*
X84273Y53666D01*
X84300Y53603D01*
X84324Y53539D01*
X84344Y53473D01*
X84360Y53406D01*
X84373Y53338D01*
X84383Y53270D01*
X84388Y53202D01*
X84390Y53133D01*
X84390Y46783D01*
X84388Y46714D01*
X84383Y46646D01*
X84373Y46578D01*
X84360Y46510D01*
X84344Y46443D01*
X84324Y46377D01*
X84300Y46313D01*
X84273Y46250D01*
X84242Y46188D01*
X84208Y46128D01*
X84171Y46070D01*
X84131Y46014D01*
X84088Y45961D01*
X84042Y45910D01*
X83993Y45861D01*
X83942Y45815D01*
X83889Y45772D01*
X83833Y45732D01*
X83775Y45695D01*
X83715Y45661D01*
X83653Y45630D01*
X83590Y45603D01*
X83526Y45579D01*
X83460Y45559D01*
X83393Y45543D01*
X83325Y45530D01*
X83257Y45520D01*
X83189Y45515D01*
X83120Y45513D01*
X67880Y45513D01*
X67811Y45515D01*
X67743Y45520D01*
X67675Y45530D01*
X67607Y45543D01*
X67540Y45559D01*
X67474Y45579D01*
X67410Y45603D01*
X67347Y45630D01*
X67285Y45661D01*
X67225Y45695D01*
X67167Y45732D01*
X67111Y45772D01*
X67058Y45815D01*
X67007Y45861D01*
X66958Y45910D01*
X66912Y45961D01*
X66869Y46014D01*
X66829Y46070D01*
X66792Y46128D01*
X66758Y46188D01*
X66727Y46250D01*
X66700Y46313D01*
X66676Y46377D01*
X66656Y46443D01*
X66640Y46510D01*
X66627Y46578D01*
X66617Y46646D01*
X66612Y46714D01*
X66610Y46783D01*
X66610Y53133D01*
X66612Y53202D01*
X66617Y53270D01*
X66627Y53338D01*
X66640Y53406D01*
X66656Y53473D01*
X66676Y53539D01*
X66700Y53603D01*
X66727Y53666D01*
X66758Y53728D01*
X66792Y53788D01*
X66829Y53846D01*
X66869Y53902D01*
X66912Y53955D01*
X66958Y54006D01*
X67007Y54055D01*
X67058Y54101D01*
X67111Y54144D01*
X67167Y54184D01*
X67225Y54221D01*
X67285Y54255D01*
X67347Y54286D01*
X67410Y54313D01*
X67474Y54337D01*
X67540Y54357D01*
X67607Y54373D01*
X67675Y54386D01*
X67743Y54396D01*
X67811Y54401D01*
X67880Y54403D01*
X83120Y54403D01*
D17*
X170056Y44640D02*
X170056Y94640D01*
X201056Y94640D02*
X201056Y44640D01*
X200556Y59640D02*
X200314Y59826D01*
X200077Y60018D01*
X199845Y60215D01*
X199617Y60419D01*
X199395Y60627D01*
X199177Y60841D01*
X198965Y61060D01*
X198759Y61285D01*
X198558Y61514D01*
X198362Y61748D01*
X198172Y61987D01*
X197989Y62231D01*
X197811Y62479D01*
X197639Y62731D01*
X197474Y62987D01*
X197314Y63247D01*
X197162Y63511D01*
X197015Y63779D01*
X196876Y64050D01*
X196743Y64324D01*
X196616Y64602D01*
X196497Y64883D01*
X196384Y65166D01*
X196278Y65452D01*
X196180Y65741D01*
X196088Y66032D01*
X196004Y66325D01*
X195926Y66620D01*
X195856Y66917D01*
X195793Y67215D01*
X195738Y67515D01*
X195690Y67816D01*
X195649Y68119D01*
X195616Y68422D01*
X195589Y68726D01*
X195571Y69030D01*
X195560Y69335D01*
X195556Y69640D01*
X195560Y69945D01*
X195571Y70250D01*
X195589Y70554D01*
X195616Y70858D01*
X195649Y71161D01*
X195690Y71464D01*
X195738Y71765D01*
X195793Y72065D01*
X195856Y72363D01*
X195926Y72660D01*
X196004Y72955D01*
X196088Y73248D01*
X196180Y73539D01*
X196278Y73828D01*
X196384Y74114D01*
X196497Y74397D01*
X196616Y74678D01*
X196743Y74956D01*
X196876Y75230D01*
X197015Y75501D01*
X197162Y75769D01*
X197314Y76033D01*
X197474Y76293D01*
X197639Y76549D01*
X197811Y76801D01*
X197989Y77049D01*
X198172Y77293D01*
X198362Y77532D01*
X198558Y77766D01*
X198759Y77995D01*
X198965Y78220D01*
X199177Y78439D01*
X199395Y78653D01*
X199617Y78861D01*
X199845Y79065D01*
X200077Y79262D01*
X200314Y79454D01*
X200556Y79640D01*
D16*
X177388Y139738D02*
X164688Y139738D01*
X177388Y139738D02*
X183738Y133388D01*
X183738Y120688D01*
X177388Y114338D01*
X158338Y120688D02*
X158338Y133388D01*
X164688Y139738D01*
X158338Y120688D02*
X164688Y114338D01*
X177388Y114338D01*
X231000Y100D02*
X275000Y100D01*
X231000Y100D02*
X231000Y25100D01*
X213000Y25100D01*
X213000Y145100D01*
X293000Y145100D01*
X293000Y25100D01*
X275000Y25100D01*
X275000Y100D01*
M02*
