G04 EAGLE Gerber RS-274X export*
G75*
%MOMM*%
%FSLAX34Y34*%
%LPD*%
%AMOC8*
5,1,8,0,0,1.08239X$1,22.5*%
G01*
%ADD10C,0.101600*%
%ADD11C,0.152400*%
%ADD12R,0.120000X0.020000*%
%ADD13R,0.340000X0.020000*%
%ADD14R,0.320000X0.020000*%
%ADD15R,0.140000X0.020000*%
%ADD16R,0.280000X0.020000*%
%ADD17R,0.360000X0.020000*%
%ADD18R,0.420000X0.020000*%
%ADD19R,0.380000X0.020000*%
%ADD20R,0.480000X0.020000*%
%ADD21R,0.540000X0.020000*%
%ADD22R,0.560000X0.020000*%
%ADD23R,0.400000X0.020000*%
%ADD24R,0.640000X0.020000*%
%ADD25R,0.620000X0.020000*%
%ADD26R,0.700000X0.020000*%
%ADD27R,0.660000X0.020000*%
%ADD28R,0.740000X0.020000*%
%ADD29R,1.080000X0.020000*%
%ADD30R,0.800000X0.020000*%
%ADD31R,1.100000X0.020000*%
%ADD32R,0.440000X0.020000*%
%ADD33R,0.840000X0.020000*%
%ADD34R,1.120000X0.020000*%
%ADD35R,0.460000X0.020000*%
%ADD36R,0.860000X0.020000*%
%ADD37R,0.900000X0.020000*%
%ADD38R,1.140000X0.020000*%
%ADD39R,0.920000X0.020000*%
%ADD40R,1.160000X0.020000*%
%ADD41R,0.960000X0.020000*%
%ADD42R,0.500000X0.020000*%
%ADD43R,0.520000X0.020000*%
%ADD44R,0.940000X0.020000*%
%ADD45R,0.260000X0.020000*%
%ADD46R,0.180000X0.020000*%
%ADD47R,0.580000X0.020000*%
%ADD48R,0.060000X0.020000*%
%ADD49R,0.600000X0.020000*%
%ADD50R,0.300000X0.020000*%
%ADD51R,0.040000X0.020000*%
%ADD52R,0.100000X0.020000*%
%ADD53R,0.160000X0.020000*%
%ADD54R,0.220000X0.020000*%
%ADD55R,0.980000X0.020000*%
%ADD56R,0.880000X0.020000*%
%ADD57R,0.760000X0.020000*%
%ADD58R,1.060000X0.020000*%
%ADD59R,0.720000X0.020000*%
%ADD60R,0.820000X0.020000*%
%ADD61R,1.180000X0.020000*%
%ADD62R,1.340000X0.020000*%
%ADD63R,1.460000X0.020000*%
%ADD64R,1.600000X0.020000*%
%ADD65R,1.700000X0.020000*%
%ADD66R,1.820000X0.020000*%
%ADD67R,1.900000X0.020000*%
%ADD68R,1.980000X0.020000*%
%ADD69R,2.100000X0.020000*%
%ADD70R,2.160000X0.020000*%
%ADD71R,2.260000X0.020000*%
%ADD72R,2.340000X0.020000*%
%ADD73R,2.400000X0.020000*%
%ADD74R,2.480000X0.020000*%
%ADD75R,2.540000X0.020000*%
%ADD76R,2.600000X0.020000*%
%ADD77R,2.680000X0.020000*%
%ADD78R,2.720000X0.020000*%
%ADD79R,2.800000X0.020000*%
%ADD80R,2.840000X0.020000*%
%ADD81R,2.900000X0.020000*%
%ADD82R,2.960000X0.020000*%
%ADD83R,3.000000X0.020000*%
%ADD84R,3.060000X0.020000*%
%ADD85R,3.120000X0.020000*%
%ADD86R,3.160000X0.020000*%
%ADD87R,3.200000X0.020000*%
%ADD88R,3.260000X0.020000*%
%ADD89R,3.300000X0.020000*%
%ADD90R,3.340000X0.020000*%
%ADD91R,3.380000X0.020000*%
%ADD92R,3.420000X0.020000*%
%ADD93R,3.460000X0.020000*%
%ADD94R,3.520000X0.020000*%
%ADD95R,3.540000X0.020000*%
%ADD96R,3.580000X0.020000*%
%ADD97R,3.620000X0.020000*%
%ADD98R,3.660000X0.020000*%
%ADD99R,3.700000X0.020000*%
%ADD100R,3.740000X0.020000*%
%ADD101R,3.780000X0.020000*%
%ADD102R,3.800000X0.020000*%
%ADD103R,3.840000X0.020000*%
%ADD104R,3.860000X0.020000*%
%ADD105R,3.900000X0.020000*%
%ADD106R,3.940000X0.020000*%
%ADD107R,3.960000X0.020000*%
%ADD108R,3.980000X0.020000*%
%ADD109R,4.020000X0.020000*%
%ADD110R,4.060000X0.020000*%
%ADD111R,4.080000X0.020000*%
%ADD112R,4.100000X0.020000*%
%ADD113R,4.120000X0.020000*%
%ADD114R,4.160000X0.020000*%
%ADD115R,4.180000X0.020000*%
%ADD116R,4.200000X0.020000*%
%ADD117R,4.240000X0.020000*%
%ADD118R,4.260000X0.020000*%
%ADD119R,4.280000X0.020000*%
%ADD120R,4.300000X0.020000*%
%ADD121R,4.320000X0.020000*%
%ADD122R,4.340000X0.020000*%
%ADD123R,4.380000X0.020000*%
%ADD124R,4.400000X0.020000*%
%ADD125R,4.440000X0.020000*%
%ADD126R,4.460000X0.020000*%
%ADD127R,4.500000X0.020000*%
%ADD128R,4.520000X0.020000*%
%ADD129R,4.540000X0.020000*%
%ADD130R,4.560000X0.020000*%
%ADD131R,4.580000X0.020000*%
%ADD132R,4.600000X0.020000*%
%ADD133R,4.620000X0.020000*%
%ADD134R,4.640000X0.020000*%
%ADD135R,4.660000X0.020000*%
%ADD136R,4.680000X0.020000*%
%ADD137R,4.700000X0.020000*%
%ADD138R,4.720000X0.020000*%
%ADD139R,4.740000X0.020000*%
%ADD140R,0.680000X0.020000*%
%ADD141R,1.480000X0.020000*%
%ADD142R,1.580000X0.020000*%
%ADD143R,1.560000X0.020000*%
%ADD144R,1.540000X0.020000*%
%ADD145R,1.520000X0.020000*%
%ADD146R,1.500000X0.020000*%
%ADD147R,1.440000X0.020000*%
%ADD148R,1.400000X0.020000*%
%ADD149R,1.420000X0.020000*%
%ADD150R,1.380000X0.020000*%
%ADD151R,1.360000X0.020000*%
%ADD152R,1.320000X0.020000*%
%ADD153R,1.300000X0.020000*%
%ADD154R,1.260000X0.020000*%
%ADD155R,1.220000X0.020000*%
%ADD156R,1.200000X0.020000*%
%ADD157R,1.040000X0.020000*%
%ADD158R,1.020000X0.020000*%
%ADD159R,1.000000X0.020000*%
%ADD160R,1.280000X0.020000*%
%ADD161R,0.780000X0.020000*%
%ADD162R,1.240000X0.020000*%
%ADD163R,0.020000X0.020000*%
%ADD164R,1.840000X0.020000*%
%ADD165R,1.800000X0.020000*%
%ADD166R,1.780000X0.020000*%
%ADD167R,1.760000X0.020000*%
%ADD168R,1.740000X0.020000*%
%ADD169R,1.680000X0.020000*%
%ADD170R,1.660000X0.020000*%
%ADD171R,1.620000X0.020000*%

G36*
X296769Y94977D02*
X296769Y94977D01*
X296768Y94978D01*
X296769Y94979D01*
X296769Y113689D01*
X296764Y113694D01*
X296764Y113699D01*
X296528Y113853D01*
X296527Y113853D01*
X295093Y114692D01*
X293660Y115528D01*
X292224Y116364D01*
X290788Y117198D01*
X289351Y118032D01*
X287915Y118866D01*
X286480Y119700D01*
X285042Y120534D01*
X283607Y121368D01*
X282193Y122189D01*
X280779Y123010D01*
X279368Y123833D01*
X276544Y125479D01*
X275134Y126305D01*
X273724Y127134D01*
X272318Y127964D01*
X270942Y128801D01*
X272476Y129486D01*
X274039Y130157D01*
X275606Y130825D01*
X277174Y131491D01*
X278741Y132154D01*
X280310Y132816D01*
X281879Y133478D01*
X283450Y134137D01*
X285056Y134812D01*
X286661Y135486D01*
X288267Y136161D01*
X289873Y136838D01*
X291478Y137513D01*
X293084Y138189D01*
X294688Y138868D01*
X296292Y139550D01*
X296294Y139555D01*
X296299Y139559D01*
X296297Y139561D01*
X296299Y139564D01*
X296292Y139567D01*
X296288Y139573D01*
X294642Y139681D01*
X294641Y139681D01*
X294307Y139685D01*
X294304Y139685D01*
X293198Y139696D01*
X293198Y139697D01*
X293195Y139697D01*
X292942Y139699D01*
X291519Y139708D01*
X291514Y139708D01*
X291243Y139710D01*
X289544Y139718D01*
X288223Y139720D01*
X288208Y139720D01*
X287845Y139721D01*
X286146Y139725D01*
X284447Y139727D01*
X282747Y139728D01*
X281048Y139730D01*
X279349Y139730D01*
X277650Y139732D01*
X274252Y139732D01*
X274133Y139732D01*
X274104Y139732D01*
X272533Y139734D01*
X267376Y139734D01*
X265657Y139736D01*
X262218Y139736D01*
X260499Y139738D01*
X255342Y139738D01*
X253623Y139739D01*
X253623Y139740D01*
X251904Y139740D01*
X251892Y139729D01*
X251893Y139728D01*
X251892Y139728D01*
X251892Y120940D01*
X251897Y120935D01*
X251898Y120930D01*
X253337Y120096D01*
X256219Y118424D01*
X257659Y117589D01*
X259100Y116755D01*
X260539Y115919D01*
X261980Y115083D01*
X263421Y114247D01*
X264861Y113412D01*
X266303Y112576D01*
X267746Y111738D01*
X269187Y110901D01*
X270629Y110061D01*
X272071Y109222D01*
X273513Y108383D01*
X274952Y107539D01*
X276391Y106696D01*
X277803Y105854D01*
X276162Y105139D01*
X274492Y104430D01*
X272823Y103724D01*
X271153Y103020D01*
X269481Y102316D01*
X267808Y101614D01*
X266137Y100911D01*
X264527Y100236D01*
X262916Y99560D01*
X261305Y98885D01*
X259696Y98210D01*
X258084Y97534D01*
X256473Y96859D01*
X253254Y95505D01*
X252057Y94999D01*
X252054Y94993D01*
X252049Y94989D01*
X252051Y94987D01*
X252050Y94985D01*
X252056Y94981D01*
X252061Y94976D01*
X257218Y94976D01*
X258936Y94974D01*
X265812Y94974D01*
X267531Y94972D01*
X274409Y94972D01*
X276128Y94970D01*
X283005Y94970D01*
X284724Y94969D01*
X291600Y94969D01*
X293319Y94967D01*
X296757Y94967D01*
X296769Y94977D01*
G37*
G36*
X260898Y70631D02*
X260898Y70631D01*
X261440Y70644D01*
X261441Y70644D01*
X262705Y70821D01*
X262705Y70822D01*
X262706Y70822D01*
X262707Y70822D01*
X264397Y71425D01*
X264398Y71427D01*
X264399Y71426D01*
X265946Y72339D01*
X265947Y72340D01*
X265948Y72340D01*
X267298Y73523D01*
X267298Y73525D01*
X267299Y73525D01*
X268384Y74904D01*
X268383Y74905D01*
X268385Y74906D01*
X269184Y76466D01*
X269184Y76467D01*
X269185Y76468D01*
X269649Y78160D01*
X269649Y78161D01*
X269650Y78162D01*
X269794Y79908D01*
X269793Y79909D01*
X269794Y79910D01*
X269659Y81702D01*
X269658Y81704D01*
X269658Y81705D01*
X269176Y83437D01*
X269174Y83438D01*
X269175Y83439D01*
X268370Y85026D01*
X268369Y85027D01*
X268369Y85028D01*
X267273Y86431D01*
X267272Y86431D01*
X267272Y86432D01*
X265933Y87608D01*
X265932Y87608D01*
X265932Y87610D01*
X264403Y88520D01*
X264401Y88520D01*
X264401Y88521D01*
X262729Y89138D01*
X262728Y89137D01*
X262727Y89138D01*
X261328Y89363D01*
X261327Y89363D01*
X260899Y89385D01*
X260524Y89404D01*
X260047Y89428D01*
X259911Y89435D01*
X259910Y89434D01*
X259910Y89435D01*
X258496Y89354D01*
X258495Y89353D01*
X258494Y89354D01*
X256729Y88900D01*
X256728Y88899D01*
X256727Y88900D01*
X255063Y88155D01*
X255062Y88154D01*
X255061Y88154D01*
X253552Y87134D01*
X253552Y87132D01*
X253550Y87132D01*
X252567Y86121D01*
X252567Y86120D01*
X252565Y86120D01*
X251752Y84967D01*
X251752Y84966D01*
X251751Y84966D01*
X251096Y83715D01*
X251096Y83714D01*
X251095Y83714D01*
X250624Y82384D01*
X250624Y82382D01*
X250623Y82382D01*
X250407Y80820D01*
X250408Y80819D01*
X250407Y80818D01*
X250407Y79238D01*
X250408Y79237D01*
X250407Y79236D01*
X250625Y77675D01*
X250626Y77674D01*
X250625Y77672D01*
X251187Y76101D01*
X251188Y76101D01*
X251188Y76100D01*
X252009Y74646D01*
X252010Y74645D01*
X252010Y74644D01*
X253072Y73358D01*
X253074Y73358D01*
X253074Y73357D01*
X254349Y72281D01*
X254350Y72281D01*
X254350Y72280D01*
X255793Y71444D01*
X255795Y71445D01*
X255795Y71444D01*
X257190Y70908D01*
X257192Y70908D01*
X257193Y70907D01*
X258667Y70658D01*
X258668Y70659D01*
X258668Y70658D01*
X260162Y70614D01*
X260163Y70615D01*
X260163Y70614D01*
X260898Y70631D01*
G37*
G36*
X296873Y70826D02*
X296873Y70826D01*
X296873Y70827D01*
X296871Y72369D01*
X296868Y73911D01*
X296864Y73915D01*
X296865Y73919D01*
X295866Y75080D01*
X294868Y76239D01*
X292871Y78562D01*
X291872Y79721D01*
X290874Y80883D01*
X289873Y82044D01*
X288875Y83203D01*
X287876Y84365D01*
X286895Y85505D01*
X288482Y85514D01*
X291708Y85532D01*
X293321Y85541D01*
X294934Y85550D01*
X296549Y85559D01*
X296561Y85570D01*
X296560Y85571D01*
X296561Y85571D01*
X296561Y89125D01*
X296550Y89136D01*
X296549Y89136D01*
X296549Y89137D01*
X281596Y89137D01*
X281585Y89126D01*
X281585Y89125D01*
X281584Y89125D01*
X281584Y86092D01*
X281588Y86089D01*
X281587Y86085D01*
X282589Y84918D01*
X283592Y83753D01*
X284594Y82586D01*
X285596Y81421D01*
X286598Y80256D01*
X287600Y79090D01*
X288603Y77925D01*
X289605Y76758D01*
X290607Y75593D01*
X291592Y74446D01*
X291384Y74445D01*
X291379Y74445D01*
X289948Y74437D01*
X289204Y74433D01*
X289199Y74433D01*
X288277Y74428D01*
X287023Y74421D01*
X287018Y74421D01*
X286607Y74418D01*
X284938Y74409D01*
X284846Y74409D01*
X284840Y74409D01*
X283266Y74400D01*
X282510Y74397D01*
X282503Y74397D01*
X281596Y74393D01*
X281584Y74382D01*
X281585Y74382D01*
X281584Y74381D01*
X281584Y70827D01*
X281595Y70816D01*
X281596Y70816D01*
X296861Y70816D01*
X296873Y70826D01*
G37*
G36*
X231435Y70615D02*
X231435Y70615D01*
X231436Y70614D01*
X233144Y70810D01*
X233145Y70812D01*
X233146Y70811D01*
X234715Y71365D01*
X234716Y71366D01*
X234717Y71366D01*
X236168Y72181D01*
X236168Y72183D01*
X236169Y72183D01*
X237440Y73254D01*
X237441Y73256D01*
X237442Y73256D01*
X238492Y74545D01*
X238492Y74547D01*
X238493Y74547D01*
X239296Y76005D01*
X239295Y76006D01*
X239297Y76006D01*
X239852Y77575D01*
X239852Y77577D01*
X239853Y77578D01*
X240025Y78794D01*
X240024Y78795D01*
X240025Y78795D01*
X240040Y80028D01*
X240039Y80028D01*
X240040Y80028D01*
X240010Y81365D01*
X240009Y81366D01*
X240010Y81367D01*
X239752Y82675D01*
X239751Y82676D01*
X239752Y82677D01*
X239185Y84149D01*
X239184Y84150D01*
X239184Y84151D01*
X238394Y85517D01*
X238393Y85517D01*
X238393Y85519D01*
X237382Y86729D01*
X237380Y86729D01*
X237380Y86731D01*
X236173Y87744D01*
X236172Y87744D01*
X236171Y87745D01*
X234805Y88532D01*
X234804Y88531D01*
X234803Y88532D01*
X233328Y89092D01*
X233326Y89091D01*
X233326Y89092D01*
X231766Y89380D01*
X231765Y89379D01*
X231764Y89380D01*
X231755Y89380D01*
X231442Y89392D01*
X231129Y89404D01*
X230816Y89416D01*
X230815Y89416D01*
X230503Y89428D01*
X230502Y89428D01*
X230189Y89440D01*
X230180Y89440D01*
X230179Y89440D01*
X228599Y89299D01*
X228598Y89299D01*
X228597Y89299D01*
X227249Y89003D01*
X227248Y89002D01*
X225956Y88514D01*
X225956Y88513D01*
X225955Y88513D01*
X224764Y87815D01*
X224764Y87813D01*
X224763Y87814D01*
X223673Y86965D01*
X223672Y86965D01*
X223314Y86658D01*
X223313Y86649D01*
X223312Y86648D01*
X223312Y86647D01*
X223312Y86642D01*
X223313Y86642D01*
X223313Y86641D01*
X223955Y85902D01*
X224595Y85165D01*
X225878Y83687D01*
X225885Y83686D01*
X225887Y83686D01*
X225894Y83685D01*
X225895Y83685D01*
X226644Y84248D01*
X228058Y85121D01*
X229633Y85643D01*
X231290Y85671D01*
X232870Y85173D01*
X234149Y84275D01*
X235098Y83034D01*
X235676Y81580D01*
X235875Y80026D01*
X235696Y78471D01*
X235136Y77009D01*
X234211Y75748D01*
X233145Y74914D01*
X231883Y74429D01*
X230533Y74290D01*
X229065Y74438D01*
X227689Y74962D01*
X226474Y75804D01*
X225802Y76358D01*
X225786Y76357D01*
X224491Y75051D01*
X223844Y74400D01*
X223196Y73747D01*
X223196Y73744D01*
X223196Y73743D01*
X223195Y73732D01*
X223197Y73732D01*
X223197Y73730D01*
X223875Y73105D01*
X223876Y73105D01*
X223876Y73104D01*
X225112Y72106D01*
X225113Y72106D01*
X225113Y72105D01*
X226492Y71320D01*
X226494Y71320D01*
X226494Y71319D01*
X227998Y70811D01*
X227999Y70811D01*
X228000Y70810D01*
X229710Y70618D01*
X229711Y70619D01*
X229711Y70618D01*
X231434Y70614D01*
X231435Y70615D01*
G37*
G36*
X212170Y70613D02*
X212170Y70613D01*
X212171Y70613D01*
X213919Y70814D01*
X213921Y70815D01*
X213922Y70814D01*
X215491Y71383D01*
X215492Y71385D01*
X215493Y71384D01*
X216931Y72231D01*
X216931Y72232D01*
X216932Y72232D01*
X218192Y73326D01*
X218193Y73327D01*
X218194Y73327D01*
X219234Y74631D01*
X219234Y74633D01*
X219236Y74633D01*
X220029Y76102D01*
X220029Y76103D01*
X220030Y76103D01*
X220553Y77689D01*
X220553Y77690D01*
X220554Y77691D01*
X220557Y77714D01*
X220564Y77762D01*
X220569Y77797D01*
X220571Y77809D01*
X220576Y77845D01*
X220578Y77857D01*
X220583Y77893D01*
X220590Y77941D01*
X220597Y77988D01*
X220598Y77988D01*
X220597Y77988D01*
X220605Y78036D01*
X220610Y78072D01*
X220612Y78084D01*
X220617Y78120D01*
X220619Y78132D01*
X220624Y78167D01*
X220631Y78215D01*
X220638Y78263D01*
X220645Y78311D01*
X220650Y78346D01*
X220650Y78347D01*
X220652Y78358D01*
X220657Y78394D01*
X220659Y78406D01*
X220664Y78442D01*
X220671Y78490D01*
X220678Y78537D01*
X220678Y78538D01*
X220685Y78585D01*
X220691Y78621D01*
X220692Y78633D01*
X220698Y78669D01*
X220699Y78681D01*
X220705Y78717D01*
X220712Y78764D01*
X220719Y78812D01*
X220726Y78860D01*
X220731Y78896D01*
X220733Y78908D01*
X220738Y78943D01*
X220740Y78955D01*
X220745Y78991D01*
X220752Y79039D01*
X220759Y79087D01*
X220766Y79134D01*
X220772Y79170D01*
X220773Y79182D01*
X220779Y79218D01*
X220780Y79230D01*
X220786Y79266D01*
X220793Y79313D01*
X220797Y79342D01*
X220796Y79344D01*
X220797Y79345D01*
X220753Y81012D01*
X220752Y81013D01*
X220753Y81014D01*
X220451Y82613D01*
X220450Y82614D01*
X220451Y82615D01*
X219891Y84142D01*
X219890Y84142D01*
X219890Y84144D01*
X219075Y85550D01*
X219073Y85550D01*
X219073Y85552D01*
X218018Y86788D01*
X218017Y86788D01*
X218017Y86789D01*
X216758Y87819D01*
X216757Y87819D01*
X216757Y87820D01*
X215337Y88614D01*
X215336Y88614D01*
X215336Y88615D01*
X213805Y89165D01*
X213803Y89164D01*
X213802Y89166D01*
X212036Y89394D01*
X212035Y89394D01*
X212034Y89394D01*
X210668Y89390D01*
X210657Y89390D01*
X210249Y89389D01*
X210249Y89388D01*
X210248Y89389D01*
X208481Y89160D01*
X208480Y89159D01*
X208479Y89160D01*
X206943Y88633D01*
X206942Y88632D01*
X206941Y88632D01*
X205511Y87868D01*
X205510Y87866D01*
X205509Y87867D01*
X204768Y87291D01*
X204768Y87290D01*
X204767Y87290D01*
X204114Y86626D01*
X204114Y86610D01*
X204905Y85621D01*
X204906Y85620D01*
X205743Y84665D01*
X205744Y84665D01*
X206625Y83754D01*
X206639Y83753D01*
X206641Y83753D01*
X207423Y84305D01*
X208594Y85065D01*
X209897Y85554D01*
X211284Y85691D01*
X212739Y85497D01*
X214078Y84906D01*
X215178Y83941D01*
X215968Y82706D01*
X216435Y81370D01*
X216552Y79959D01*
X216362Y78371D01*
X215771Y76887D01*
X214782Y75633D01*
X213463Y74735D01*
X212507Y74380D01*
X211486Y74305D01*
X209928Y74387D01*
X208468Y74918D01*
X207183Y75800D01*
X206464Y76364D01*
X206448Y76363D01*
X205230Y75139D01*
X204010Y73804D01*
X204010Y73788D01*
X204853Y72879D01*
X204854Y72878D01*
X205814Y72087D01*
X205816Y72088D01*
X205816Y72086D01*
X207188Y71342D01*
X207189Y71342D01*
X207189Y71341D01*
X208658Y70818D01*
X208660Y70819D01*
X208661Y70817D01*
X210407Y70614D01*
X210408Y70615D01*
X210408Y70614D01*
X212170Y70613D01*
X212170Y70613D01*
G37*
%LPC*%
G36*
X258704Y74402D02*
X258704Y74402D01*
X257356Y74945D01*
X256214Y75847D01*
X255342Y77013D01*
X254789Y78358D01*
X254635Y79928D01*
X254776Y81419D01*
X255294Y82819D01*
X256187Y84018D01*
X257427Y84996D01*
X258895Y85576D01*
X260468Y85716D01*
X260896Y85633D01*
X262017Y85410D01*
X263500Y84565D01*
X264635Y83284D01*
X265345Y81726D01*
X265586Y80032D01*
X265345Y78278D01*
X264608Y76670D01*
X263400Y75378D01*
X261843Y74537D01*
X260896Y74387D01*
X260283Y74292D01*
X258704Y74402D01*
G37*
%LPD*%
G36*
X277636Y70826D02*
X277636Y70826D01*
X277635Y70827D01*
X277636Y70827D01*
X277636Y89125D01*
X277626Y89136D01*
X277625Y89136D01*
X277624Y89137D01*
X273546Y89137D01*
X273534Y89126D01*
X273535Y89125D01*
X273534Y89125D01*
X273534Y70827D01*
X273544Y70816D01*
X273545Y70816D01*
X273546Y70816D01*
X277624Y70816D01*
X277636Y70826D01*
G37*
G36*
X247315Y70826D02*
X247315Y70826D01*
X247314Y70827D01*
X247315Y70827D01*
X247315Y75010D01*
X247304Y75022D01*
X247303Y75021D01*
X247303Y75022D01*
X243120Y75022D01*
X243108Y75011D01*
X243109Y75011D01*
X243108Y75010D01*
X243108Y70827D01*
X243119Y70816D01*
X243120Y70816D01*
X247303Y70816D01*
X247315Y70826D01*
G37*
D10*
X295910Y41155D02*
X290656Y41155D01*
X290656Y39841D01*
X295910Y34587D01*
X295910Y33274D01*
X290656Y33274D01*
X287724Y38528D02*
X286411Y38528D01*
X286411Y33274D01*
X287724Y33274D02*
X285097Y33274D01*
X286411Y41155D02*
X286411Y42468D01*
X280954Y33274D02*
X278327Y33274D01*
X277013Y34587D01*
X277013Y37214D01*
X278327Y38528D01*
X280954Y38528D01*
X282267Y37214D01*
X282267Y34587D01*
X280954Y33274D01*
X265895Y33274D02*
X265895Y41155D01*
X265895Y33274D02*
X260642Y33274D01*
X257710Y33274D02*
X257710Y41155D01*
X253769Y41155D01*
X252456Y39841D01*
X252456Y37214D01*
X253769Y35901D01*
X257710Y35901D01*
X255083Y35901D02*
X252456Y33274D01*
X249524Y33274D02*
X249524Y38528D01*
X246897Y41155D01*
X244270Y38528D01*
X244270Y33274D01*
X244270Y37214D02*
X249524Y37214D01*
X233152Y41155D02*
X227899Y41155D01*
X233152Y41155D02*
X233152Y33274D01*
X227899Y33274D01*
X230525Y37214D02*
X233152Y37214D01*
X224967Y38528D02*
X222340Y33274D01*
X219713Y38528D01*
X215467Y38528D02*
X212840Y38528D01*
X211527Y37214D01*
X211527Y33274D01*
X215467Y33274D01*
X216781Y34587D01*
X215467Y35901D01*
X211527Y35901D01*
X208595Y41155D02*
X207282Y41155D01*
X207282Y33274D01*
X208595Y33274D02*
X205968Y33274D01*
X194952Y33274D02*
X194952Y41155D01*
X191012Y41155D01*
X189698Y39841D01*
X189698Y38528D01*
X191012Y37214D01*
X189698Y35901D01*
X189698Y34587D01*
X191012Y33274D01*
X194952Y33274D01*
X194952Y37214D02*
X191012Y37214D01*
X185453Y33274D02*
X182826Y33274D01*
X181512Y34587D01*
X181512Y37214D01*
X182826Y38528D01*
X185453Y38528D01*
X186766Y37214D01*
X186766Y34587D01*
X185453Y33274D01*
X177267Y38528D02*
X174640Y38528D01*
X173327Y37214D01*
X173327Y33274D01*
X177267Y33274D01*
X178580Y34587D01*
X177267Y35901D01*
X173327Y35901D01*
X170395Y33274D02*
X170395Y38528D01*
X170395Y35901D02*
X167768Y38528D01*
X166454Y38528D01*
X158319Y41155D02*
X158319Y33274D01*
X162260Y33274D01*
X163573Y34587D01*
X163573Y37214D01*
X162260Y38528D01*
X158319Y38528D01*
X147202Y41155D02*
X147202Y35901D01*
X144575Y33274D01*
X141948Y35901D01*
X141948Y41155D01*
X139016Y38528D02*
X136389Y41155D01*
X136389Y33274D01*
X139016Y33274D02*
X133762Y33274D01*
X130830Y33274D02*
X130830Y34587D01*
X129517Y34587D01*
X129517Y33274D01*
X130830Y33274D01*
X126737Y34587D02*
X126737Y39841D01*
X125424Y41155D01*
X122797Y41155D01*
X121483Y39841D01*
X121483Y34587D01*
X122797Y33274D01*
X125424Y33274D01*
X126737Y34587D01*
X121483Y39841D01*
X295910Y27820D02*
X295910Y19939D01*
X290656Y19939D01*
X287724Y22566D02*
X287724Y27820D01*
X287724Y22566D02*
X285097Y19939D01*
X282470Y22566D01*
X282470Y27820D01*
X279538Y27820D02*
X279538Y19939D01*
X276912Y25193D02*
X279538Y27820D01*
X276912Y25193D02*
X274285Y27820D01*
X274285Y19939D01*
X271353Y21252D02*
X271353Y26506D01*
X270039Y27820D01*
X267412Y27820D01*
X266099Y26506D01*
X266099Y21252D01*
X267412Y19939D01*
X270039Y19939D01*
X271353Y21252D01*
X266099Y26506D01*
X263167Y26506D02*
X261853Y27820D01*
X259227Y27820D01*
X257913Y26506D01*
X257913Y25193D01*
X259227Y23879D01*
X257913Y22566D01*
X257913Y21252D01*
X259227Y19939D01*
X261853Y19939D01*
X263167Y21252D01*
X263167Y22566D01*
X261853Y23879D01*
X263167Y25193D01*
X263167Y26506D01*
X261853Y23879D02*
X259227Y23879D01*
X254981Y25193D02*
X252354Y27820D01*
X252354Y19939D01*
X254981Y19939D02*
X249727Y19939D01*
X246795Y19939D02*
X241542Y19939D01*
X246795Y19939D02*
X241542Y25193D01*
X241542Y26506D01*
X242855Y27820D01*
X245482Y27820D01*
X246795Y26506D01*
X238610Y26506D02*
X237296Y27820D01*
X234669Y27820D01*
X233356Y26506D01*
X233356Y25193D01*
X234669Y23879D01*
X235983Y23879D01*
X234669Y23879D02*
X233356Y22566D01*
X233356Y21252D01*
X234669Y19939D01*
X237296Y19939D01*
X238610Y21252D01*
X230424Y21252D02*
X230424Y26506D01*
X229110Y27820D01*
X226483Y27820D01*
X225170Y26506D01*
X225170Y21252D01*
X226483Y19939D01*
X229110Y19939D01*
X230424Y21252D01*
X225170Y26506D01*
X222238Y27820D02*
X222238Y19939D01*
X222238Y27820D02*
X218298Y27820D01*
X216984Y26506D01*
X216984Y25193D01*
X218298Y23879D01*
X216984Y22566D01*
X216984Y21252D01*
X218298Y19939D01*
X222238Y19939D01*
X222238Y23879D02*
X218298Y23879D01*
X295910Y14485D02*
X295910Y6604D01*
X291970Y6604D01*
X290656Y7917D01*
X290656Y13171D01*
X291970Y14485D01*
X295910Y14485D01*
X287724Y14485D02*
X287724Y6604D01*
X287724Y14485D02*
X283784Y14485D01*
X282470Y13171D01*
X282470Y10544D01*
X283784Y9231D01*
X287724Y9231D01*
X285097Y9231D02*
X282470Y6604D01*
X279538Y9231D02*
X279538Y14485D01*
X279538Y9231D02*
X276912Y6604D01*
X274285Y9231D01*
X274285Y14485D01*
X271353Y6604D02*
X266099Y6604D01*
X271353Y6604D02*
X266099Y11858D01*
X266099Y13171D01*
X267412Y14485D01*
X270039Y14485D01*
X271353Y13171D01*
X260540Y13171D02*
X257913Y14485D01*
X260540Y13171D02*
X263167Y10544D01*
X263167Y7917D01*
X261853Y6604D01*
X259227Y6604D01*
X257913Y7917D01*
X257913Y9231D01*
X259227Y10544D01*
X263167Y10544D01*
X254981Y7917D02*
X254981Y13171D01*
X253668Y14485D01*
X251041Y14485D01*
X249727Y13171D01*
X249727Y7917D01*
X251041Y6604D01*
X253668Y6604D01*
X254981Y7917D01*
X249727Y13171D01*
X246795Y14485D02*
X241542Y14485D01*
X246795Y14485D02*
X246795Y10544D01*
X244168Y11858D01*
X242855Y11858D01*
X241542Y10544D01*
X241542Y7917D01*
X242855Y6604D01*
X245482Y6604D01*
X246795Y7917D01*
X238610Y6604D02*
X238610Y14485D01*
X238610Y6604D02*
X233356Y6604D01*
D11*
X88646Y9398D02*
X84836Y18034D01*
X88646Y9398D02*
X90424Y10414D01*
X94996Y7366D01*
X98552Y10922D01*
X95504Y15494D01*
X97536Y20574D02*
X103124Y21590D01*
X103124Y26670D01*
X97282Y27686D01*
X95250Y32512D02*
X98552Y37338D01*
X94996Y40894D01*
X90170Y37592D01*
X85598Y39370D02*
X84328Y45466D01*
X79502Y45466D01*
X78232Y39370D01*
X73660Y37592D02*
X68580Y40894D01*
X65024Y37338D01*
X68580Y32512D01*
X66294Y27686D02*
X60706Y26670D01*
X60706Y21590D01*
X66294Y20574D01*
X68326Y15494D02*
X65024Y10922D01*
X68580Y7366D01*
X73152Y10414D01*
X75184Y9398D01*
X78740Y18034D01*
X78588Y18111D01*
X78439Y18191D01*
X78291Y18275D01*
X78145Y18363D01*
X78002Y18454D01*
X77861Y18549D01*
X77722Y18647D01*
X77585Y18748D01*
X77451Y18853D01*
X77320Y18961D01*
X77192Y19072D01*
X77066Y19186D01*
X76943Y19304D01*
X76823Y19424D01*
X76706Y19547D01*
X76592Y19673D01*
X76481Y19802D01*
X76373Y19934D01*
X76269Y20068D01*
X76168Y20204D01*
X76070Y20343D01*
X75976Y20485D01*
X75885Y20629D01*
X75798Y20774D01*
X75714Y20922D01*
X75634Y21072D01*
X75558Y21224D01*
X75485Y21378D01*
X75417Y21534D01*
X75352Y21691D01*
X75291Y21849D01*
X75234Y22009D01*
X75181Y22171D01*
X75131Y22334D01*
X75086Y22497D01*
X75045Y22662D01*
X75008Y22828D01*
X74975Y22995D01*
X74946Y23162D01*
X74921Y23331D01*
X74901Y23499D01*
X74884Y23668D01*
X74872Y23838D01*
X74863Y24008D01*
X74859Y24178D01*
X74860Y24348D01*
X74864Y24518D01*
X74872Y24687D01*
X74885Y24857D01*
X74902Y25026D01*
X74923Y25195D01*
X74948Y25363D01*
X74977Y25530D01*
X75010Y25697D01*
X75048Y25863D01*
X75089Y26028D01*
X75134Y26191D01*
X75184Y26354D01*
X75237Y26515D01*
X75295Y26675D01*
X75356Y26834D01*
X75421Y26991D01*
X75490Y27146D01*
X75563Y27300D01*
X75639Y27452D01*
X75720Y27601D01*
X75803Y27749D01*
X75891Y27895D01*
X75982Y28039D01*
X76076Y28180D01*
X76174Y28319D01*
X76276Y28455D01*
X76380Y28589D01*
X76488Y28721D01*
X76599Y28849D01*
X76713Y28975D01*
X76831Y29098D01*
X76951Y29218D01*
X77074Y29335D01*
X77200Y29449D01*
X77329Y29560D01*
X77460Y29668D01*
X77594Y29773D01*
X77731Y29874D01*
X77870Y29972D01*
X78011Y30066D01*
X78155Y30157D01*
X78301Y30244D01*
X78449Y30328D01*
X78598Y30408D01*
X78750Y30485D01*
X78904Y30557D01*
X79059Y30626D01*
X79216Y30691D01*
X79375Y30752D01*
X79535Y30810D01*
X79696Y30863D01*
X79859Y30912D01*
X80023Y30957D01*
X80188Y30999D01*
X80354Y31036D01*
X80520Y31069D01*
X80688Y31098D01*
X80856Y31123D01*
X81025Y31144D01*
X81194Y31160D01*
X81363Y31173D01*
X81533Y31181D01*
X81703Y31185D01*
X81873Y31185D01*
X82043Y31181D01*
X82213Y31173D01*
X82382Y31160D01*
X82551Y31144D01*
X82720Y31123D01*
X82888Y31098D01*
X83056Y31069D01*
X83222Y31036D01*
X83388Y30999D01*
X83553Y30957D01*
X83717Y30912D01*
X83880Y30863D01*
X84041Y30810D01*
X84201Y30752D01*
X84360Y30691D01*
X84517Y30626D01*
X84672Y30557D01*
X84826Y30485D01*
X84978Y30408D01*
X85127Y30328D01*
X85275Y30244D01*
X85421Y30157D01*
X85565Y30066D01*
X85706Y29972D01*
X85845Y29874D01*
X85982Y29773D01*
X86116Y29668D01*
X86247Y29560D01*
X86376Y29449D01*
X86502Y29335D01*
X86625Y29218D01*
X86745Y29098D01*
X86863Y28975D01*
X86977Y28849D01*
X87088Y28721D01*
X87196Y28589D01*
X87300Y28455D01*
X87402Y28319D01*
X87500Y28180D01*
X87594Y28039D01*
X87685Y27895D01*
X87773Y27749D01*
X87856Y27601D01*
X87937Y27452D01*
X88013Y27300D01*
X88086Y27146D01*
X88155Y26991D01*
X88220Y26834D01*
X88281Y26675D01*
X88339Y26515D01*
X88392Y26354D01*
X88442Y26191D01*
X88487Y26028D01*
X88528Y25863D01*
X88566Y25697D01*
X88599Y25530D01*
X88628Y25363D01*
X88653Y25195D01*
X88674Y25026D01*
X88691Y24857D01*
X88704Y24687D01*
X88712Y24518D01*
X88716Y24348D01*
X88717Y24178D01*
X88713Y24008D01*
X88704Y23838D01*
X88692Y23668D01*
X88675Y23499D01*
X88655Y23331D01*
X88630Y23162D01*
X88601Y22995D01*
X88568Y22828D01*
X88531Y22662D01*
X88490Y22497D01*
X88445Y22334D01*
X88395Y22171D01*
X88342Y22009D01*
X88285Y21849D01*
X88224Y21691D01*
X88159Y21534D01*
X88091Y21378D01*
X88018Y21224D01*
X87942Y21072D01*
X87862Y20922D01*
X87778Y20774D01*
X87691Y20629D01*
X87600Y20485D01*
X87506Y20343D01*
X87408Y20204D01*
X87307Y20068D01*
X87203Y19934D01*
X87095Y19802D01*
X86984Y19673D01*
X86870Y19547D01*
X86753Y19424D01*
X86633Y19304D01*
X86510Y19186D01*
X86384Y19072D01*
X86256Y18961D01*
X86125Y18853D01*
X85991Y18748D01*
X85854Y18647D01*
X85715Y18549D01*
X85574Y18454D01*
X85431Y18363D01*
X85285Y18275D01*
X85137Y18191D01*
X84988Y18111D01*
X84836Y18034D01*
X95443Y15616D02*
X95635Y15918D01*
X95820Y16223D01*
X95999Y16533D01*
X96170Y16847D01*
X96334Y17165D01*
X96490Y17486D01*
X96639Y17811D01*
X96781Y18139D01*
X96915Y18470D01*
X97041Y18805D01*
X97160Y19142D01*
X97271Y19481D01*
X97374Y19824D01*
X97470Y20168D01*
X97328Y27742D02*
X97233Y28102D01*
X97130Y28460D01*
X97019Y28816D01*
X96899Y29168D01*
X96772Y29518D01*
X96636Y29865D01*
X96492Y30209D01*
X96340Y30549D01*
X96180Y30885D01*
X96012Y31218D01*
X95837Y31547D01*
X95653Y31871D01*
X95463Y32191D01*
X95265Y32507D01*
X90109Y37485D02*
X89786Y37673D01*
X89459Y37852D01*
X89128Y38024D01*
X88793Y38188D01*
X88454Y38345D01*
X88111Y38493D01*
X87765Y38633D01*
X87416Y38765D01*
X87063Y38889D01*
X86708Y39004D01*
X86351Y39111D01*
X85991Y39209D01*
X85628Y39299D01*
X78232Y39406D02*
X77864Y39318D01*
X77498Y39220D01*
X77135Y39115D01*
X76774Y39000D01*
X76417Y38877D01*
X76062Y38745D01*
X75710Y38605D01*
X75362Y38457D01*
X75018Y38300D01*
X74677Y38135D01*
X74340Y37962D01*
X74008Y37781D01*
X73680Y37592D01*
X68453Y32471D02*
X68256Y32180D01*
X68066Y31884D01*
X67883Y31584D01*
X67706Y31279D01*
X67537Y30971D01*
X67375Y30659D01*
X67220Y30343D01*
X67072Y30024D01*
X66932Y29702D01*
X66799Y29376D01*
X66673Y29047D01*
X66556Y28716D01*
X66445Y28382D01*
X66343Y28045D01*
X66248Y27706D01*
X66319Y20594D02*
X66399Y20238D01*
X66487Y19884D01*
X66583Y19533D01*
X66688Y19183D01*
X66800Y18837D01*
X66920Y18493D01*
X67048Y18151D01*
X67184Y17813D01*
X67327Y17478D01*
X67478Y17146D01*
X67637Y16818D01*
X67803Y16494D01*
X67977Y16173D01*
X68158Y15857D01*
X68346Y15545D01*
D12*
X190680Y114226D03*
D13*
X185380Y114226D03*
X181180Y114226D03*
D14*
X173280Y114226D03*
X165680Y114226D03*
D13*
X161580Y114226D03*
X157380Y114226D03*
D15*
X149580Y114226D03*
D16*
X190680Y114026D03*
D17*
X185280Y114026D03*
X181080Y114026D03*
X173280Y114026D03*
D13*
X165580Y114026D03*
D17*
X161680Y114026D03*
X157280Y114026D03*
D14*
X149480Y114026D03*
D18*
X190780Y113826D03*
D17*
X185280Y113826D03*
X181080Y113826D03*
D19*
X173380Y113826D03*
D17*
X165680Y113826D03*
X161680Y113826D03*
X157280Y113826D03*
D20*
X149480Y113826D03*
X190680Y113626D03*
D17*
X185280Y113626D03*
X181080Y113626D03*
D19*
X173380Y113626D03*
D13*
X165780Y113626D03*
D17*
X161680Y113626D03*
X157280Y113626D03*
D21*
X149580Y113626D03*
D22*
X190680Y113426D03*
D17*
X185280Y113426D03*
X180880Y113426D03*
D23*
X173280Y113426D03*
D13*
X165780Y113426D03*
D17*
X161680Y113426D03*
X157280Y113426D03*
D24*
X149480Y113426D03*
D25*
X190780Y113226D03*
D17*
X185280Y113226D03*
X180880Y113226D03*
D23*
X173280Y113226D03*
D17*
X165880Y113226D03*
X161680Y113226D03*
X157280Y113226D03*
D26*
X149580Y113226D03*
D27*
X190780Y113026D03*
D19*
X185380Y113026D03*
D13*
X180780Y113026D03*
D18*
X173380Y113026D03*
D13*
X165980Y113026D03*
D17*
X161680Y113026D03*
X157280Y113026D03*
D28*
X149580Y113026D03*
D29*
X188880Y112826D03*
D17*
X180680Y112826D03*
D18*
X173380Y112826D03*
D13*
X165980Y112826D03*
D17*
X161680Y112826D03*
X157280Y112826D03*
D30*
X149480Y112826D03*
D31*
X188980Y112626D03*
D17*
X180680Y112626D03*
D32*
X173280Y112626D03*
D13*
X165980Y112626D03*
D17*
X161680Y112626D03*
X157280Y112626D03*
D33*
X149480Y112626D03*
D34*
X189080Y112426D03*
D13*
X180580Y112426D03*
D35*
X173380Y112426D03*
D13*
X166180Y112426D03*
D17*
X161680Y112426D03*
X157280Y112426D03*
D36*
X149580Y112426D03*
D34*
X189080Y112226D03*
D13*
X180580Y112226D03*
D35*
X173380Y112226D03*
D13*
X166180Y112226D03*
D17*
X161680Y112226D03*
X157280Y112226D03*
D37*
X149580Y112226D03*
D38*
X189180Y112026D03*
D17*
X180480Y112026D03*
D20*
X173280Y112026D03*
D14*
X166280Y112026D03*
D17*
X161680Y112026D03*
X157280Y112026D03*
D39*
X149480Y112026D03*
D40*
X189280Y111826D03*
D13*
X180380Y111826D03*
D20*
X173280Y111826D03*
D13*
X166380Y111826D03*
D17*
X161680Y111826D03*
X157280Y111826D03*
D41*
X149480Y111826D03*
D40*
X189280Y111626D03*
D13*
X180380Y111626D03*
D42*
X173380Y111626D03*
D13*
X166380Y111626D03*
D17*
X161680Y111626D03*
X157280Y111626D03*
D41*
X149680Y111626D03*
D40*
X189280Y111426D03*
D17*
X180280Y111426D03*
D43*
X173280Y111426D03*
D13*
X166380Y111426D03*
D17*
X161680Y111426D03*
X157280Y111426D03*
D44*
X149780Y111426D03*
D20*
X192880Y111226D03*
D21*
X186180Y111226D03*
D13*
X180180Y111226D03*
D43*
X173280Y111226D03*
D14*
X166480Y111226D03*
D17*
X161680Y111226D03*
X157280Y111226D03*
D20*
X152280Y111226D03*
D14*
X147080Y111226D03*
D35*
X193180Y111026D03*
D42*
X185980Y111026D03*
D13*
X180180Y111026D03*
D43*
X173280Y111026D03*
D13*
X166580Y111026D03*
D17*
X161680Y111026D03*
X157280Y111026D03*
D32*
X152480Y111026D03*
D45*
X146980Y111026D03*
D18*
X193380Y110826D03*
D35*
X185780Y110826D03*
D17*
X180080Y110826D03*
D21*
X173380Y110826D03*
D14*
X166680Y110826D03*
D17*
X161680Y110826D03*
X157280Y110826D03*
D18*
X152780Y110826D03*
D46*
X146980Y110826D03*
D23*
X193480Y110626D03*
D32*
X185680Y110626D03*
D13*
X179980Y110626D03*
D21*
X173380Y110626D03*
D14*
X166680Y110626D03*
D17*
X161680Y110626D03*
X157280Y110626D03*
D23*
X152880Y110626D03*
D12*
X147080Y110626D03*
D23*
X193480Y110426D03*
D18*
X185580Y110426D03*
D13*
X179980Y110426D03*
D47*
X173380Y110426D03*
D13*
X166780Y110426D03*
D17*
X161680Y110426D03*
X157280Y110426D03*
D19*
X152980Y110426D03*
D48*
X147180Y110426D03*
D19*
X193580Y110226D03*
D23*
X185480Y110226D03*
D14*
X179880Y110226D03*
D47*
X173380Y110226D03*
D14*
X166880Y110226D03*
D17*
X161680Y110226D03*
X157280Y110226D03*
X153080Y110226D03*
D19*
X193780Y110026D03*
D23*
X185480Y110026D03*
D13*
X179780Y110026D03*
D49*
X173280Y110026D03*
D14*
X166880Y110026D03*
D17*
X161680Y110026D03*
X157280Y110026D03*
D19*
X153180Y110026D03*
X193780Y109826D03*
D23*
X185480Y109826D03*
D13*
X179780Y109826D03*
D49*
X173280Y109826D03*
D14*
X167080Y109826D03*
D17*
X161680Y109826D03*
X157280Y109826D03*
D19*
X153180Y109826D03*
X193780Y109626D03*
X185380Y109626D03*
D14*
X179680Y109626D03*
D16*
X174880Y109626D03*
D50*
X171780Y109626D03*
D14*
X167080Y109626D03*
D17*
X161680Y109626D03*
X157280Y109626D03*
X153280Y109626D03*
X193880Y109426D03*
D19*
X185380Y109426D03*
D13*
X179580Y109426D03*
D16*
X175080Y109426D03*
D50*
X171780Y109426D03*
D14*
X167080Y109426D03*
D17*
X161680Y109426D03*
X157280Y109426D03*
X153280Y109426D03*
X193880Y109226D03*
D19*
X185380Y109226D03*
D13*
X179580Y109226D03*
D16*
X175080Y109226D03*
D50*
X171580Y109226D03*
X167180Y109226D03*
D17*
X161680Y109226D03*
X157280Y109226D03*
X153280Y109226D03*
X193880Y109026D03*
X185280Y109026D03*
D14*
X179480Y109026D03*
D50*
X175180Y109026D03*
X171580Y109026D03*
D14*
X167280Y109026D03*
D17*
X161680Y109026D03*
X157280Y109026D03*
X153280Y109026D03*
X193880Y108826D03*
X185280Y108826D03*
D13*
X179380Y108826D03*
D50*
X175180Y108826D03*
X171580Y108826D03*
D14*
X167280Y108826D03*
D17*
X161680Y108826D03*
X157280Y108826D03*
X153280Y108826D03*
X193880Y108626D03*
X185280Y108626D03*
D14*
X179280Y108626D03*
D16*
X175280Y108626D03*
X171480Y108626D03*
D50*
X167380Y108626D03*
D17*
X161680Y108626D03*
X157280Y108626D03*
X153280Y108626D03*
X193880Y108426D03*
X185280Y108426D03*
D14*
X179280Y108426D03*
D16*
X175280Y108426D03*
D50*
X171380Y108426D03*
D14*
X167480Y108426D03*
D17*
X161680Y108426D03*
X157280Y108426D03*
X153280Y108426D03*
X193880Y108226D03*
X185280Y108226D03*
D14*
X179280Y108226D03*
D16*
X175480Y108226D03*
D50*
X171380Y108226D03*
X167580Y108226D03*
D17*
X161680Y108226D03*
X157280Y108226D03*
X153280Y108226D03*
X193880Y108026D03*
D19*
X185380Y108026D03*
D13*
X179180Y108026D03*
D16*
X175480Y108026D03*
D50*
X171180Y108026D03*
X167580Y108026D03*
D17*
X161680Y108026D03*
X157280Y108026D03*
X153280Y108026D03*
X193880Y107826D03*
D19*
X185380Y107826D03*
D14*
X179080Y107826D03*
D16*
X175480Y107826D03*
D50*
X171180Y107826D03*
X167580Y107826D03*
D17*
X161680Y107826D03*
X157280Y107826D03*
X153280Y107826D03*
D19*
X193780Y107626D03*
X185380Y107626D03*
D14*
X179080Y107626D03*
D16*
X175480Y107626D03*
D50*
X171180Y107626D03*
D14*
X167680Y107626D03*
D17*
X161680Y107626D03*
X157280Y107626D03*
D19*
X153180Y107626D03*
X193780Y107426D03*
D23*
X185480Y107426D03*
D14*
X178880Y107426D03*
D16*
X175680Y107426D03*
D50*
X171180Y107426D03*
X167780Y107426D03*
D17*
X161680Y107426D03*
X157280Y107426D03*
D19*
X153180Y107426D03*
X193780Y107226D03*
D23*
X185480Y107226D03*
D25*
X177380Y107226D03*
X169380Y107226D03*
D17*
X161680Y107226D03*
X157280Y107226D03*
D19*
X152980Y107226D03*
D51*
X147080Y107226D03*
D19*
X193580Y107026D03*
D23*
X185480Y107026D03*
D25*
X177380Y107026D03*
D49*
X169480Y107026D03*
D17*
X161680Y107026D03*
X157280Y107026D03*
D19*
X152980Y107026D03*
D52*
X146980Y107026D03*
D23*
X193480Y106826D03*
D18*
X185580Y106826D03*
D47*
X177380Y106826D03*
X169380Y106826D03*
D17*
X161680Y106826D03*
X157280Y106826D03*
D23*
X152880Y106826D03*
D53*
X146880Y106826D03*
D23*
X193480Y106626D03*
D32*
X185680Y106626D03*
D47*
X177380Y106626D03*
X169380Y106626D03*
D17*
X161680Y106626D03*
X157280Y106626D03*
D18*
X152780Y106626D03*
D54*
X146780Y106626D03*
D18*
X193380Y106426D03*
D35*
X185780Y106426D03*
D47*
X177380Y106426D03*
D22*
X169480Y106426D03*
D17*
X161680Y106426D03*
X157280Y106426D03*
D32*
X152480Y106426D03*
D16*
X146880Y106426D03*
D32*
X193080Y106226D03*
D20*
X185880Y106226D03*
D21*
X177380Y106226D03*
D22*
X169480Y106226D03*
D17*
X161680Y106226D03*
X157280Y106226D03*
D41*
X149880Y106226D03*
D35*
X192980Y106026D03*
D43*
X186080Y106026D03*
D21*
X177380Y106026D03*
X169380Y106026D03*
D17*
X161680Y106026D03*
X157280Y106026D03*
D41*
X149680Y106026D03*
D43*
X192480Y105826D03*
D49*
X186480Y105826D03*
D43*
X177280Y105826D03*
X169480Y105826D03*
D17*
X161680Y105826D03*
X157280Y105826D03*
D55*
X149580Y105826D03*
D40*
X189280Y105626D03*
D42*
X177380Y105626D03*
D43*
X169480Y105626D03*
D17*
X161680Y105626D03*
X157280Y105626D03*
D44*
X149580Y105626D03*
D40*
X189280Y105426D03*
D42*
X177380Y105426D03*
D20*
X169480Y105426D03*
D17*
X161680Y105426D03*
X157280Y105426D03*
D39*
X149480Y105426D03*
D38*
X189180Y105226D03*
D20*
X177280Y105226D03*
X169480Y105226D03*
D17*
X161680Y105226D03*
X157280Y105226D03*
D56*
X149480Y105226D03*
D34*
X189080Y105026D03*
D20*
X177280Y105026D03*
X169480Y105026D03*
D17*
X161680Y105026D03*
X157280Y105026D03*
D33*
X149480Y105026D03*
D31*
X188980Y104826D03*
D35*
X177380Y104826D03*
D32*
X169480Y104826D03*
D17*
X161680Y104826D03*
X157280Y104826D03*
D30*
X149480Y104826D03*
D29*
X188880Y104626D03*
D32*
X177280Y104626D03*
X169480Y104626D03*
D17*
X161680Y104626D03*
X157280Y104626D03*
D57*
X149480Y104626D03*
D58*
X188780Y104426D03*
D18*
X177380Y104426D03*
D32*
X169480Y104426D03*
D17*
X161680Y104426D03*
X157280Y104426D03*
D59*
X149480Y104426D03*
D24*
X190680Y104226D03*
D19*
X185380Y104226D03*
D23*
X177280Y104226D03*
D18*
X169580Y104226D03*
D17*
X161680Y104226D03*
X157280Y104226D03*
D24*
X149480Y104226D03*
D49*
X190680Y104026D03*
D17*
X185280Y104026D03*
D23*
X177280Y104026D03*
X169480Y104026D03*
D17*
X161680Y104026D03*
X157280Y104026D03*
D49*
X149480Y104026D03*
D22*
X190680Y103826D03*
D17*
X185280Y103826D03*
D23*
X177280Y103826D03*
D19*
X169580Y103826D03*
D17*
X161680Y103826D03*
X157280Y103826D03*
D42*
X149580Y103826D03*
D20*
X190680Y103626D03*
D17*
X185280Y103626D03*
X177280Y103626D03*
D19*
X169580Y103626D03*
D17*
X161680Y103626D03*
X157280Y103626D03*
X149480Y103626D03*
D23*
X190680Y103426D03*
D17*
X185280Y103426D03*
X177280Y103426D03*
X169480Y103426D03*
D13*
X161580Y103426D03*
D17*
X157280Y103426D03*
D54*
X149580Y103426D03*
D16*
X190680Y103226D03*
D17*
X185280Y103226D03*
D52*
X190580Y103026D03*
D17*
X185280Y103026D03*
X185280Y102826D03*
X185280Y102626D03*
X185280Y102426D03*
X185280Y102226D03*
X185280Y102026D03*
X185280Y101826D03*
X185280Y101626D03*
X185280Y101426D03*
X185280Y101226D03*
X185280Y101026D03*
X185280Y100826D03*
D18*
X169580Y100826D03*
D17*
X185280Y100626D03*
D60*
X169580Y100626D03*
D17*
X185280Y100426D03*
D55*
X169580Y100426D03*
D17*
X185280Y100226D03*
D61*
X169580Y100226D03*
D17*
X185280Y100026D03*
D62*
X169580Y100026D03*
D17*
X185280Y99826D03*
D63*
X169580Y99826D03*
D17*
X185280Y99626D03*
D64*
X169480Y99626D03*
D13*
X185380Y99426D03*
D65*
X169580Y99426D03*
D66*
X169580Y99226D03*
D67*
X169580Y99026D03*
D68*
X169580Y98826D03*
D69*
X169580Y98626D03*
D70*
X169480Y98426D03*
D71*
X169580Y98226D03*
D72*
X169580Y98026D03*
D73*
X169480Y97826D03*
D74*
X169480Y97626D03*
D75*
X169580Y97426D03*
D76*
X169480Y97226D03*
D77*
X169480Y97026D03*
D78*
X169480Y96826D03*
D79*
X169480Y96626D03*
D80*
X169480Y96426D03*
D81*
X169580Y96226D03*
D82*
X169480Y96026D03*
D83*
X169480Y95826D03*
D84*
X169580Y95626D03*
D85*
X169480Y95426D03*
D86*
X169480Y95226D03*
D87*
X169480Y95026D03*
D88*
X169580Y94826D03*
D89*
X169580Y94626D03*
D90*
X169580Y94426D03*
D91*
X169580Y94226D03*
D92*
X169580Y94026D03*
D93*
X169580Y93826D03*
D94*
X169480Y93626D03*
D95*
X169580Y93426D03*
D96*
X169580Y93226D03*
D97*
X169580Y93026D03*
D98*
X169580Y92826D03*
D99*
X169580Y92626D03*
D100*
X169580Y92426D03*
D101*
X169580Y92226D03*
D102*
X169480Y92026D03*
D103*
X169480Y91826D03*
D104*
X169580Y91626D03*
D105*
X169580Y91426D03*
D106*
X169580Y91226D03*
D107*
X169480Y91026D03*
D108*
X169580Y90826D03*
D109*
X169580Y90626D03*
D110*
X169580Y90426D03*
D111*
X169480Y90226D03*
D112*
X169580Y90026D03*
D113*
X169480Y89826D03*
D114*
X169480Y89626D03*
D115*
X169580Y89426D03*
D116*
X169480Y89226D03*
D117*
X169480Y89026D03*
D118*
X169580Y88826D03*
D119*
X169480Y88626D03*
D120*
X169580Y88426D03*
D121*
X169480Y88226D03*
D122*
X169580Y88026D03*
D123*
X169580Y87826D03*
X169580Y87626D03*
D124*
X169480Y87426D03*
D125*
X169480Y87226D03*
D126*
X169580Y87026D03*
X169580Y86826D03*
D127*
X169580Y86626D03*
D128*
X169480Y86426D03*
X169480Y86226D03*
D129*
X169580Y86026D03*
D130*
X169480Y85826D03*
D131*
X169580Y85626D03*
D132*
X169480Y85426D03*
X169480Y85226D03*
D133*
X169580Y85026D03*
D134*
X169480Y84826D03*
D135*
X169580Y84626D03*
X169580Y84426D03*
D136*
X169480Y84226D03*
D137*
X169580Y84026D03*
D138*
X169480Y83826D03*
X169480Y83626D03*
D139*
X169580Y83426D03*
X169580Y83226D03*
D49*
X190280Y83026D03*
D24*
X148880Y83026D03*
D49*
X190480Y82826D03*
D25*
X148780Y82826D03*
D47*
X190580Y82626D03*
D25*
X148780Y82626D03*
D47*
X190580Y82426D03*
D25*
X148780Y82426D03*
D47*
X190580Y82226D03*
D24*
X148680Y82226D03*
D49*
X190680Y82026D03*
D24*
X148680Y82026D03*
D49*
X190680Y81826D03*
D24*
X148680Y81826D03*
D49*
X190680Y81626D03*
D27*
X148580Y81626D03*
D49*
X190680Y81426D03*
D27*
X148580Y81426D03*
D25*
X190780Y81226D03*
D27*
X148580Y81226D03*
D25*
X190780Y81026D03*
D27*
X148580Y81026D03*
D25*
X190780Y80826D03*
D27*
X148580Y80826D03*
D25*
X190780Y80626D03*
D27*
X148580Y80626D03*
D25*
X190780Y80426D03*
D140*
X148480Y80426D03*
D24*
X190880Y80226D03*
D140*
X148480Y80226D03*
D24*
X190880Y80026D03*
D140*
X148480Y80026D03*
D24*
X190880Y79826D03*
D140*
X148480Y79826D03*
D24*
X190880Y79626D03*
D140*
X148480Y79626D03*
D24*
X190880Y79426D03*
D26*
X148380Y79426D03*
D24*
X190880Y79226D03*
D26*
X148380Y79226D03*
D24*
X190880Y79026D03*
D26*
X148380Y79026D03*
D24*
X190880Y78826D03*
D26*
X148380Y78826D03*
D24*
X190880Y78626D03*
D26*
X148380Y78626D03*
D24*
X190880Y78426D03*
D26*
X148380Y78426D03*
D27*
X190980Y78226D03*
D35*
X180580Y78226D03*
D20*
X173480Y78226D03*
X166280Y78226D03*
D35*
X159180Y78226D03*
D26*
X148380Y78226D03*
D27*
X190980Y78026D03*
D20*
X180680Y78026D03*
X173480Y78026D03*
D42*
X166180Y78026D03*
D20*
X159080Y78026D03*
D26*
X148380Y78026D03*
D27*
X190980Y77826D03*
D20*
X180680Y77826D03*
X173480Y77826D03*
D42*
X166180Y77826D03*
D20*
X159080Y77826D03*
D26*
X148380Y77826D03*
D27*
X190980Y77626D03*
D20*
X180680Y77626D03*
X173480Y77626D03*
D42*
X166180Y77626D03*
D20*
X159080Y77626D03*
D26*
X148380Y77626D03*
D27*
X190980Y77426D03*
D20*
X180680Y77426D03*
X173480Y77426D03*
D42*
X166180Y77426D03*
D20*
X159080Y77426D03*
D26*
X148380Y77426D03*
D27*
X190980Y77226D03*
D20*
X180680Y77226D03*
X173480Y77226D03*
D42*
X166180Y77226D03*
D20*
X159080Y77226D03*
D26*
X148380Y77226D03*
D27*
X190980Y77026D03*
D20*
X180680Y77026D03*
X173480Y77026D03*
D42*
X166180Y77026D03*
D20*
X159080Y77026D03*
D26*
X148380Y77026D03*
D27*
X190980Y76826D03*
D20*
X180680Y76826D03*
X173480Y76826D03*
D42*
X166180Y76826D03*
D20*
X159080Y76826D03*
D59*
X148280Y76826D03*
D27*
X190980Y76626D03*
D20*
X180680Y76626D03*
X173480Y76626D03*
D42*
X166180Y76626D03*
D20*
X159080Y76626D03*
D59*
X148280Y76626D03*
D27*
X190980Y76426D03*
D20*
X180680Y76426D03*
X173480Y76426D03*
D42*
X166180Y76426D03*
D20*
X159080Y76426D03*
D59*
X148280Y76426D03*
D27*
X190980Y76226D03*
D20*
X180680Y76226D03*
X173480Y76226D03*
D42*
X166180Y76226D03*
D20*
X159080Y76226D03*
D59*
X148280Y76226D03*
D27*
X190980Y76026D03*
D20*
X180680Y76026D03*
X173480Y76026D03*
D42*
X166180Y76026D03*
D20*
X159080Y76026D03*
D59*
X148280Y76026D03*
D27*
X190980Y75826D03*
D20*
X180680Y75826D03*
X173480Y75826D03*
D42*
X166180Y75826D03*
D20*
X159080Y75826D03*
D59*
X148280Y75826D03*
D27*
X190980Y75626D03*
D20*
X180680Y75626D03*
X173480Y75626D03*
D42*
X166180Y75626D03*
D20*
X159080Y75626D03*
D59*
X148280Y75626D03*
D27*
X190980Y75426D03*
D20*
X180680Y75426D03*
X173480Y75426D03*
D42*
X166180Y75426D03*
D20*
X159080Y75426D03*
D59*
X148280Y75426D03*
D27*
X190980Y75226D03*
D20*
X180680Y75226D03*
X173480Y75226D03*
D42*
X166180Y75226D03*
D20*
X159080Y75226D03*
D26*
X148380Y75226D03*
D27*
X190980Y75026D03*
D20*
X180680Y75026D03*
X173480Y75026D03*
D42*
X166180Y75026D03*
D20*
X159080Y75026D03*
D26*
X148380Y75026D03*
D27*
X190980Y74826D03*
D20*
X180680Y74826D03*
X173480Y74826D03*
D42*
X166180Y74826D03*
D20*
X159080Y74826D03*
D26*
X148380Y74826D03*
D27*
X190980Y74626D03*
D20*
X180680Y74626D03*
X173480Y74626D03*
D42*
X166180Y74626D03*
D20*
X159080Y74626D03*
D26*
X148380Y74626D03*
D27*
X190980Y74426D03*
D20*
X180680Y74426D03*
X173480Y74426D03*
D42*
X166180Y74426D03*
D20*
X159080Y74426D03*
D26*
X148380Y74426D03*
D27*
X190980Y74226D03*
D20*
X180680Y74226D03*
X173480Y74226D03*
D42*
X166180Y74226D03*
D20*
X159080Y74226D03*
D26*
X148380Y74226D03*
D27*
X190980Y74026D03*
D20*
X180680Y74026D03*
X173480Y74026D03*
D42*
X166180Y74026D03*
D20*
X159080Y74026D03*
D26*
X148380Y74026D03*
D24*
X190880Y73826D03*
D20*
X180680Y73826D03*
X173480Y73826D03*
D42*
X166180Y73826D03*
D20*
X159080Y73826D03*
D26*
X148380Y73826D03*
D24*
X190880Y73626D03*
D35*
X180580Y73626D03*
D20*
X173480Y73626D03*
X166280Y73626D03*
D35*
X159180Y73626D03*
D26*
X148380Y73626D03*
D24*
X190880Y73426D03*
D26*
X148380Y73426D03*
D24*
X190880Y73226D03*
D26*
X148380Y73226D03*
D24*
X190880Y73026D03*
D26*
X148380Y73026D03*
D24*
X190880Y72826D03*
D26*
X148380Y72826D03*
D24*
X190880Y72626D03*
D26*
X148380Y72626D03*
D24*
X190880Y72426D03*
D140*
X148480Y72426D03*
D24*
X190880Y72226D03*
D140*
X148480Y72226D03*
D24*
X190880Y72026D03*
D140*
X148480Y72026D03*
D25*
X190780Y71826D03*
D140*
X148480Y71826D03*
D25*
X190780Y71626D03*
D27*
X148580Y71626D03*
D25*
X190780Y71426D03*
D27*
X148580Y71426D03*
D25*
X190780Y71226D03*
D27*
X148580Y71226D03*
D25*
X190780Y71026D03*
D27*
X148580Y71026D03*
D49*
X190680Y70826D03*
D27*
X148580Y70826D03*
D49*
X190680Y70626D03*
D27*
X148580Y70626D03*
D49*
X190680Y70426D03*
D24*
X148680Y70426D03*
D49*
X190680Y70226D03*
D24*
X148680Y70226D03*
D47*
X190580Y70026D03*
D24*
X148680Y70026D03*
D47*
X190580Y69826D03*
D24*
X148680Y69826D03*
D47*
X190580Y69626D03*
D25*
X148780Y69626D03*
D47*
X190580Y69426D03*
D25*
X148780Y69426D03*
D22*
X190480Y69226D03*
D25*
X148780Y69226D03*
D22*
X190480Y69026D03*
D49*
X148880Y69026D03*
D47*
X190380Y68826D03*
D25*
X148980Y68826D03*
D141*
X185680Y68626D03*
D27*
X169980Y68626D03*
D142*
X153780Y68626D03*
D141*
X185680Y68426D03*
D27*
X169980Y68426D03*
D142*
X153780Y68426D03*
D141*
X185680Y68226D03*
D27*
X169980Y68226D03*
D143*
X153880Y68226D03*
D141*
X185680Y68026D03*
D140*
X169880Y68026D03*
D144*
X153780Y68026D03*
D63*
X185580Y67826D03*
D140*
X169880Y67826D03*
D145*
X153880Y67826D03*
D141*
X185480Y67626D03*
D140*
X169880Y67626D03*
D145*
X153880Y67626D03*
D63*
X185380Y67426D03*
D140*
X169880Y67426D03*
D145*
X153880Y67426D03*
D63*
X185380Y67226D03*
D26*
X169780Y67226D03*
D146*
X153780Y67226D03*
D63*
X185380Y67026D03*
D140*
X169680Y67026D03*
D141*
X153880Y67026D03*
D147*
X185280Y66826D03*
D140*
X169680Y66826D03*
D63*
X153780Y66826D03*
D147*
X185280Y66626D03*
D140*
X169680Y66626D03*
D147*
X153880Y66626D03*
X185080Y66426D03*
D26*
X169580Y66426D03*
D147*
X153880Y66426D03*
X185080Y66226D03*
D26*
X169580Y66226D03*
D148*
X153880Y66226D03*
D149*
X184980Y66026D03*
D140*
X169480Y66026D03*
D148*
X153880Y66026D03*
D149*
X184980Y65826D03*
D26*
X169380Y65826D03*
D150*
X153780Y65826D03*
D149*
X184980Y65626D03*
D26*
X169380Y65626D03*
D151*
X153880Y65626D03*
D148*
X184880Y65426D03*
D26*
X169380Y65426D03*
D152*
X153880Y65426D03*
D149*
X184780Y65226D03*
D26*
X169180Y65226D03*
D152*
X153880Y65226D03*
D148*
X184680Y65026D03*
D26*
X169180Y65026D03*
D153*
X153780Y65026D03*
D148*
X184680Y64826D03*
D26*
X169180Y64826D03*
D154*
X153780Y64826D03*
D150*
X184580Y64626D03*
D59*
X169080Y64626D03*
D154*
X153780Y64626D03*
D148*
X184480Y64426D03*
D26*
X168980Y64426D03*
D155*
X153780Y64426D03*
D150*
X184380Y64226D03*
D59*
X168880Y64226D03*
D156*
X153880Y64226D03*
D151*
X184280Y64026D03*
D59*
X168880Y64026D03*
D61*
X153780Y64026D03*
D151*
X184280Y63826D03*
D59*
X168680Y63826D03*
D38*
X153780Y63826D03*
D151*
X184080Y63626D03*
D59*
X168680Y63626D03*
D38*
X153780Y63626D03*
D151*
X184080Y63426D03*
D28*
X168580Y63426D03*
D31*
X153780Y63426D03*
D62*
X183980Y63226D03*
D59*
X168480Y63226D03*
D29*
X153680Y63226D03*
D152*
X183880Y63026D03*
D28*
X168380Y63026D03*
D157*
X153680Y63026D03*
D62*
X183780Y62826D03*
D28*
X168380Y62826D03*
D158*
X153780Y62826D03*
D152*
X183680Y62626D03*
D28*
X168180Y62626D03*
D159*
X153680Y62626D03*
D62*
X183580Y62426D03*
D28*
X168180Y62426D03*
D41*
X153680Y62426D03*
D152*
X183480Y62226D03*
D28*
X167980Y62226D03*
D39*
X153680Y62226D03*
D153*
X183380Y62026D03*
D57*
X167880Y62026D03*
D37*
X153580Y62026D03*
D153*
X183380Y61826D03*
D57*
X167880Y61826D03*
D36*
X153580Y61826D03*
D153*
X183180Y61626D03*
D57*
X167680Y61626D03*
D60*
X153580Y61626D03*
D160*
X183080Y61426D03*
D57*
X167680Y61426D03*
D30*
X153480Y61426D03*
D160*
X182880Y61226D03*
D57*
X167480Y61226D03*
X153480Y61226D03*
D160*
X182880Y61026D03*
D161*
X167380Y61026D03*
D26*
X153380Y61026D03*
D154*
X182780Y60826D03*
D161*
X167180Y60826D03*
D27*
X153380Y60826D03*
D154*
X182580Y60626D03*
D161*
X167180Y60626D03*
D24*
X153280Y60626D03*
D154*
X182580Y60426D03*
D161*
X166980Y60426D03*
D49*
X153280Y60426D03*
D155*
X182380Y60226D03*
D30*
X166880Y60226D03*
D21*
X153180Y60226D03*
D162*
X182280Y60026D03*
D30*
X166680Y60026D03*
D20*
X153080Y60026D03*
D155*
X182180Y59826D03*
D30*
X166680Y59826D03*
D32*
X153080Y59826D03*
D155*
X181980Y59626D03*
D30*
X166480Y59626D03*
D19*
X152980Y59626D03*
D156*
X181880Y59426D03*
D60*
X166380Y59426D03*
D14*
X152880Y59426D03*
D156*
X181680Y59226D03*
D60*
X166180Y59226D03*
D16*
X152680Y59226D03*
D61*
X181580Y59026D03*
D33*
X166080Y59026D03*
D54*
X152580Y59026D03*
D61*
X181380Y58826D03*
D33*
X165880Y58826D03*
D15*
X152380Y58826D03*
D40*
X181280Y58626D03*
D33*
X165680Y58626D03*
D163*
X152380Y58626D03*
D40*
X181080Y58426D03*
D36*
X165580Y58426D03*
D38*
X180980Y58226D03*
D36*
X165380Y58226D03*
D38*
X180780Y58026D03*
D56*
X165280Y58026D03*
D34*
X180680Y57826D03*
D56*
X165080Y57826D03*
D34*
X180480Y57626D03*
D56*
X164880Y57626D03*
D31*
X180380Y57426D03*
D56*
X164680Y57426D03*
D31*
X180180Y57226D03*
D39*
X164480Y57226D03*
D29*
X180080Y57026D03*
D39*
X164280Y57026D03*
D29*
X179880Y56826D03*
D39*
X164080Y56826D03*
D157*
X179680Y56626D03*
D41*
X163880Y56626D03*
D157*
X179480Y56426D03*
D41*
X163680Y56426D03*
D157*
X179280Y56226D03*
D41*
X163480Y56226D03*
D159*
X179080Y56026D03*
D55*
X163180Y56026D03*
D159*
X178880Y55826D03*
D158*
X162980Y55826D03*
D41*
X178680Y55626D03*
D158*
X162780Y55626D03*
D41*
X178480Y55426D03*
D157*
X162480Y55426D03*
D44*
X178180Y55226D03*
D58*
X162180Y55226D03*
D44*
X177980Y55026D03*
D29*
X161880Y55026D03*
D37*
X177780Y54826D03*
D31*
X161580Y54826D03*
D56*
X177480Y54626D03*
D34*
X161280Y54626D03*
D36*
X177380Y54426D03*
D40*
X160880Y54426D03*
D33*
X177080Y54226D03*
D61*
X160580Y54226D03*
D60*
X176780Y54026D03*
D162*
X160080Y54026D03*
D30*
X176480Y53826D03*
D160*
X159680Y53826D03*
D57*
X176280Y53626D03*
D62*
X159180Y53626D03*
D28*
X175980Y53426D03*
D149*
X158580Y53426D03*
D59*
X175680Y53226D03*
D144*
X157780Y53226D03*
D48*
X148780Y53226D03*
D140*
X175280Y53026D03*
D164*
X156080Y53026D03*
D27*
X174980Y52826D03*
D66*
X155980Y52826D03*
D47*
X174580Y52626D03*
D165*
X155880Y52626D03*
D21*
X174180Y52426D03*
D166*
X155780Y52426D03*
D42*
X173780Y52226D03*
D167*
X155680Y52226D03*
D32*
X173280Y52026D03*
D168*
X155580Y52026D03*
D23*
X172880Y51826D03*
D65*
X155380Y51826D03*
D50*
X172180Y51626D03*
D169*
X155280Y51626D03*
D12*
X171480Y51426D03*
D170*
X155180Y51426D03*
D171*
X154980Y51226D03*
D64*
X154880Y51026D03*
D143*
X154680Y50826D03*
D144*
X154580Y50626D03*
D145*
X154480Y50426D03*
D141*
X154280Y50226D03*
D147*
X154080Y50026D03*
D149*
X153980Y49826D03*
D150*
X153780Y49626D03*
D62*
X153580Y49426D03*
D153*
X153380Y49226D03*
D154*
X153180Y49026D03*
D155*
X152980Y48826D03*
D61*
X152780Y48626D03*
D34*
X152480Y48426D03*
D29*
X152280Y48226D03*
D158*
X151980Y48026D03*
D55*
X151780Y47826D03*
D37*
X151380Y47626D03*
D33*
X151080Y47426D03*
D161*
X150780Y47226D03*
D140*
X150280Y47026D03*
D49*
X149880Y46826D03*
D32*
X149080Y46626D03*
M02*
