M48
;GenerationSoftware,Autodesk,EAGLE,9.1.1*%
;CreationDate,2018-10-12T07:00:21Z*%
FMAT,2
ICI,OFF
METRIC,TZ,000.000
T4C0.305
T3C0.600
T2C1.016
T1C3.000
%
G90
M71
T1
X2540Y7255
X33020Y7255
T2
X17094Y12700
T3
X5100Y14510
X30460Y1036
X30460Y2073
X30460Y4146
X30460Y5182
X30460Y6218
X5100Y5182
X30460Y7255
X30460Y8291
X30460Y10364
X30460Y11400
X30460Y12437
X30460Y13473
X30460Y14510
X30460Y9328
X5100Y0
X30460Y0
X5100Y1036
X5100Y2073
X5100Y3109
X5100Y4146
X30460Y3109
X5100Y6218
X5100Y7255
X5100Y8291
X5100Y9328
X5100Y10364
X5100Y11400
X5100Y12437
X5100Y13473
T4
X20676Y9601
X20701Y8407
X9525Y7264
X14402Y10109
X13462Y12446
X10719Y12395
X18821Y12294
X18542Y3429
X11024Y6934
X9704Y9267
X12548Y6198
X11582Y7797
X13538Y3099
X13573Y10884
X8534Y7137
X16281Y1245
M30