G04 EAGLE Gerber RS-274X export*
G75*
%MOMM*%
%FSLAX34Y34*%
%LPD*%
%AMOC8*
5,1,8,0,0,1.08239X$1,22.5*%
G01*
%ADD10C,0.025400*%
%ADD11C,0.000000*%


D10*
X0Y0D02*
X357200Y0D01*
X357200Y145100D01*
X0Y145100D01*
X0Y0D01*
D11*
X10400Y72550D02*
X10405Y72918D01*
X10418Y73286D01*
X10441Y73653D01*
X10472Y74020D01*
X10513Y74386D01*
X10562Y74751D01*
X10621Y75114D01*
X10688Y75476D01*
X10764Y75837D01*
X10850Y76195D01*
X10943Y76551D01*
X11046Y76904D01*
X11157Y77255D01*
X11277Y77603D01*
X11405Y77948D01*
X11542Y78290D01*
X11687Y78629D01*
X11840Y78963D01*
X12002Y79294D01*
X12171Y79621D01*
X12349Y79943D01*
X12534Y80262D01*
X12727Y80575D01*
X12928Y80884D01*
X13136Y81187D01*
X13352Y81485D01*
X13575Y81778D01*
X13805Y82066D01*
X14042Y82348D01*
X14286Y82623D01*
X14536Y82893D01*
X14793Y83157D01*
X15057Y83414D01*
X15327Y83664D01*
X15602Y83908D01*
X15884Y84145D01*
X16172Y84375D01*
X16465Y84598D01*
X16763Y84814D01*
X17066Y85022D01*
X17375Y85223D01*
X17688Y85416D01*
X18007Y85601D01*
X18329Y85779D01*
X18656Y85948D01*
X18987Y86110D01*
X19321Y86263D01*
X19660Y86408D01*
X20002Y86545D01*
X20347Y86673D01*
X20695Y86793D01*
X21046Y86904D01*
X21399Y87007D01*
X21755Y87100D01*
X22113Y87186D01*
X22474Y87262D01*
X22836Y87329D01*
X23199Y87388D01*
X23564Y87437D01*
X23930Y87478D01*
X24297Y87509D01*
X24664Y87532D01*
X25032Y87545D01*
X25400Y87550D01*
X25768Y87545D01*
X26136Y87532D01*
X26503Y87509D01*
X26870Y87478D01*
X27236Y87437D01*
X27601Y87388D01*
X27964Y87329D01*
X28326Y87262D01*
X28687Y87186D01*
X29045Y87100D01*
X29401Y87007D01*
X29754Y86904D01*
X30105Y86793D01*
X30453Y86673D01*
X30798Y86545D01*
X31140Y86408D01*
X31479Y86263D01*
X31813Y86110D01*
X32144Y85948D01*
X32471Y85779D01*
X32793Y85601D01*
X33112Y85416D01*
X33425Y85223D01*
X33734Y85022D01*
X34037Y84814D01*
X34335Y84598D01*
X34628Y84375D01*
X34916Y84145D01*
X35198Y83908D01*
X35473Y83664D01*
X35743Y83414D01*
X36007Y83157D01*
X36264Y82893D01*
X36514Y82623D01*
X36758Y82348D01*
X36995Y82066D01*
X37225Y81778D01*
X37448Y81485D01*
X37664Y81187D01*
X37872Y80884D01*
X38073Y80575D01*
X38266Y80262D01*
X38451Y79943D01*
X38629Y79621D01*
X38798Y79294D01*
X38960Y78963D01*
X39113Y78629D01*
X39258Y78290D01*
X39395Y77948D01*
X39523Y77603D01*
X39643Y77255D01*
X39754Y76904D01*
X39857Y76551D01*
X39950Y76195D01*
X40036Y75837D01*
X40112Y75476D01*
X40179Y75114D01*
X40238Y74751D01*
X40287Y74386D01*
X40328Y74020D01*
X40359Y73653D01*
X40382Y73286D01*
X40395Y72918D01*
X40400Y72550D01*
X40395Y72182D01*
X40382Y71814D01*
X40359Y71447D01*
X40328Y71080D01*
X40287Y70714D01*
X40238Y70349D01*
X40179Y69986D01*
X40112Y69624D01*
X40036Y69263D01*
X39950Y68905D01*
X39857Y68549D01*
X39754Y68196D01*
X39643Y67845D01*
X39523Y67497D01*
X39395Y67152D01*
X39258Y66810D01*
X39113Y66471D01*
X38960Y66137D01*
X38798Y65806D01*
X38629Y65479D01*
X38451Y65157D01*
X38266Y64838D01*
X38073Y64525D01*
X37872Y64216D01*
X37664Y63913D01*
X37448Y63615D01*
X37225Y63322D01*
X36995Y63034D01*
X36758Y62752D01*
X36514Y62477D01*
X36264Y62207D01*
X36007Y61943D01*
X35743Y61686D01*
X35473Y61436D01*
X35198Y61192D01*
X34916Y60955D01*
X34628Y60725D01*
X34335Y60502D01*
X34037Y60286D01*
X33734Y60078D01*
X33425Y59877D01*
X33112Y59684D01*
X32793Y59499D01*
X32471Y59321D01*
X32144Y59152D01*
X31813Y58990D01*
X31479Y58837D01*
X31140Y58692D01*
X30798Y58555D01*
X30453Y58427D01*
X30105Y58307D01*
X29754Y58196D01*
X29401Y58093D01*
X29045Y58000D01*
X28687Y57914D01*
X28326Y57838D01*
X27964Y57771D01*
X27601Y57712D01*
X27236Y57663D01*
X26870Y57622D01*
X26503Y57591D01*
X26136Y57568D01*
X25768Y57555D01*
X25400Y57550D01*
X25032Y57555D01*
X24664Y57568D01*
X24297Y57591D01*
X23930Y57622D01*
X23564Y57663D01*
X23199Y57712D01*
X22836Y57771D01*
X22474Y57838D01*
X22113Y57914D01*
X21755Y58000D01*
X21399Y58093D01*
X21046Y58196D01*
X20695Y58307D01*
X20347Y58427D01*
X20002Y58555D01*
X19660Y58692D01*
X19321Y58837D01*
X18987Y58990D01*
X18656Y59152D01*
X18329Y59321D01*
X18007Y59499D01*
X17688Y59684D01*
X17375Y59877D01*
X17066Y60078D01*
X16763Y60286D01*
X16465Y60502D01*
X16172Y60725D01*
X15884Y60955D01*
X15602Y61192D01*
X15327Y61436D01*
X15057Y61686D01*
X14793Y61943D01*
X14536Y62207D01*
X14286Y62477D01*
X14042Y62752D01*
X13805Y63034D01*
X13575Y63322D01*
X13352Y63615D01*
X13136Y63913D01*
X12928Y64216D01*
X12727Y64525D01*
X12534Y64838D01*
X12349Y65157D01*
X12171Y65479D01*
X12002Y65806D01*
X11840Y66137D01*
X11687Y66471D01*
X11542Y66810D01*
X11405Y67152D01*
X11277Y67497D01*
X11157Y67845D01*
X11046Y68196D01*
X10943Y68549D01*
X10850Y68905D01*
X10764Y69263D01*
X10688Y69624D01*
X10621Y69986D01*
X10562Y70349D01*
X10513Y70714D01*
X10472Y71080D01*
X10441Y71447D01*
X10418Y71814D01*
X10405Y72182D01*
X10400Y72550D01*
X315200Y72550D02*
X315205Y72918D01*
X315218Y73286D01*
X315241Y73653D01*
X315272Y74020D01*
X315313Y74386D01*
X315362Y74751D01*
X315421Y75114D01*
X315488Y75476D01*
X315564Y75837D01*
X315650Y76195D01*
X315743Y76551D01*
X315846Y76904D01*
X315957Y77255D01*
X316077Y77603D01*
X316205Y77948D01*
X316342Y78290D01*
X316487Y78629D01*
X316640Y78963D01*
X316802Y79294D01*
X316971Y79621D01*
X317149Y79943D01*
X317334Y80262D01*
X317527Y80575D01*
X317728Y80884D01*
X317936Y81187D01*
X318152Y81485D01*
X318375Y81778D01*
X318605Y82066D01*
X318842Y82348D01*
X319086Y82623D01*
X319336Y82893D01*
X319593Y83157D01*
X319857Y83414D01*
X320127Y83664D01*
X320402Y83908D01*
X320684Y84145D01*
X320972Y84375D01*
X321265Y84598D01*
X321563Y84814D01*
X321866Y85022D01*
X322175Y85223D01*
X322488Y85416D01*
X322807Y85601D01*
X323129Y85779D01*
X323456Y85948D01*
X323787Y86110D01*
X324121Y86263D01*
X324460Y86408D01*
X324802Y86545D01*
X325147Y86673D01*
X325495Y86793D01*
X325846Y86904D01*
X326199Y87007D01*
X326555Y87100D01*
X326913Y87186D01*
X327274Y87262D01*
X327636Y87329D01*
X327999Y87388D01*
X328364Y87437D01*
X328730Y87478D01*
X329097Y87509D01*
X329464Y87532D01*
X329832Y87545D01*
X330200Y87550D01*
X330568Y87545D01*
X330936Y87532D01*
X331303Y87509D01*
X331670Y87478D01*
X332036Y87437D01*
X332401Y87388D01*
X332764Y87329D01*
X333126Y87262D01*
X333487Y87186D01*
X333845Y87100D01*
X334201Y87007D01*
X334554Y86904D01*
X334905Y86793D01*
X335253Y86673D01*
X335598Y86545D01*
X335940Y86408D01*
X336279Y86263D01*
X336613Y86110D01*
X336944Y85948D01*
X337271Y85779D01*
X337593Y85601D01*
X337912Y85416D01*
X338225Y85223D01*
X338534Y85022D01*
X338837Y84814D01*
X339135Y84598D01*
X339428Y84375D01*
X339716Y84145D01*
X339998Y83908D01*
X340273Y83664D01*
X340543Y83414D01*
X340807Y83157D01*
X341064Y82893D01*
X341314Y82623D01*
X341558Y82348D01*
X341795Y82066D01*
X342025Y81778D01*
X342248Y81485D01*
X342464Y81187D01*
X342672Y80884D01*
X342873Y80575D01*
X343066Y80262D01*
X343251Y79943D01*
X343429Y79621D01*
X343598Y79294D01*
X343760Y78963D01*
X343913Y78629D01*
X344058Y78290D01*
X344195Y77948D01*
X344323Y77603D01*
X344443Y77255D01*
X344554Y76904D01*
X344657Y76551D01*
X344750Y76195D01*
X344836Y75837D01*
X344912Y75476D01*
X344979Y75114D01*
X345038Y74751D01*
X345087Y74386D01*
X345128Y74020D01*
X345159Y73653D01*
X345182Y73286D01*
X345195Y72918D01*
X345200Y72550D01*
X345195Y72182D01*
X345182Y71814D01*
X345159Y71447D01*
X345128Y71080D01*
X345087Y70714D01*
X345038Y70349D01*
X344979Y69986D01*
X344912Y69624D01*
X344836Y69263D01*
X344750Y68905D01*
X344657Y68549D01*
X344554Y68196D01*
X344443Y67845D01*
X344323Y67497D01*
X344195Y67152D01*
X344058Y66810D01*
X343913Y66471D01*
X343760Y66137D01*
X343598Y65806D01*
X343429Y65479D01*
X343251Y65157D01*
X343066Y64838D01*
X342873Y64525D01*
X342672Y64216D01*
X342464Y63913D01*
X342248Y63615D01*
X342025Y63322D01*
X341795Y63034D01*
X341558Y62752D01*
X341314Y62477D01*
X341064Y62207D01*
X340807Y61943D01*
X340543Y61686D01*
X340273Y61436D01*
X339998Y61192D01*
X339716Y60955D01*
X339428Y60725D01*
X339135Y60502D01*
X338837Y60286D01*
X338534Y60078D01*
X338225Y59877D01*
X337912Y59684D01*
X337593Y59499D01*
X337271Y59321D01*
X336944Y59152D01*
X336613Y58990D01*
X336279Y58837D01*
X335940Y58692D01*
X335598Y58555D01*
X335253Y58427D01*
X334905Y58307D01*
X334554Y58196D01*
X334201Y58093D01*
X333845Y58000D01*
X333487Y57914D01*
X333126Y57838D01*
X332764Y57771D01*
X332401Y57712D01*
X332036Y57663D01*
X331670Y57622D01*
X331303Y57591D01*
X330936Y57568D01*
X330568Y57555D01*
X330200Y57550D01*
X329832Y57555D01*
X329464Y57568D01*
X329097Y57591D01*
X328730Y57622D01*
X328364Y57663D01*
X327999Y57712D01*
X327636Y57771D01*
X327274Y57838D01*
X326913Y57914D01*
X326555Y58000D01*
X326199Y58093D01*
X325846Y58196D01*
X325495Y58307D01*
X325147Y58427D01*
X324802Y58555D01*
X324460Y58692D01*
X324121Y58837D01*
X323787Y58990D01*
X323456Y59152D01*
X323129Y59321D01*
X322807Y59499D01*
X322488Y59684D01*
X322175Y59877D01*
X321866Y60078D01*
X321563Y60286D01*
X321265Y60502D01*
X320972Y60725D01*
X320684Y60955D01*
X320402Y61192D01*
X320127Y61436D01*
X319857Y61686D01*
X319593Y61943D01*
X319336Y62207D01*
X319086Y62477D01*
X318842Y62752D01*
X318605Y63034D01*
X318375Y63322D01*
X318152Y63615D01*
X317936Y63913D01*
X317728Y64216D01*
X317527Y64525D01*
X317334Y64838D01*
X317149Y65157D01*
X316971Y65479D01*
X316802Y65806D01*
X316640Y66137D01*
X316487Y66471D01*
X316342Y66810D01*
X316205Y67152D01*
X316077Y67497D01*
X315957Y67845D01*
X315846Y68196D01*
X315743Y68549D01*
X315650Y68905D01*
X315564Y69263D01*
X315488Y69624D01*
X315421Y69986D01*
X315362Y70349D01*
X315313Y70714D01*
X315272Y71080D01*
X315241Y71447D01*
X315218Y71814D01*
X315205Y72182D01*
X315200Y72550D01*
X48000Y0D02*
X48002Y109D01*
X48008Y218D01*
X48018Y326D01*
X48032Y434D01*
X48049Y542D01*
X48071Y649D01*
X48096Y755D01*
X48126Y859D01*
X48159Y963D01*
X48196Y1066D01*
X48236Y1167D01*
X48280Y1266D01*
X48328Y1364D01*
X48380Y1461D01*
X48434Y1555D01*
X48492Y1647D01*
X48554Y1737D01*
X48619Y1824D01*
X48686Y1910D01*
X48757Y1993D01*
X48831Y2073D01*
X48908Y2150D01*
X48987Y2225D01*
X49069Y2296D01*
X49154Y2365D01*
X49241Y2430D01*
X49330Y2493D01*
X49422Y2551D01*
X49516Y2607D01*
X49611Y2659D01*
X49709Y2708D01*
X49808Y2753D01*
X49909Y2795D01*
X50011Y2832D01*
X50114Y2866D01*
X50219Y2897D01*
X50325Y2923D01*
X50431Y2946D01*
X50539Y2964D01*
X50647Y2979D01*
X50755Y2990D01*
X50864Y2997D01*
X50973Y3000D01*
X51082Y2999D01*
X51191Y2994D01*
X51299Y2985D01*
X51407Y2972D01*
X51515Y2955D01*
X51622Y2935D01*
X51728Y2910D01*
X51833Y2882D01*
X51937Y2850D01*
X52040Y2814D01*
X52142Y2774D01*
X52242Y2731D01*
X52340Y2684D01*
X52437Y2634D01*
X52531Y2580D01*
X52624Y2522D01*
X52715Y2462D01*
X52803Y2398D01*
X52889Y2331D01*
X52972Y2261D01*
X53053Y2188D01*
X53131Y2112D01*
X53206Y2033D01*
X53279Y1951D01*
X53348Y1867D01*
X53414Y1781D01*
X53477Y1692D01*
X53537Y1601D01*
X53594Y1508D01*
X53647Y1413D01*
X53696Y1316D01*
X53742Y1217D01*
X53784Y1117D01*
X53823Y1015D01*
X53858Y911D01*
X53889Y807D01*
X53917Y702D01*
X53940Y595D01*
X53960Y488D01*
X53976Y380D01*
X53988Y272D01*
X53996Y163D01*
X54000Y54D01*
X54000Y-54D01*
X53996Y-163D01*
X53988Y-272D01*
X53976Y-380D01*
X53960Y-488D01*
X53940Y-595D01*
X53917Y-702D01*
X53889Y-807D01*
X53858Y-911D01*
X53823Y-1015D01*
X53784Y-1117D01*
X53742Y-1217D01*
X53696Y-1316D01*
X53647Y-1413D01*
X53594Y-1508D01*
X53537Y-1601D01*
X53477Y-1692D01*
X53414Y-1781D01*
X53348Y-1867D01*
X53279Y-1951D01*
X53206Y-2033D01*
X53131Y-2112D01*
X53053Y-2188D01*
X52972Y-2261D01*
X52889Y-2331D01*
X52803Y-2398D01*
X52715Y-2462D01*
X52624Y-2522D01*
X52531Y-2580D01*
X52437Y-2634D01*
X52340Y-2684D01*
X52242Y-2731D01*
X52142Y-2774D01*
X52040Y-2814D01*
X51937Y-2850D01*
X51833Y-2882D01*
X51728Y-2910D01*
X51622Y-2935D01*
X51515Y-2955D01*
X51407Y-2972D01*
X51299Y-2985D01*
X51191Y-2994D01*
X51082Y-2999D01*
X50973Y-3000D01*
X50864Y-2997D01*
X50755Y-2990D01*
X50647Y-2979D01*
X50539Y-2964D01*
X50431Y-2946D01*
X50325Y-2923D01*
X50219Y-2897D01*
X50114Y-2866D01*
X50011Y-2832D01*
X49909Y-2795D01*
X49808Y-2753D01*
X49709Y-2708D01*
X49611Y-2659D01*
X49516Y-2607D01*
X49422Y-2551D01*
X49330Y-2493D01*
X49241Y-2430D01*
X49154Y-2365D01*
X49069Y-2296D01*
X48987Y-2225D01*
X48908Y-2150D01*
X48831Y-2073D01*
X48757Y-1993D01*
X48686Y-1910D01*
X48619Y-1824D01*
X48554Y-1737D01*
X48492Y-1647D01*
X48434Y-1555D01*
X48380Y-1461D01*
X48328Y-1364D01*
X48280Y-1266D01*
X48236Y-1167D01*
X48196Y-1066D01*
X48159Y-963D01*
X48126Y-859D01*
X48096Y-755D01*
X48071Y-649D01*
X48049Y-542D01*
X48032Y-434D01*
X48018Y-326D01*
X48008Y-218D01*
X48002Y-109D01*
X48000Y0D01*
X301600Y0D02*
X301602Y109D01*
X301608Y218D01*
X301618Y326D01*
X301632Y434D01*
X301649Y542D01*
X301671Y649D01*
X301696Y755D01*
X301726Y859D01*
X301759Y963D01*
X301796Y1066D01*
X301836Y1167D01*
X301880Y1266D01*
X301928Y1364D01*
X301980Y1461D01*
X302034Y1555D01*
X302092Y1647D01*
X302154Y1737D01*
X302219Y1824D01*
X302286Y1910D01*
X302357Y1993D01*
X302431Y2073D01*
X302508Y2150D01*
X302587Y2225D01*
X302669Y2296D01*
X302754Y2365D01*
X302841Y2430D01*
X302930Y2493D01*
X303022Y2551D01*
X303116Y2607D01*
X303211Y2659D01*
X303309Y2708D01*
X303408Y2753D01*
X303509Y2795D01*
X303611Y2832D01*
X303714Y2866D01*
X303819Y2897D01*
X303925Y2923D01*
X304031Y2946D01*
X304139Y2964D01*
X304247Y2979D01*
X304355Y2990D01*
X304464Y2997D01*
X304573Y3000D01*
X304682Y2999D01*
X304791Y2994D01*
X304899Y2985D01*
X305007Y2972D01*
X305115Y2955D01*
X305222Y2935D01*
X305328Y2910D01*
X305433Y2882D01*
X305537Y2850D01*
X305640Y2814D01*
X305742Y2774D01*
X305842Y2731D01*
X305940Y2684D01*
X306037Y2634D01*
X306131Y2580D01*
X306224Y2522D01*
X306315Y2462D01*
X306403Y2398D01*
X306489Y2331D01*
X306572Y2261D01*
X306653Y2188D01*
X306731Y2112D01*
X306806Y2033D01*
X306879Y1951D01*
X306948Y1867D01*
X307014Y1781D01*
X307077Y1692D01*
X307137Y1601D01*
X307194Y1508D01*
X307247Y1413D01*
X307296Y1316D01*
X307342Y1217D01*
X307384Y1117D01*
X307423Y1015D01*
X307458Y911D01*
X307489Y807D01*
X307517Y702D01*
X307540Y595D01*
X307560Y488D01*
X307576Y380D01*
X307588Y272D01*
X307596Y163D01*
X307600Y54D01*
X307600Y-54D01*
X307596Y-163D01*
X307588Y-272D01*
X307576Y-380D01*
X307560Y-488D01*
X307540Y-595D01*
X307517Y-702D01*
X307489Y-807D01*
X307458Y-911D01*
X307423Y-1015D01*
X307384Y-1117D01*
X307342Y-1217D01*
X307296Y-1316D01*
X307247Y-1413D01*
X307194Y-1508D01*
X307137Y-1601D01*
X307077Y-1692D01*
X307014Y-1781D01*
X306948Y-1867D01*
X306879Y-1951D01*
X306806Y-2033D01*
X306731Y-2112D01*
X306653Y-2188D01*
X306572Y-2261D01*
X306489Y-2331D01*
X306403Y-2398D01*
X306315Y-2462D01*
X306224Y-2522D01*
X306131Y-2580D01*
X306037Y-2634D01*
X305940Y-2684D01*
X305842Y-2731D01*
X305742Y-2774D01*
X305640Y-2814D01*
X305537Y-2850D01*
X305433Y-2882D01*
X305328Y-2910D01*
X305222Y-2935D01*
X305115Y-2955D01*
X305007Y-2972D01*
X304899Y-2985D01*
X304791Y-2994D01*
X304682Y-2999D01*
X304573Y-3000D01*
X304464Y-2997D01*
X304355Y-2990D01*
X304247Y-2979D01*
X304139Y-2964D01*
X304031Y-2946D01*
X303925Y-2923D01*
X303819Y-2897D01*
X303714Y-2866D01*
X303611Y-2832D01*
X303509Y-2795D01*
X303408Y-2753D01*
X303309Y-2708D01*
X303211Y-2659D01*
X303116Y-2607D01*
X303022Y-2551D01*
X302930Y-2493D01*
X302841Y-2430D01*
X302754Y-2365D01*
X302669Y-2296D01*
X302587Y-2225D01*
X302508Y-2150D01*
X302431Y-2073D01*
X302357Y-1993D01*
X302286Y-1910D01*
X302219Y-1824D01*
X302154Y-1737D01*
X302092Y-1647D01*
X302034Y-1555D01*
X301980Y-1461D01*
X301928Y-1364D01*
X301880Y-1266D01*
X301836Y-1167D01*
X301796Y-1066D01*
X301759Y-963D01*
X301726Y-859D01*
X301696Y-755D01*
X301671Y-649D01*
X301649Y-542D01*
X301632Y-434D01*
X301618Y-326D01*
X301608Y-218D01*
X301602Y-109D01*
X301600Y0D01*
X48000Y10364D02*
X48002Y10473D01*
X48008Y10582D01*
X48018Y10690D01*
X48032Y10798D01*
X48049Y10906D01*
X48071Y11013D01*
X48096Y11119D01*
X48126Y11223D01*
X48159Y11327D01*
X48196Y11430D01*
X48236Y11531D01*
X48280Y11630D01*
X48328Y11728D01*
X48380Y11825D01*
X48434Y11919D01*
X48492Y12011D01*
X48554Y12101D01*
X48619Y12188D01*
X48686Y12274D01*
X48757Y12357D01*
X48831Y12437D01*
X48908Y12514D01*
X48987Y12589D01*
X49069Y12660D01*
X49154Y12729D01*
X49241Y12794D01*
X49330Y12857D01*
X49422Y12915D01*
X49516Y12971D01*
X49611Y13023D01*
X49709Y13072D01*
X49808Y13117D01*
X49909Y13159D01*
X50011Y13196D01*
X50114Y13230D01*
X50219Y13261D01*
X50325Y13287D01*
X50431Y13310D01*
X50539Y13328D01*
X50647Y13343D01*
X50755Y13354D01*
X50864Y13361D01*
X50973Y13364D01*
X51082Y13363D01*
X51191Y13358D01*
X51299Y13349D01*
X51407Y13336D01*
X51515Y13319D01*
X51622Y13299D01*
X51728Y13274D01*
X51833Y13246D01*
X51937Y13214D01*
X52040Y13178D01*
X52142Y13138D01*
X52242Y13095D01*
X52340Y13048D01*
X52437Y12998D01*
X52531Y12944D01*
X52624Y12886D01*
X52715Y12826D01*
X52803Y12762D01*
X52889Y12695D01*
X52972Y12625D01*
X53053Y12552D01*
X53131Y12476D01*
X53206Y12397D01*
X53279Y12315D01*
X53348Y12231D01*
X53414Y12145D01*
X53477Y12056D01*
X53537Y11965D01*
X53594Y11872D01*
X53647Y11777D01*
X53696Y11680D01*
X53742Y11581D01*
X53784Y11481D01*
X53823Y11379D01*
X53858Y11275D01*
X53889Y11171D01*
X53917Y11066D01*
X53940Y10959D01*
X53960Y10852D01*
X53976Y10744D01*
X53988Y10636D01*
X53996Y10527D01*
X54000Y10418D01*
X54000Y10310D01*
X53996Y10201D01*
X53988Y10092D01*
X53976Y9984D01*
X53960Y9876D01*
X53940Y9769D01*
X53917Y9662D01*
X53889Y9557D01*
X53858Y9453D01*
X53823Y9349D01*
X53784Y9247D01*
X53742Y9147D01*
X53696Y9048D01*
X53647Y8951D01*
X53594Y8856D01*
X53537Y8763D01*
X53477Y8672D01*
X53414Y8583D01*
X53348Y8497D01*
X53279Y8413D01*
X53206Y8331D01*
X53131Y8252D01*
X53053Y8176D01*
X52972Y8103D01*
X52889Y8033D01*
X52803Y7966D01*
X52715Y7902D01*
X52624Y7842D01*
X52531Y7784D01*
X52437Y7730D01*
X52340Y7680D01*
X52242Y7633D01*
X52142Y7590D01*
X52040Y7550D01*
X51937Y7514D01*
X51833Y7482D01*
X51728Y7454D01*
X51622Y7429D01*
X51515Y7409D01*
X51407Y7392D01*
X51299Y7379D01*
X51191Y7370D01*
X51082Y7365D01*
X50973Y7364D01*
X50864Y7367D01*
X50755Y7374D01*
X50647Y7385D01*
X50539Y7400D01*
X50431Y7418D01*
X50325Y7441D01*
X50219Y7467D01*
X50114Y7498D01*
X50011Y7532D01*
X49909Y7569D01*
X49808Y7611D01*
X49709Y7656D01*
X49611Y7705D01*
X49516Y7757D01*
X49422Y7813D01*
X49330Y7871D01*
X49241Y7934D01*
X49154Y7999D01*
X49069Y8068D01*
X48987Y8139D01*
X48908Y8214D01*
X48831Y8291D01*
X48757Y8371D01*
X48686Y8454D01*
X48619Y8540D01*
X48554Y8627D01*
X48492Y8717D01*
X48434Y8809D01*
X48380Y8903D01*
X48328Y9000D01*
X48280Y9098D01*
X48236Y9197D01*
X48196Y9298D01*
X48159Y9401D01*
X48126Y9505D01*
X48096Y9609D01*
X48071Y9715D01*
X48049Y9822D01*
X48032Y9930D01*
X48018Y10038D01*
X48008Y10146D01*
X48002Y10255D01*
X48000Y10364D01*
X48000Y20728D02*
X48002Y20837D01*
X48008Y20946D01*
X48018Y21054D01*
X48032Y21162D01*
X48049Y21270D01*
X48071Y21377D01*
X48096Y21483D01*
X48126Y21587D01*
X48159Y21691D01*
X48196Y21794D01*
X48236Y21895D01*
X48280Y21994D01*
X48328Y22092D01*
X48380Y22189D01*
X48434Y22283D01*
X48492Y22375D01*
X48554Y22465D01*
X48619Y22552D01*
X48686Y22638D01*
X48757Y22721D01*
X48831Y22801D01*
X48908Y22878D01*
X48987Y22953D01*
X49069Y23024D01*
X49154Y23093D01*
X49241Y23158D01*
X49330Y23221D01*
X49422Y23279D01*
X49516Y23335D01*
X49611Y23387D01*
X49709Y23436D01*
X49808Y23481D01*
X49909Y23523D01*
X50011Y23560D01*
X50114Y23594D01*
X50219Y23625D01*
X50325Y23651D01*
X50431Y23674D01*
X50539Y23692D01*
X50647Y23707D01*
X50755Y23718D01*
X50864Y23725D01*
X50973Y23728D01*
X51082Y23727D01*
X51191Y23722D01*
X51299Y23713D01*
X51407Y23700D01*
X51515Y23683D01*
X51622Y23663D01*
X51728Y23638D01*
X51833Y23610D01*
X51937Y23578D01*
X52040Y23542D01*
X52142Y23502D01*
X52242Y23459D01*
X52340Y23412D01*
X52437Y23362D01*
X52531Y23308D01*
X52624Y23250D01*
X52715Y23190D01*
X52803Y23126D01*
X52889Y23059D01*
X52972Y22989D01*
X53053Y22916D01*
X53131Y22840D01*
X53206Y22761D01*
X53279Y22679D01*
X53348Y22595D01*
X53414Y22509D01*
X53477Y22420D01*
X53537Y22329D01*
X53594Y22236D01*
X53647Y22141D01*
X53696Y22044D01*
X53742Y21945D01*
X53784Y21845D01*
X53823Y21743D01*
X53858Y21639D01*
X53889Y21535D01*
X53917Y21430D01*
X53940Y21323D01*
X53960Y21216D01*
X53976Y21108D01*
X53988Y21000D01*
X53996Y20891D01*
X54000Y20782D01*
X54000Y20674D01*
X53996Y20565D01*
X53988Y20456D01*
X53976Y20348D01*
X53960Y20240D01*
X53940Y20133D01*
X53917Y20026D01*
X53889Y19921D01*
X53858Y19817D01*
X53823Y19713D01*
X53784Y19611D01*
X53742Y19511D01*
X53696Y19412D01*
X53647Y19315D01*
X53594Y19220D01*
X53537Y19127D01*
X53477Y19036D01*
X53414Y18947D01*
X53348Y18861D01*
X53279Y18777D01*
X53206Y18695D01*
X53131Y18616D01*
X53053Y18540D01*
X52972Y18467D01*
X52889Y18397D01*
X52803Y18330D01*
X52715Y18266D01*
X52624Y18206D01*
X52531Y18148D01*
X52437Y18094D01*
X52340Y18044D01*
X52242Y17997D01*
X52142Y17954D01*
X52040Y17914D01*
X51937Y17878D01*
X51833Y17846D01*
X51728Y17818D01*
X51622Y17793D01*
X51515Y17773D01*
X51407Y17756D01*
X51299Y17743D01*
X51191Y17734D01*
X51082Y17729D01*
X50973Y17728D01*
X50864Y17731D01*
X50755Y17738D01*
X50647Y17749D01*
X50539Y17764D01*
X50431Y17782D01*
X50325Y17805D01*
X50219Y17831D01*
X50114Y17862D01*
X50011Y17896D01*
X49909Y17933D01*
X49808Y17975D01*
X49709Y18020D01*
X49611Y18069D01*
X49516Y18121D01*
X49422Y18177D01*
X49330Y18235D01*
X49241Y18298D01*
X49154Y18363D01*
X49069Y18432D01*
X48987Y18503D01*
X48908Y18578D01*
X48831Y18655D01*
X48757Y18735D01*
X48686Y18818D01*
X48619Y18904D01*
X48554Y18991D01*
X48492Y19081D01*
X48434Y19173D01*
X48380Y19267D01*
X48328Y19364D01*
X48280Y19462D01*
X48236Y19561D01*
X48196Y19662D01*
X48159Y19765D01*
X48126Y19869D01*
X48096Y19973D01*
X48071Y20079D01*
X48049Y20186D01*
X48032Y20294D01*
X48018Y20402D01*
X48008Y20510D01*
X48002Y20619D01*
X48000Y20728D01*
X48000Y31092D02*
X48002Y31201D01*
X48008Y31310D01*
X48018Y31418D01*
X48032Y31526D01*
X48049Y31634D01*
X48071Y31741D01*
X48096Y31847D01*
X48126Y31951D01*
X48159Y32055D01*
X48196Y32158D01*
X48236Y32259D01*
X48280Y32358D01*
X48328Y32456D01*
X48380Y32553D01*
X48434Y32647D01*
X48492Y32739D01*
X48554Y32829D01*
X48619Y32916D01*
X48686Y33002D01*
X48757Y33085D01*
X48831Y33165D01*
X48908Y33242D01*
X48987Y33317D01*
X49069Y33388D01*
X49154Y33457D01*
X49241Y33522D01*
X49330Y33585D01*
X49422Y33643D01*
X49516Y33699D01*
X49611Y33751D01*
X49709Y33800D01*
X49808Y33845D01*
X49909Y33887D01*
X50011Y33924D01*
X50114Y33958D01*
X50219Y33989D01*
X50325Y34015D01*
X50431Y34038D01*
X50539Y34056D01*
X50647Y34071D01*
X50755Y34082D01*
X50864Y34089D01*
X50973Y34092D01*
X51082Y34091D01*
X51191Y34086D01*
X51299Y34077D01*
X51407Y34064D01*
X51515Y34047D01*
X51622Y34027D01*
X51728Y34002D01*
X51833Y33974D01*
X51937Y33942D01*
X52040Y33906D01*
X52142Y33866D01*
X52242Y33823D01*
X52340Y33776D01*
X52437Y33726D01*
X52531Y33672D01*
X52624Y33614D01*
X52715Y33554D01*
X52803Y33490D01*
X52889Y33423D01*
X52972Y33353D01*
X53053Y33280D01*
X53131Y33204D01*
X53206Y33125D01*
X53279Y33043D01*
X53348Y32959D01*
X53414Y32873D01*
X53477Y32784D01*
X53537Y32693D01*
X53594Y32600D01*
X53647Y32505D01*
X53696Y32408D01*
X53742Y32309D01*
X53784Y32209D01*
X53823Y32107D01*
X53858Y32003D01*
X53889Y31899D01*
X53917Y31794D01*
X53940Y31687D01*
X53960Y31580D01*
X53976Y31472D01*
X53988Y31364D01*
X53996Y31255D01*
X54000Y31146D01*
X54000Y31038D01*
X53996Y30929D01*
X53988Y30820D01*
X53976Y30712D01*
X53960Y30604D01*
X53940Y30497D01*
X53917Y30390D01*
X53889Y30285D01*
X53858Y30181D01*
X53823Y30077D01*
X53784Y29975D01*
X53742Y29875D01*
X53696Y29776D01*
X53647Y29679D01*
X53594Y29584D01*
X53537Y29491D01*
X53477Y29400D01*
X53414Y29311D01*
X53348Y29225D01*
X53279Y29141D01*
X53206Y29059D01*
X53131Y28980D01*
X53053Y28904D01*
X52972Y28831D01*
X52889Y28761D01*
X52803Y28694D01*
X52715Y28630D01*
X52624Y28570D01*
X52531Y28512D01*
X52437Y28458D01*
X52340Y28408D01*
X52242Y28361D01*
X52142Y28318D01*
X52040Y28278D01*
X51937Y28242D01*
X51833Y28210D01*
X51728Y28182D01*
X51622Y28157D01*
X51515Y28137D01*
X51407Y28120D01*
X51299Y28107D01*
X51191Y28098D01*
X51082Y28093D01*
X50973Y28092D01*
X50864Y28095D01*
X50755Y28102D01*
X50647Y28113D01*
X50539Y28128D01*
X50431Y28146D01*
X50325Y28169D01*
X50219Y28195D01*
X50114Y28226D01*
X50011Y28260D01*
X49909Y28297D01*
X49808Y28339D01*
X49709Y28384D01*
X49611Y28433D01*
X49516Y28485D01*
X49422Y28541D01*
X49330Y28599D01*
X49241Y28662D01*
X49154Y28727D01*
X49069Y28796D01*
X48987Y28867D01*
X48908Y28942D01*
X48831Y29019D01*
X48757Y29099D01*
X48686Y29182D01*
X48619Y29268D01*
X48554Y29355D01*
X48492Y29445D01*
X48434Y29537D01*
X48380Y29631D01*
X48328Y29728D01*
X48280Y29826D01*
X48236Y29925D01*
X48196Y30026D01*
X48159Y30129D01*
X48126Y30233D01*
X48096Y30337D01*
X48071Y30443D01*
X48049Y30550D01*
X48032Y30658D01*
X48018Y30766D01*
X48008Y30874D01*
X48002Y30983D01*
X48000Y31092D01*
X48000Y41456D02*
X48002Y41565D01*
X48008Y41674D01*
X48018Y41782D01*
X48032Y41890D01*
X48049Y41998D01*
X48071Y42105D01*
X48096Y42211D01*
X48126Y42315D01*
X48159Y42419D01*
X48196Y42522D01*
X48236Y42623D01*
X48280Y42722D01*
X48328Y42820D01*
X48380Y42917D01*
X48434Y43011D01*
X48492Y43103D01*
X48554Y43193D01*
X48619Y43280D01*
X48686Y43366D01*
X48757Y43449D01*
X48831Y43529D01*
X48908Y43606D01*
X48987Y43681D01*
X49069Y43752D01*
X49154Y43821D01*
X49241Y43886D01*
X49330Y43949D01*
X49422Y44007D01*
X49516Y44063D01*
X49611Y44115D01*
X49709Y44164D01*
X49808Y44209D01*
X49909Y44251D01*
X50011Y44288D01*
X50114Y44322D01*
X50219Y44353D01*
X50325Y44379D01*
X50431Y44402D01*
X50539Y44420D01*
X50647Y44435D01*
X50755Y44446D01*
X50864Y44453D01*
X50973Y44456D01*
X51082Y44455D01*
X51191Y44450D01*
X51299Y44441D01*
X51407Y44428D01*
X51515Y44411D01*
X51622Y44391D01*
X51728Y44366D01*
X51833Y44338D01*
X51937Y44306D01*
X52040Y44270D01*
X52142Y44230D01*
X52242Y44187D01*
X52340Y44140D01*
X52437Y44090D01*
X52531Y44036D01*
X52624Y43978D01*
X52715Y43918D01*
X52803Y43854D01*
X52889Y43787D01*
X52972Y43717D01*
X53053Y43644D01*
X53131Y43568D01*
X53206Y43489D01*
X53279Y43407D01*
X53348Y43323D01*
X53414Y43237D01*
X53477Y43148D01*
X53537Y43057D01*
X53594Y42964D01*
X53647Y42869D01*
X53696Y42772D01*
X53742Y42673D01*
X53784Y42573D01*
X53823Y42471D01*
X53858Y42367D01*
X53889Y42263D01*
X53917Y42158D01*
X53940Y42051D01*
X53960Y41944D01*
X53976Y41836D01*
X53988Y41728D01*
X53996Y41619D01*
X54000Y41510D01*
X54000Y41402D01*
X53996Y41293D01*
X53988Y41184D01*
X53976Y41076D01*
X53960Y40968D01*
X53940Y40861D01*
X53917Y40754D01*
X53889Y40649D01*
X53858Y40545D01*
X53823Y40441D01*
X53784Y40339D01*
X53742Y40239D01*
X53696Y40140D01*
X53647Y40043D01*
X53594Y39948D01*
X53537Y39855D01*
X53477Y39764D01*
X53414Y39675D01*
X53348Y39589D01*
X53279Y39505D01*
X53206Y39423D01*
X53131Y39344D01*
X53053Y39268D01*
X52972Y39195D01*
X52889Y39125D01*
X52803Y39058D01*
X52715Y38994D01*
X52624Y38934D01*
X52531Y38876D01*
X52437Y38822D01*
X52340Y38772D01*
X52242Y38725D01*
X52142Y38682D01*
X52040Y38642D01*
X51937Y38606D01*
X51833Y38574D01*
X51728Y38546D01*
X51622Y38521D01*
X51515Y38501D01*
X51407Y38484D01*
X51299Y38471D01*
X51191Y38462D01*
X51082Y38457D01*
X50973Y38456D01*
X50864Y38459D01*
X50755Y38466D01*
X50647Y38477D01*
X50539Y38492D01*
X50431Y38510D01*
X50325Y38533D01*
X50219Y38559D01*
X50114Y38590D01*
X50011Y38624D01*
X49909Y38661D01*
X49808Y38703D01*
X49709Y38748D01*
X49611Y38797D01*
X49516Y38849D01*
X49422Y38905D01*
X49330Y38963D01*
X49241Y39026D01*
X49154Y39091D01*
X49069Y39160D01*
X48987Y39231D01*
X48908Y39306D01*
X48831Y39383D01*
X48757Y39463D01*
X48686Y39546D01*
X48619Y39632D01*
X48554Y39719D01*
X48492Y39809D01*
X48434Y39901D01*
X48380Y39995D01*
X48328Y40092D01*
X48280Y40190D01*
X48236Y40289D01*
X48196Y40390D01*
X48159Y40493D01*
X48126Y40597D01*
X48096Y40701D01*
X48071Y40807D01*
X48049Y40914D01*
X48032Y41022D01*
X48018Y41130D01*
X48008Y41238D01*
X48002Y41347D01*
X48000Y41456D01*
X48000Y51820D02*
X48002Y51929D01*
X48008Y52038D01*
X48018Y52146D01*
X48032Y52254D01*
X48049Y52362D01*
X48071Y52469D01*
X48096Y52575D01*
X48126Y52679D01*
X48159Y52783D01*
X48196Y52886D01*
X48236Y52987D01*
X48280Y53086D01*
X48328Y53184D01*
X48380Y53281D01*
X48434Y53375D01*
X48492Y53467D01*
X48554Y53557D01*
X48619Y53644D01*
X48686Y53730D01*
X48757Y53813D01*
X48831Y53893D01*
X48908Y53970D01*
X48987Y54045D01*
X49069Y54116D01*
X49154Y54185D01*
X49241Y54250D01*
X49330Y54313D01*
X49422Y54371D01*
X49516Y54427D01*
X49611Y54479D01*
X49709Y54528D01*
X49808Y54573D01*
X49909Y54615D01*
X50011Y54652D01*
X50114Y54686D01*
X50219Y54717D01*
X50325Y54743D01*
X50431Y54766D01*
X50539Y54784D01*
X50647Y54799D01*
X50755Y54810D01*
X50864Y54817D01*
X50973Y54820D01*
X51082Y54819D01*
X51191Y54814D01*
X51299Y54805D01*
X51407Y54792D01*
X51515Y54775D01*
X51622Y54755D01*
X51728Y54730D01*
X51833Y54702D01*
X51937Y54670D01*
X52040Y54634D01*
X52142Y54594D01*
X52242Y54551D01*
X52340Y54504D01*
X52437Y54454D01*
X52531Y54400D01*
X52624Y54342D01*
X52715Y54282D01*
X52803Y54218D01*
X52889Y54151D01*
X52972Y54081D01*
X53053Y54008D01*
X53131Y53932D01*
X53206Y53853D01*
X53279Y53771D01*
X53348Y53687D01*
X53414Y53601D01*
X53477Y53512D01*
X53537Y53421D01*
X53594Y53328D01*
X53647Y53233D01*
X53696Y53136D01*
X53742Y53037D01*
X53784Y52937D01*
X53823Y52835D01*
X53858Y52731D01*
X53889Y52627D01*
X53917Y52522D01*
X53940Y52415D01*
X53960Y52308D01*
X53976Y52200D01*
X53988Y52092D01*
X53996Y51983D01*
X54000Y51874D01*
X54000Y51766D01*
X53996Y51657D01*
X53988Y51548D01*
X53976Y51440D01*
X53960Y51332D01*
X53940Y51225D01*
X53917Y51118D01*
X53889Y51013D01*
X53858Y50909D01*
X53823Y50805D01*
X53784Y50703D01*
X53742Y50603D01*
X53696Y50504D01*
X53647Y50407D01*
X53594Y50312D01*
X53537Y50219D01*
X53477Y50128D01*
X53414Y50039D01*
X53348Y49953D01*
X53279Y49869D01*
X53206Y49787D01*
X53131Y49708D01*
X53053Y49632D01*
X52972Y49559D01*
X52889Y49489D01*
X52803Y49422D01*
X52715Y49358D01*
X52624Y49298D01*
X52531Y49240D01*
X52437Y49186D01*
X52340Y49136D01*
X52242Y49089D01*
X52142Y49046D01*
X52040Y49006D01*
X51937Y48970D01*
X51833Y48938D01*
X51728Y48910D01*
X51622Y48885D01*
X51515Y48865D01*
X51407Y48848D01*
X51299Y48835D01*
X51191Y48826D01*
X51082Y48821D01*
X50973Y48820D01*
X50864Y48823D01*
X50755Y48830D01*
X50647Y48841D01*
X50539Y48856D01*
X50431Y48874D01*
X50325Y48897D01*
X50219Y48923D01*
X50114Y48954D01*
X50011Y48988D01*
X49909Y49025D01*
X49808Y49067D01*
X49709Y49112D01*
X49611Y49161D01*
X49516Y49213D01*
X49422Y49269D01*
X49330Y49327D01*
X49241Y49390D01*
X49154Y49455D01*
X49069Y49524D01*
X48987Y49595D01*
X48908Y49670D01*
X48831Y49747D01*
X48757Y49827D01*
X48686Y49910D01*
X48619Y49996D01*
X48554Y50083D01*
X48492Y50173D01*
X48434Y50265D01*
X48380Y50359D01*
X48328Y50456D01*
X48280Y50554D01*
X48236Y50653D01*
X48196Y50754D01*
X48159Y50857D01*
X48126Y50961D01*
X48096Y51065D01*
X48071Y51171D01*
X48049Y51278D01*
X48032Y51386D01*
X48018Y51494D01*
X48008Y51602D01*
X48002Y51711D01*
X48000Y51820D01*
X48000Y62184D02*
X48002Y62293D01*
X48008Y62402D01*
X48018Y62510D01*
X48032Y62618D01*
X48049Y62726D01*
X48071Y62833D01*
X48096Y62939D01*
X48126Y63043D01*
X48159Y63147D01*
X48196Y63250D01*
X48236Y63351D01*
X48280Y63450D01*
X48328Y63548D01*
X48380Y63645D01*
X48434Y63739D01*
X48492Y63831D01*
X48554Y63921D01*
X48619Y64008D01*
X48686Y64094D01*
X48757Y64177D01*
X48831Y64257D01*
X48908Y64334D01*
X48987Y64409D01*
X49069Y64480D01*
X49154Y64549D01*
X49241Y64614D01*
X49330Y64677D01*
X49422Y64735D01*
X49516Y64791D01*
X49611Y64843D01*
X49709Y64892D01*
X49808Y64937D01*
X49909Y64979D01*
X50011Y65016D01*
X50114Y65050D01*
X50219Y65081D01*
X50325Y65107D01*
X50431Y65130D01*
X50539Y65148D01*
X50647Y65163D01*
X50755Y65174D01*
X50864Y65181D01*
X50973Y65184D01*
X51082Y65183D01*
X51191Y65178D01*
X51299Y65169D01*
X51407Y65156D01*
X51515Y65139D01*
X51622Y65119D01*
X51728Y65094D01*
X51833Y65066D01*
X51937Y65034D01*
X52040Y64998D01*
X52142Y64958D01*
X52242Y64915D01*
X52340Y64868D01*
X52437Y64818D01*
X52531Y64764D01*
X52624Y64706D01*
X52715Y64646D01*
X52803Y64582D01*
X52889Y64515D01*
X52972Y64445D01*
X53053Y64372D01*
X53131Y64296D01*
X53206Y64217D01*
X53279Y64135D01*
X53348Y64051D01*
X53414Y63965D01*
X53477Y63876D01*
X53537Y63785D01*
X53594Y63692D01*
X53647Y63597D01*
X53696Y63500D01*
X53742Y63401D01*
X53784Y63301D01*
X53823Y63199D01*
X53858Y63095D01*
X53889Y62991D01*
X53917Y62886D01*
X53940Y62779D01*
X53960Y62672D01*
X53976Y62564D01*
X53988Y62456D01*
X53996Y62347D01*
X54000Y62238D01*
X54000Y62130D01*
X53996Y62021D01*
X53988Y61912D01*
X53976Y61804D01*
X53960Y61696D01*
X53940Y61589D01*
X53917Y61482D01*
X53889Y61377D01*
X53858Y61273D01*
X53823Y61169D01*
X53784Y61067D01*
X53742Y60967D01*
X53696Y60868D01*
X53647Y60771D01*
X53594Y60676D01*
X53537Y60583D01*
X53477Y60492D01*
X53414Y60403D01*
X53348Y60317D01*
X53279Y60233D01*
X53206Y60151D01*
X53131Y60072D01*
X53053Y59996D01*
X52972Y59923D01*
X52889Y59853D01*
X52803Y59786D01*
X52715Y59722D01*
X52624Y59662D01*
X52531Y59604D01*
X52437Y59550D01*
X52340Y59500D01*
X52242Y59453D01*
X52142Y59410D01*
X52040Y59370D01*
X51937Y59334D01*
X51833Y59302D01*
X51728Y59274D01*
X51622Y59249D01*
X51515Y59229D01*
X51407Y59212D01*
X51299Y59199D01*
X51191Y59190D01*
X51082Y59185D01*
X50973Y59184D01*
X50864Y59187D01*
X50755Y59194D01*
X50647Y59205D01*
X50539Y59220D01*
X50431Y59238D01*
X50325Y59261D01*
X50219Y59287D01*
X50114Y59318D01*
X50011Y59352D01*
X49909Y59389D01*
X49808Y59431D01*
X49709Y59476D01*
X49611Y59525D01*
X49516Y59577D01*
X49422Y59633D01*
X49330Y59691D01*
X49241Y59754D01*
X49154Y59819D01*
X49069Y59888D01*
X48987Y59959D01*
X48908Y60034D01*
X48831Y60111D01*
X48757Y60191D01*
X48686Y60274D01*
X48619Y60360D01*
X48554Y60447D01*
X48492Y60537D01*
X48434Y60629D01*
X48380Y60723D01*
X48328Y60820D01*
X48280Y60918D01*
X48236Y61017D01*
X48196Y61118D01*
X48159Y61221D01*
X48126Y61325D01*
X48096Y61429D01*
X48071Y61535D01*
X48049Y61642D01*
X48032Y61750D01*
X48018Y61858D01*
X48008Y61966D01*
X48002Y62075D01*
X48000Y62184D01*
X48000Y72548D02*
X48002Y72657D01*
X48008Y72766D01*
X48018Y72874D01*
X48032Y72982D01*
X48049Y73090D01*
X48071Y73197D01*
X48096Y73303D01*
X48126Y73407D01*
X48159Y73511D01*
X48196Y73614D01*
X48236Y73715D01*
X48280Y73814D01*
X48328Y73912D01*
X48380Y74009D01*
X48434Y74103D01*
X48492Y74195D01*
X48554Y74285D01*
X48619Y74372D01*
X48686Y74458D01*
X48757Y74541D01*
X48831Y74621D01*
X48908Y74698D01*
X48987Y74773D01*
X49069Y74844D01*
X49154Y74913D01*
X49241Y74978D01*
X49330Y75041D01*
X49422Y75099D01*
X49516Y75155D01*
X49611Y75207D01*
X49709Y75256D01*
X49808Y75301D01*
X49909Y75343D01*
X50011Y75380D01*
X50114Y75414D01*
X50219Y75445D01*
X50325Y75471D01*
X50431Y75494D01*
X50539Y75512D01*
X50647Y75527D01*
X50755Y75538D01*
X50864Y75545D01*
X50973Y75548D01*
X51082Y75547D01*
X51191Y75542D01*
X51299Y75533D01*
X51407Y75520D01*
X51515Y75503D01*
X51622Y75483D01*
X51728Y75458D01*
X51833Y75430D01*
X51937Y75398D01*
X52040Y75362D01*
X52142Y75322D01*
X52242Y75279D01*
X52340Y75232D01*
X52437Y75182D01*
X52531Y75128D01*
X52624Y75070D01*
X52715Y75010D01*
X52803Y74946D01*
X52889Y74879D01*
X52972Y74809D01*
X53053Y74736D01*
X53131Y74660D01*
X53206Y74581D01*
X53279Y74499D01*
X53348Y74415D01*
X53414Y74329D01*
X53477Y74240D01*
X53537Y74149D01*
X53594Y74056D01*
X53647Y73961D01*
X53696Y73864D01*
X53742Y73765D01*
X53784Y73665D01*
X53823Y73563D01*
X53858Y73459D01*
X53889Y73355D01*
X53917Y73250D01*
X53940Y73143D01*
X53960Y73036D01*
X53976Y72928D01*
X53988Y72820D01*
X53996Y72711D01*
X54000Y72602D01*
X54000Y72494D01*
X53996Y72385D01*
X53988Y72276D01*
X53976Y72168D01*
X53960Y72060D01*
X53940Y71953D01*
X53917Y71846D01*
X53889Y71741D01*
X53858Y71637D01*
X53823Y71533D01*
X53784Y71431D01*
X53742Y71331D01*
X53696Y71232D01*
X53647Y71135D01*
X53594Y71040D01*
X53537Y70947D01*
X53477Y70856D01*
X53414Y70767D01*
X53348Y70681D01*
X53279Y70597D01*
X53206Y70515D01*
X53131Y70436D01*
X53053Y70360D01*
X52972Y70287D01*
X52889Y70217D01*
X52803Y70150D01*
X52715Y70086D01*
X52624Y70026D01*
X52531Y69968D01*
X52437Y69914D01*
X52340Y69864D01*
X52242Y69817D01*
X52142Y69774D01*
X52040Y69734D01*
X51937Y69698D01*
X51833Y69666D01*
X51728Y69638D01*
X51622Y69613D01*
X51515Y69593D01*
X51407Y69576D01*
X51299Y69563D01*
X51191Y69554D01*
X51082Y69549D01*
X50973Y69548D01*
X50864Y69551D01*
X50755Y69558D01*
X50647Y69569D01*
X50539Y69584D01*
X50431Y69602D01*
X50325Y69625D01*
X50219Y69651D01*
X50114Y69682D01*
X50011Y69716D01*
X49909Y69753D01*
X49808Y69795D01*
X49709Y69840D01*
X49611Y69889D01*
X49516Y69941D01*
X49422Y69997D01*
X49330Y70055D01*
X49241Y70118D01*
X49154Y70183D01*
X49069Y70252D01*
X48987Y70323D01*
X48908Y70398D01*
X48831Y70475D01*
X48757Y70555D01*
X48686Y70638D01*
X48619Y70724D01*
X48554Y70811D01*
X48492Y70901D01*
X48434Y70993D01*
X48380Y71087D01*
X48328Y71184D01*
X48280Y71282D01*
X48236Y71381D01*
X48196Y71482D01*
X48159Y71585D01*
X48126Y71689D01*
X48096Y71793D01*
X48071Y71899D01*
X48049Y72006D01*
X48032Y72114D01*
X48018Y72222D01*
X48008Y72330D01*
X48002Y72439D01*
X48000Y72548D01*
X48000Y82912D02*
X48002Y83021D01*
X48008Y83130D01*
X48018Y83238D01*
X48032Y83346D01*
X48049Y83454D01*
X48071Y83561D01*
X48096Y83667D01*
X48126Y83771D01*
X48159Y83875D01*
X48196Y83978D01*
X48236Y84079D01*
X48280Y84178D01*
X48328Y84276D01*
X48380Y84373D01*
X48434Y84467D01*
X48492Y84559D01*
X48554Y84649D01*
X48619Y84736D01*
X48686Y84822D01*
X48757Y84905D01*
X48831Y84985D01*
X48908Y85062D01*
X48987Y85137D01*
X49069Y85208D01*
X49154Y85277D01*
X49241Y85342D01*
X49330Y85405D01*
X49422Y85463D01*
X49516Y85519D01*
X49611Y85571D01*
X49709Y85620D01*
X49808Y85665D01*
X49909Y85707D01*
X50011Y85744D01*
X50114Y85778D01*
X50219Y85809D01*
X50325Y85835D01*
X50431Y85858D01*
X50539Y85876D01*
X50647Y85891D01*
X50755Y85902D01*
X50864Y85909D01*
X50973Y85912D01*
X51082Y85911D01*
X51191Y85906D01*
X51299Y85897D01*
X51407Y85884D01*
X51515Y85867D01*
X51622Y85847D01*
X51728Y85822D01*
X51833Y85794D01*
X51937Y85762D01*
X52040Y85726D01*
X52142Y85686D01*
X52242Y85643D01*
X52340Y85596D01*
X52437Y85546D01*
X52531Y85492D01*
X52624Y85434D01*
X52715Y85374D01*
X52803Y85310D01*
X52889Y85243D01*
X52972Y85173D01*
X53053Y85100D01*
X53131Y85024D01*
X53206Y84945D01*
X53279Y84863D01*
X53348Y84779D01*
X53414Y84693D01*
X53477Y84604D01*
X53537Y84513D01*
X53594Y84420D01*
X53647Y84325D01*
X53696Y84228D01*
X53742Y84129D01*
X53784Y84029D01*
X53823Y83927D01*
X53858Y83823D01*
X53889Y83719D01*
X53917Y83614D01*
X53940Y83507D01*
X53960Y83400D01*
X53976Y83292D01*
X53988Y83184D01*
X53996Y83075D01*
X54000Y82966D01*
X54000Y82858D01*
X53996Y82749D01*
X53988Y82640D01*
X53976Y82532D01*
X53960Y82424D01*
X53940Y82317D01*
X53917Y82210D01*
X53889Y82105D01*
X53858Y82001D01*
X53823Y81897D01*
X53784Y81795D01*
X53742Y81695D01*
X53696Y81596D01*
X53647Y81499D01*
X53594Y81404D01*
X53537Y81311D01*
X53477Y81220D01*
X53414Y81131D01*
X53348Y81045D01*
X53279Y80961D01*
X53206Y80879D01*
X53131Y80800D01*
X53053Y80724D01*
X52972Y80651D01*
X52889Y80581D01*
X52803Y80514D01*
X52715Y80450D01*
X52624Y80390D01*
X52531Y80332D01*
X52437Y80278D01*
X52340Y80228D01*
X52242Y80181D01*
X52142Y80138D01*
X52040Y80098D01*
X51937Y80062D01*
X51833Y80030D01*
X51728Y80002D01*
X51622Y79977D01*
X51515Y79957D01*
X51407Y79940D01*
X51299Y79927D01*
X51191Y79918D01*
X51082Y79913D01*
X50973Y79912D01*
X50864Y79915D01*
X50755Y79922D01*
X50647Y79933D01*
X50539Y79948D01*
X50431Y79966D01*
X50325Y79989D01*
X50219Y80015D01*
X50114Y80046D01*
X50011Y80080D01*
X49909Y80117D01*
X49808Y80159D01*
X49709Y80204D01*
X49611Y80253D01*
X49516Y80305D01*
X49422Y80361D01*
X49330Y80419D01*
X49241Y80482D01*
X49154Y80547D01*
X49069Y80616D01*
X48987Y80687D01*
X48908Y80762D01*
X48831Y80839D01*
X48757Y80919D01*
X48686Y81002D01*
X48619Y81088D01*
X48554Y81175D01*
X48492Y81265D01*
X48434Y81357D01*
X48380Y81451D01*
X48328Y81548D01*
X48280Y81646D01*
X48236Y81745D01*
X48196Y81846D01*
X48159Y81949D01*
X48126Y82053D01*
X48096Y82157D01*
X48071Y82263D01*
X48049Y82370D01*
X48032Y82478D01*
X48018Y82586D01*
X48008Y82694D01*
X48002Y82803D01*
X48000Y82912D01*
X48000Y93276D02*
X48002Y93385D01*
X48008Y93494D01*
X48018Y93602D01*
X48032Y93710D01*
X48049Y93818D01*
X48071Y93925D01*
X48096Y94031D01*
X48126Y94135D01*
X48159Y94239D01*
X48196Y94342D01*
X48236Y94443D01*
X48280Y94542D01*
X48328Y94640D01*
X48380Y94737D01*
X48434Y94831D01*
X48492Y94923D01*
X48554Y95013D01*
X48619Y95100D01*
X48686Y95186D01*
X48757Y95269D01*
X48831Y95349D01*
X48908Y95426D01*
X48987Y95501D01*
X49069Y95572D01*
X49154Y95641D01*
X49241Y95706D01*
X49330Y95769D01*
X49422Y95827D01*
X49516Y95883D01*
X49611Y95935D01*
X49709Y95984D01*
X49808Y96029D01*
X49909Y96071D01*
X50011Y96108D01*
X50114Y96142D01*
X50219Y96173D01*
X50325Y96199D01*
X50431Y96222D01*
X50539Y96240D01*
X50647Y96255D01*
X50755Y96266D01*
X50864Y96273D01*
X50973Y96276D01*
X51082Y96275D01*
X51191Y96270D01*
X51299Y96261D01*
X51407Y96248D01*
X51515Y96231D01*
X51622Y96211D01*
X51728Y96186D01*
X51833Y96158D01*
X51937Y96126D01*
X52040Y96090D01*
X52142Y96050D01*
X52242Y96007D01*
X52340Y95960D01*
X52437Y95910D01*
X52531Y95856D01*
X52624Y95798D01*
X52715Y95738D01*
X52803Y95674D01*
X52889Y95607D01*
X52972Y95537D01*
X53053Y95464D01*
X53131Y95388D01*
X53206Y95309D01*
X53279Y95227D01*
X53348Y95143D01*
X53414Y95057D01*
X53477Y94968D01*
X53537Y94877D01*
X53594Y94784D01*
X53647Y94689D01*
X53696Y94592D01*
X53742Y94493D01*
X53784Y94393D01*
X53823Y94291D01*
X53858Y94187D01*
X53889Y94083D01*
X53917Y93978D01*
X53940Y93871D01*
X53960Y93764D01*
X53976Y93656D01*
X53988Y93548D01*
X53996Y93439D01*
X54000Y93330D01*
X54000Y93222D01*
X53996Y93113D01*
X53988Y93004D01*
X53976Y92896D01*
X53960Y92788D01*
X53940Y92681D01*
X53917Y92574D01*
X53889Y92469D01*
X53858Y92365D01*
X53823Y92261D01*
X53784Y92159D01*
X53742Y92059D01*
X53696Y91960D01*
X53647Y91863D01*
X53594Y91768D01*
X53537Y91675D01*
X53477Y91584D01*
X53414Y91495D01*
X53348Y91409D01*
X53279Y91325D01*
X53206Y91243D01*
X53131Y91164D01*
X53053Y91088D01*
X52972Y91015D01*
X52889Y90945D01*
X52803Y90878D01*
X52715Y90814D01*
X52624Y90754D01*
X52531Y90696D01*
X52437Y90642D01*
X52340Y90592D01*
X52242Y90545D01*
X52142Y90502D01*
X52040Y90462D01*
X51937Y90426D01*
X51833Y90394D01*
X51728Y90366D01*
X51622Y90341D01*
X51515Y90321D01*
X51407Y90304D01*
X51299Y90291D01*
X51191Y90282D01*
X51082Y90277D01*
X50973Y90276D01*
X50864Y90279D01*
X50755Y90286D01*
X50647Y90297D01*
X50539Y90312D01*
X50431Y90330D01*
X50325Y90353D01*
X50219Y90379D01*
X50114Y90410D01*
X50011Y90444D01*
X49909Y90481D01*
X49808Y90523D01*
X49709Y90568D01*
X49611Y90617D01*
X49516Y90669D01*
X49422Y90725D01*
X49330Y90783D01*
X49241Y90846D01*
X49154Y90911D01*
X49069Y90980D01*
X48987Y91051D01*
X48908Y91126D01*
X48831Y91203D01*
X48757Y91283D01*
X48686Y91366D01*
X48619Y91452D01*
X48554Y91539D01*
X48492Y91629D01*
X48434Y91721D01*
X48380Y91815D01*
X48328Y91912D01*
X48280Y92010D01*
X48236Y92109D01*
X48196Y92210D01*
X48159Y92313D01*
X48126Y92417D01*
X48096Y92521D01*
X48071Y92627D01*
X48049Y92734D01*
X48032Y92842D01*
X48018Y92950D01*
X48008Y93058D01*
X48002Y93167D01*
X48000Y93276D01*
X48000Y103640D02*
X48002Y103749D01*
X48008Y103858D01*
X48018Y103966D01*
X48032Y104074D01*
X48049Y104182D01*
X48071Y104289D01*
X48096Y104395D01*
X48126Y104499D01*
X48159Y104603D01*
X48196Y104706D01*
X48236Y104807D01*
X48280Y104906D01*
X48328Y105004D01*
X48380Y105101D01*
X48434Y105195D01*
X48492Y105287D01*
X48554Y105377D01*
X48619Y105464D01*
X48686Y105550D01*
X48757Y105633D01*
X48831Y105713D01*
X48908Y105790D01*
X48987Y105865D01*
X49069Y105936D01*
X49154Y106005D01*
X49241Y106070D01*
X49330Y106133D01*
X49422Y106191D01*
X49516Y106247D01*
X49611Y106299D01*
X49709Y106348D01*
X49808Y106393D01*
X49909Y106435D01*
X50011Y106472D01*
X50114Y106506D01*
X50219Y106537D01*
X50325Y106563D01*
X50431Y106586D01*
X50539Y106604D01*
X50647Y106619D01*
X50755Y106630D01*
X50864Y106637D01*
X50973Y106640D01*
X51082Y106639D01*
X51191Y106634D01*
X51299Y106625D01*
X51407Y106612D01*
X51515Y106595D01*
X51622Y106575D01*
X51728Y106550D01*
X51833Y106522D01*
X51937Y106490D01*
X52040Y106454D01*
X52142Y106414D01*
X52242Y106371D01*
X52340Y106324D01*
X52437Y106274D01*
X52531Y106220D01*
X52624Y106162D01*
X52715Y106102D01*
X52803Y106038D01*
X52889Y105971D01*
X52972Y105901D01*
X53053Y105828D01*
X53131Y105752D01*
X53206Y105673D01*
X53279Y105591D01*
X53348Y105507D01*
X53414Y105421D01*
X53477Y105332D01*
X53537Y105241D01*
X53594Y105148D01*
X53647Y105053D01*
X53696Y104956D01*
X53742Y104857D01*
X53784Y104757D01*
X53823Y104655D01*
X53858Y104551D01*
X53889Y104447D01*
X53917Y104342D01*
X53940Y104235D01*
X53960Y104128D01*
X53976Y104020D01*
X53988Y103912D01*
X53996Y103803D01*
X54000Y103694D01*
X54000Y103586D01*
X53996Y103477D01*
X53988Y103368D01*
X53976Y103260D01*
X53960Y103152D01*
X53940Y103045D01*
X53917Y102938D01*
X53889Y102833D01*
X53858Y102729D01*
X53823Y102625D01*
X53784Y102523D01*
X53742Y102423D01*
X53696Y102324D01*
X53647Y102227D01*
X53594Y102132D01*
X53537Y102039D01*
X53477Y101948D01*
X53414Y101859D01*
X53348Y101773D01*
X53279Y101689D01*
X53206Y101607D01*
X53131Y101528D01*
X53053Y101452D01*
X52972Y101379D01*
X52889Y101309D01*
X52803Y101242D01*
X52715Y101178D01*
X52624Y101118D01*
X52531Y101060D01*
X52437Y101006D01*
X52340Y100956D01*
X52242Y100909D01*
X52142Y100866D01*
X52040Y100826D01*
X51937Y100790D01*
X51833Y100758D01*
X51728Y100730D01*
X51622Y100705D01*
X51515Y100685D01*
X51407Y100668D01*
X51299Y100655D01*
X51191Y100646D01*
X51082Y100641D01*
X50973Y100640D01*
X50864Y100643D01*
X50755Y100650D01*
X50647Y100661D01*
X50539Y100676D01*
X50431Y100694D01*
X50325Y100717D01*
X50219Y100743D01*
X50114Y100774D01*
X50011Y100808D01*
X49909Y100845D01*
X49808Y100887D01*
X49709Y100932D01*
X49611Y100981D01*
X49516Y101033D01*
X49422Y101089D01*
X49330Y101147D01*
X49241Y101210D01*
X49154Y101275D01*
X49069Y101344D01*
X48987Y101415D01*
X48908Y101490D01*
X48831Y101567D01*
X48757Y101647D01*
X48686Y101730D01*
X48619Y101816D01*
X48554Y101903D01*
X48492Y101993D01*
X48434Y102085D01*
X48380Y102179D01*
X48328Y102276D01*
X48280Y102374D01*
X48236Y102473D01*
X48196Y102574D01*
X48159Y102677D01*
X48126Y102781D01*
X48096Y102885D01*
X48071Y102991D01*
X48049Y103098D01*
X48032Y103206D01*
X48018Y103314D01*
X48008Y103422D01*
X48002Y103531D01*
X48000Y103640D01*
X48000Y114004D02*
X48002Y114113D01*
X48008Y114222D01*
X48018Y114330D01*
X48032Y114438D01*
X48049Y114546D01*
X48071Y114653D01*
X48096Y114759D01*
X48126Y114863D01*
X48159Y114967D01*
X48196Y115070D01*
X48236Y115171D01*
X48280Y115270D01*
X48328Y115368D01*
X48380Y115465D01*
X48434Y115559D01*
X48492Y115651D01*
X48554Y115741D01*
X48619Y115828D01*
X48686Y115914D01*
X48757Y115997D01*
X48831Y116077D01*
X48908Y116154D01*
X48987Y116229D01*
X49069Y116300D01*
X49154Y116369D01*
X49241Y116434D01*
X49330Y116497D01*
X49422Y116555D01*
X49516Y116611D01*
X49611Y116663D01*
X49709Y116712D01*
X49808Y116757D01*
X49909Y116799D01*
X50011Y116836D01*
X50114Y116870D01*
X50219Y116901D01*
X50325Y116927D01*
X50431Y116950D01*
X50539Y116968D01*
X50647Y116983D01*
X50755Y116994D01*
X50864Y117001D01*
X50973Y117004D01*
X51082Y117003D01*
X51191Y116998D01*
X51299Y116989D01*
X51407Y116976D01*
X51515Y116959D01*
X51622Y116939D01*
X51728Y116914D01*
X51833Y116886D01*
X51937Y116854D01*
X52040Y116818D01*
X52142Y116778D01*
X52242Y116735D01*
X52340Y116688D01*
X52437Y116638D01*
X52531Y116584D01*
X52624Y116526D01*
X52715Y116466D01*
X52803Y116402D01*
X52889Y116335D01*
X52972Y116265D01*
X53053Y116192D01*
X53131Y116116D01*
X53206Y116037D01*
X53279Y115955D01*
X53348Y115871D01*
X53414Y115785D01*
X53477Y115696D01*
X53537Y115605D01*
X53594Y115512D01*
X53647Y115417D01*
X53696Y115320D01*
X53742Y115221D01*
X53784Y115121D01*
X53823Y115019D01*
X53858Y114915D01*
X53889Y114811D01*
X53917Y114706D01*
X53940Y114599D01*
X53960Y114492D01*
X53976Y114384D01*
X53988Y114276D01*
X53996Y114167D01*
X54000Y114058D01*
X54000Y113950D01*
X53996Y113841D01*
X53988Y113732D01*
X53976Y113624D01*
X53960Y113516D01*
X53940Y113409D01*
X53917Y113302D01*
X53889Y113197D01*
X53858Y113093D01*
X53823Y112989D01*
X53784Y112887D01*
X53742Y112787D01*
X53696Y112688D01*
X53647Y112591D01*
X53594Y112496D01*
X53537Y112403D01*
X53477Y112312D01*
X53414Y112223D01*
X53348Y112137D01*
X53279Y112053D01*
X53206Y111971D01*
X53131Y111892D01*
X53053Y111816D01*
X52972Y111743D01*
X52889Y111673D01*
X52803Y111606D01*
X52715Y111542D01*
X52624Y111482D01*
X52531Y111424D01*
X52437Y111370D01*
X52340Y111320D01*
X52242Y111273D01*
X52142Y111230D01*
X52040Y111190D01*
X51937Y111154D01*
X51833Y111122D01*
X51728Y111094D01*
X51622Y111069D01*
X51515Y111049D01*
X51407Y111032D01*
X51299Y111019D01*
X51191Y111010D01*
X51082Y111005D01*
X50973Y111004D01*
X50864Y111007D01*
X50755Y111014D01*
X50647Y111025D01*
X50539Y111040D01*
X50431Y111058D01*
X50325Y111081D01*
X50219Y111107D01*
X50114Y111138D01*
X50011Y111172D01*
X49909Y111209D01*
X49808Y111251D01*
X49709Y111296D01*
X49611Y111345D01*
X49516Y111397D01*
X49422Y111453D01*
X49330Y111511D01*
X49241Y111574D01*
X49154Y111639D01*
X49069Y111708D01*
X48987Y111779D01*
X48908Y111854D01*
X48831Y111931D01*
X48757Y112011D01*
X48686Y112094D01*
X48619Y112180D01*
X48554Y112267D01*
X48492Y112357D01*
X48434Y112449D01*
X48380Y112543D01*
X48328Y112640D01*
X48280Y112738D01*
X48236Y112837D01*
X48196Y112938D01*
X48159Y113041D01*
X48126Y113145D01*
X48096Y113249D01*
X48071Y113355D01*
X48049Y113462D01*
X48032Y113570D01*
X48018Y113678D01*
X48008Y113786D01*
X48002Y113895D01*
X48000Y114004D01*
X48000Y124368D02*
X48002Y124477D01*
X48008Y124586D01*
X48018Y124694D01*
X48032Y124802D01*
X48049Y124910D01*
X48071Y125017D01*
X48096Y125123D01*
X48126Y125227D01*
X48159Y125331D01*
X48196Y125434D01*
X48236Y125535D01*
X48280Y125634D01*
X48328Y125732D01*
X48380Y125829D01*
X48434Y125923D01*
X48492Y126015D01*
X48554Y126105D01*
X48619Y126192D01*
X48686Y126278D01*
X48757Y126361D01*
X48831Y126441D01*
X48908Y126518D01*
X48987Y126593D01*
X49069Y126664D01*
X49154Y126733D01*
X49241Y126798D01*
X49330Y126861D01*
X49422Y126919D01*
X49516Y126975D01*
X49611Y127027D01*
X49709Y127076D01*
X49808Y127121D01*
X49909Y127163D01*
X50011Y127200D01*
X50114Y127234D01*
X50219Y127265D01*
X50325Y127291D01*
X50431Y127314D01*
X50539Y127332D01*
X50647Y127347D01*
X50755Y127358D01*
X50864Y127365D01*
X50973Y127368D01*
X51082Y127367D01*
X51191Y127362D01*
X51299Y127353D01*
X51407Y127340D01*
X51515Y127323D01*
X51622Y127303D01*
X51728Y127278D01*
X51833Y127250D01*
X51937Y127218D01*
X52040Y127182D01*
X52142Y127142D01*
X52242Y127099D01*
X52340Y127052D01*
X52437Y127002D01*
X52531Y126948D01*
X52624Y126890D01*
X52715Y126830D01*
X52803Y126766D01*
X52889Y126699D01*
X52972Y126629D01*
X53053Y126556D01*
X53131Y126480D01*
X53206Y126401D01*
X53279Y126319D01*
X53348Y126235D01*
X53414Y126149D01*
X53477Y126060D01*
X53537Y125969D01*
X53594Y125876D01*
X53647Y125781D01*
X53696Y125684D01*
X53742Y125585D01*
X53784Y125485D01*
X53823Y125383D01*
X53858Y125279D01*
X53889Y125175D01*
X53917Y125070D01*
X53940Y124963D01*
X53960Y124856D01*
X53976Y124748D01*
X53988Y124640D01*
X53996Y124531D01*
X54000Y124422D01*
X54000Y124314D01*
X53996Y124205D01*
X53988Y124096D01*
X53976Y123988D01*
X53960Y123880D01*
X53940Y123773D01*
X53917Y123666D01*
X53889Y123561D01*
X53858Y123457D01*
X53823Y123353D01*
X53784Y123251D01*
X53742Y123151D01*
X53696Y123052D01*
X53647Y122955D01*
X53594Y122860D01*
X53537Y122767D01*
X53477Y122676D01*
X53414Y122587D01*
X53348Y122501D01*
X53279Y122417D01*
X53206Y122335D01*
X53131Y122256D01*
X53053Y122180D01*
X52972Y122107D01*
X52889Y122037D01*
X52803Y121970D01*
X52715Y121906D01*
X52624Y121846D01*
X52531Y121788D01*
X52437Y121734D01*
X52340Y121684D01*
X52242Y121637D01*
X52142Y121594D01*
X52040Y121554D01*
X51937Y121518D01*
X51833Y121486D01*
X51728Y121458D01*
X51622Y121433D01*
X51515Y121413D01*
X51407Y121396D01*
X51299Y121383D01*
X51191Y121374D01*
X51082Y121369D01*
X50973Y121368D01*
X50864Y121371D01*
X50755Y121378D01*
X50647Y121389D01*
X50539Y121404D01*
X50431Y121422D01*
X50325Y121445D01*
X50219Y121471D01*
X50114Y121502D01*
X50011Y121536D01*
X49909Y121573D01*
X49808Y121615D01*
X49709Y121660D01*
X49611Y121709D01*
X49516Y121761D01*
X49422Y121817D01*
X49330Y121875D01*
X49241Y121938D01*
X49154Y122003D01*
X49069Y122072D01*
X48987Y122143D01*
X48908Y122218D01*
X48831Y122295D01*
X48757Y122375D01*
X48686Y122458D01*
X48619Y122544D01*
X48554Y122631D01*
X48492Y122721D01*
X48434Y122813D01*
X48380Y122907D01*
X48328Y123004D01*
X48280Y123102D01*
X48236Y123201D01*
X48196Y123302D01*
X48159Y123405D01*
X48126Y123509D01*
X48096Y123613D01*
X48071Y123719D01*
X48049Y123826D01*
X48032Y123934D01*
X48018Y124042D01*
X48008Y124150D01*
X48002Y124259D01*
X48000Y124368D01*
X48000Y134732D02*
X48002Y134841D01*
X48008Y134950D01*
X48018Y135058D01*
X48032Y135166D01*
X48049Y135274D01*
X48071Y135381D01*
X48096Y135487D01*
X48126Y135591D01*
X48159Y135695D01*
X48196Y135798D01*
X48236Y135899D01*
X48280Y135998D01*
X48328Y136096D01*
X48380Y136193D01*
X48434Y136287D01*
X48492Y136379D01*
X48554Y136469D01*
X48619Y136556D01*
X48686Y136642D01*
X48757Y136725D01*
X48831Y136805D01*
X48908Y136882D01*
X48987Y136957D01*
X49069Y137028D01*
X49154Y137097D01*
X49241Y137162D01*
X49330Y137225D01*
X49422Y137283D01*
X49516Y137339D01*
X49611Y137391D01*
X49709Y137440D01*
X49808Y137485D01*
X49909Y137527D01*
X50011Y137564D01*
X50114Y137598D01*
X50219Y137629D01*
X50325Y137655D01*
X50431Y137678D01*
X50539Y137696D01*
X50647Y137711D01*
X50755Y137722D01*
X50864Y137729D01*
X50973Y137732D01*
X51082Y137731D01*
X51191Y137726D01*
X51299Y137717D01*
X51407Y137704D01*
X51515Y137687D01*
X51622Y137667D01*
X51728Y137642D01*
X51833Y137614D01*
X51937Y137582D01*
X52040Y137546D01*
X52142Y137506D01*
X52242Y137463D01*
X52340Y137416D01*
X52437Y137366D01*
X52531Y137312D01*
X52624Y137254D01*
X52715Y137194D01*
X52803Y137130D01*
X52889Y137063D01*
X52972Y136993D01*
X53053Y136920D01*
X53131Y136844D01*
X53206Y136765D01*
X53279Y136683D01*
X53348Y136599D01*
X53414Y136513D01*
X53477Y136424D01*
X53537Y136333D01*
X53594Y136240D01*
X53647Y136145D01*
X53696Y136048D01*
X53742Y135949D01*
X53784Y135849D01*
X53823Y135747D01*
X53858Y135643D01*
X53889Y135539D01*
X53917Y135434D01*
X53940Y135327D01*
X53960Y135220D01*
X53976Y135112D01*
X53988Y135004D01*
X53996Y134895D01*
X54000Y134786D01*
X54000Y134678D01*
X53996Y134569D01*
X53988Y134460D01*
X53976Y134352D01*
X53960Y134244D01*
X53940Y134137D01*
X53917Y134030D01*
X53889Y133925D01*
X53858Y133821D01*
X53823Y133717D01*
X53784Y133615D01*
X53742Y133515D01*
X53696Y133416D01*
X53647Y133319D01*
X53594Y133224D01*
X53537Y133131D01*
X53477Y133040D01*
X53414Y132951D01*
X53348Y132865D01*
X53279Y132781D01*
X53206Y132699D01*
X53131Y132620D01*
X53053Y132544D01*
X52972Y132471D01*
X52889Y132401D01*
X52803Y132334D01*
X52715Y132270D01*
X52624Y132210D01*
X52531Y132152D01*
X52437Y132098D01*
X52340Y132048D01*
X52242Y132001D01*
X52142Y131958D01*
X52040Y131918D01*
X51937Y131882D01*
X51833Y131850D01*
X51728Y131822D01*
X51622Y131797D01*
X51515Y131777D01*
X51407Y131760D01*
X51299Y131747D01*
X51191Y131738D01*
X51082Y131733D01*
X50973Y131732D01*
X50864Y131735D01*
X50755Y131742D01*
X50647Y131753D01*
X50539Y131768D01*
X50431Y131786D01*
X50325Y131809D01*
X50219Y131835D01*
X50114Y131866D01*
X50011Y131900D01*
X49909Y131937D01*
X49808Y131979D01*
X49709Y132024D01*
X49611Y132073D01*
X49516Y132125D01*
X49422Y132181D01*
X49330Y132239D01*
X49241Y132302D01*
X49154Y132367D01*
X49069Y132436D01*
X48987Y132507D01*
X48908Y132582D01*
X48831Y132659D01*
X48757Y132739D01*
X48686Y132822D01*
X48619Y132908D01*
X48554Y132995D01*
X48492Y133085D01*
X48434Y133177D01*
X48380Y133271D01*
X48328Y133368D01*
X48280Y133466D01*
X48236Y133565D01*
X48196Y133666D01*
X48159Y133769D01*
X48126Y133873D01*
X48096Y133977D01*
X48071Y134083D01*
X48049Y134190D01*
X48032Y134298D01*
X48018Y134406D01*
X48008Y134514D01*
X48002Y134623D01*
X48000Y134732D01*
X48000Y145096D02*
X48002Y145205D01*
X48008Y145314D01*
X48018Y145422D01*
X48032Y145530D01*
X48049Y145638D01*
X48071Y145745D01*
X48096Y145851D01*
X48126Y145955D01*
X48159Y146059D01*
X48196Y146162D01*
X48236Y146263D01*
X48280Y146362D01*
X48328Y146460D01*
X48380Y146557D01*
X48434Y146651D01*
X48492Y146743D01*
X48554Y146833D01*
X48619Y146920D01*
X48686Y147006D01*
X48757Y147089D01*
X48831Y147169D01*
X48908Y147246D01*
X48987Y147321D01*
X49069Y147392D01*
X49154Y147461D01*
X49241Y147526D01*
X49330Y147589D01*
X49422Y147647D01*
X49516Y147703D01*
X49611Y147755D01*
X49709Y147804D01*
X49808Y147849D01*
X49909Y147891D01*
X50011Y147928D01*
X50114Y147962D01*
X50219Y147993D01*
X50325Y148019D01*
X50431Y148042D01*
X50539Y148060D01*
X50647Y148075D01*
X50755Y148086D01*
X50864Y148093D01*
X50973Y148096D01*
X51082Y148095D01*
X51191Y148090D01*
X51299Y148081D01*
X51407Y148068D01*
X51515Y148051D01*
X51622Y148031D01*
X51728Y148006D01*
X51833Y147978D01*
X51937Y147946D01*
X52040Y147910D01*
X52142Y147870D01*
X52242Y147827D01*
X52340Y147780D01*
X52437Y147730D01*
X52531Y147676D01*
X52624Y147618D01*
X52715Y147558D01*
X52803Y147494D01*
X52889Y147427D01*
X52972Y147357D01*
X53053Y147284D01*
X53131Y147208D01*
X53206Y147129D01*
X53279Y147047D01*
X53348Y146963D01*
X53414Y146877D01*
X53477Y146788D01*
X53537Y146697D01*
X53594Y146604D01*
X53647Y146509D01*
X53696Y146412D01*
X53742Y146313D01*
X53784Y146213D01*
X53823Y146111D01*
X53858Y146007D01*
X53889Y145903D01*
X53917Y145798D01*
X53940Y145691D01*
X53960Y145584D01*
X53976Y145476D01*
X53988Y145368D01*
X53996Y145259D01*
X54000Y145150D01*
X54000Y145042D01*
X53996Y144933D01*
X53988Y144824D01*
X53976Y144716D01*
X53960Y144608D01*
X53940Y144501D01*
X53917Y144394D01*
X53889Y144289D01*
X53858Y144185D01*
X53823Y144081D01*
X53784Y143979D01*
X53742Y143879D01*
X53696Y143780D01*
X53647Y143683D01*
X53594Y143588D01*
X53537Y143495D01*
X53477Y143404D01*
X53414Y143315D01*
X53348Y143229D01*
X53279Y143145D01*
X53206Y143063D01*
X53131Y142984D01*
X53053Y142908D01*
X52972Y142835D01*
X52889Y142765D01*
X52803Y142698D01*
X52715Y142634D01*
X52624Y142574D01*
X52531Y142516D01*
X52437Y142462D01*
X52340Y142412D01*
X52242Y142365D01*
X52142Y142322D01*
X52040Y142282D01*
X51937Y142246D01*
X51833Y142214D01*
X51728Y142186D01*
X51622Y142161D01*
X51515Y142141D01*
X51407Y142124D01*
X51299Y142111D01*
X51191Y142102D01*
X51082Y142097D01*
X50973Y142096D01*
X50864Y142099D01*
X50755Y142106D01*
X50647Y142117D01*
X50539Y142132D01*
X50431Y142150D01*
X50325Y142173D01*
X50219Y142199D01*
X50114Y142230D01*
X50011Y142264D01*
X49909Y142301D01*
X49808Y142343D01*
X49709Y142388D01*
X49611Y142437D01*
X49516Y142489D01*
X49422Y142545D01*
X49330Y142603D01*
X49241Y142666D01*
X49154Y142731D01*
X49069Y142800D01*
X48987Y142871D01*
X48908Y142946D01*
X48831Y143023D01*
X48757Y143103D01*
X48686Y143186D01*
X48619Y143272D01*
X48554Y143359D01*
X48492Y143449D01*
X48434Y143541D01*
X48380Y143635D01*
X48328Y143732D01*
X48280Y143830D01*
X48236Y143929D01*
X48196Y144030D01*
X48159Y144133D01*
X48126Y144237D01*
X48096Y144341D01*
X48071Y144447D01*
X48049Y144554D01*
X48032Y144662D01*
X48018Y144770D01*
X48008Y144878D01*
X48002Y144987D01*
X48000Y145096D01*
X301600Y10364D02*
X301602Y10473D01*
X301608Y10582D01*
X301618Y10690D01*
X301632Y10798D01*
X301649Y10906D01*
X301671Y11013D01*
X301696Y11119D01*
X301726Y11223D01*
X301759Y11327D01*
X301796Y11430D01*
X301836Y11531D01*
X301880Y11630D01*
X301928Y11728D01*
X301980Y11825D01*
X302034Y11919D01*
X302092Y12011D01*
X302154Y12101D01*
X302219Y12188D01*
X302286Y12274D01*
X302357Y12357D01*
X302431Y12437D01*
X302508Y12514D01*
X302587Y12589D01*
X302669Y12660D01*
X302754Y12729D01*
X302841Y12794D01*
X302930Y12857D01*
X303022Y12915D01*
X303116Y12971D01*
X303211Y13023D01*
X303309Y13072D01*
X303408Y13117D01*
X303509Y13159D01*
X303611Y13196D01*
X303714Y13230D01*
X303819Y13261D01*
X303925Y13287D01*
X304031Y13310D01*
X304139Y13328D01*
X304247Y13343D01*
X304355Y13354D01*
X304464Y13361D01*
X304573Y13364D01*
X304682Y13363D01*
X304791Y13358D01*
X304899Y13349D01*
X305007Y13336D01*
X305115Y13319D01*
X305222Y13299D01*
X305328Y13274D01*
X305433Y13246D01*
X305537Y13214D01*
X305640Y13178D01*
X305742Y13138D01*
X305842Y13095D01*
X305940Y13048D01*
X306037Y12998D01*
X306131Y12944D01*
X306224Y12886D01*
X306315Y12826D01*
X306403Y12762D01*
X306489Y12695D01*
X306572Y12625D01*
X306653Y12552D01*
X306731Y12476D01*
X306806Y12397D01*
X306879Y12315D01*
X306948Y12231D01*
X307014Y12145D01*
X307077Y12056D01*
X307137Y11965D01*
X307194Y11872D01*
X307247Y11777D01*
X307296Y11680D01*
X307342Y11581D01*
X307384Y11481D01*
X307423Y11379D01*
X307458Y11275D01*
X307489Y11171D01*
X307517Y11066D01*
X307540Y10959D01*
X307560Y10852D01*
X307576Y10744D01*
X307588Y10636D01*
X307596Y10527D01*
X307600Y10418D01*
X307600Y10310D01*
X307596Y10201D01*
X307588Y10092D01*
X307576Y9984D01*
X307560Y9876D01*
X307540Y9769D01*
X307517Y9662D01*
X307489Y9557D01*
X307458Y9453D01*
X307423Y9349D01*
X307384Y9247D01*
X307342Y9147D01*
X307296Y9048D01*
X307247Y8951D01*
X307194Y8856D01*
X307137Y8763D01*
X307077Y8672D01*
X307014Y8583D01*
X306948Y8497D01*
X306879Y8413D01*
X306806Y8331D01*
X306731Y8252D01*
X306653Y8176D01*
X306572Y8103D01*
X306489Y8033D01*
X306403Y7966D01*
X306315Y7902D01*
X306224Y7842D01*
X306131Y7784D01*
X306037Y7730D01*
X305940Y7680D01*
X305842Y7633D01*
X305742Y7590D01*
X305640Y7550D01*
X305537Y7514D01*
X305433Y7482D01*
X305328Y7454D01*
X305222Y7429D01*
X305115Y7409D01*
X305007Y7392D01*
X304899Y7379D01*
X304791Y7370D01*
X304682Y7365D01*
X304573Y7364D01*
X304464Y7367D01*
X304355Y7374D01*
X304247Y7385D01*
X304139Y7400D01*
X304031Y7418D01*
X303925Y7441D01*
X303819Y7467D01*
X303714Y7498D01*
X303611Y7532D01*
X303509Y7569D01*
X303408Y7611D01*
X303309Y7656D01*
X303211Y7705D01*
X303116Y7757D01*
X303022Y7813D01*
X302930Y7871D01*
X302841Y7934D01*
X302754Y7999D01*
X302669Y8068D01*
X302587Y8139D01*
X302508Y8214D01*
X302431Y8291D01*
X302357Y8371D01*
X302286Y8454D01*
X302219Y8540D01*
X302154Y8627D01*
X302092Y8717D01*
X302034Y8809D01*
X301980Y8903D01*
X301928Y9000D01*
X301880Y9098D01*
X301836Y9197D01*
X301796Y9298D01*
X301759Y9401D01*
X301726Y9505D01*
X301696Y9609D01*
X301671Y9715D01*
X301649Y9822D01*
X301632Y9930D01*
X301618Y10038D01*
X301608Y10146D01*
X301602Y10255D01*
X301600Y10364D01*
X301600Y20728D02*
X301602Y20837D01*
X301608Y20946D01*
X301618Y21054D01*
X301632Y21162D01*
X301649Y21270D01*
X301671Y21377D01*
X301696Y21483D01*
X301726Y21587D01*
X301759Y21691D01*
X301796Y21794D01*
X301836Y21895D01*
X301880Y21994D01*
X301928Y22092D01*
X301980Y22189D01*
X302034Y22283D01*
X302092Y22375D01*
X302154Y22465D01*
X302219Y22552D01*
X302286Y22638D01*
X302357Y22721D01*
X302431Y22801D01*
X302508Y22878D01*
X302587Y22953D01*
X302669Y23024D01*
X302754Y23093D01*
X302841Y23158D01*
X302930Y23221D01*
X303022Y23279D01*
X303116Y23335D01*
X303211Y23387D01*
X303309Y23436D01*
X303408Y23481D01*
X303509Y23523D01*
X303611Y23560D01*
X303714Y23594D01*
X303819Y23625D01*
X303925Y23651D01*
X304031Y23674D01*
X304139Y23692D01*
X304247Y23707D01*
X304355Y23718D01*
X304464Y23725D01*
X304573Y23728D01*
X304682Y23727D01*
X304791Y23722D01*
X304899Y23713D01*
X305007Y23700D01*
X305115Y23683D01*
X305222Y23663D01*
X305328Y23638D01*
X305433Y23610D01*
X305537Y23578D01*
X305640Y23542D01*
X305742Y23502D01*
X305842Y23459D01*
X305940Y23412D01*
X306037Y23362D01*
X306131Y23308D01*
X306224Y23250D01*
X306315Y23190D01*
X306403Y23126D01*
X306489Y23059D01*
X306572Y22989D01*
X306653Y22916D01*
X306731Y22840D01*
X306806Y22761D01*
X306879Y22679D01*
X306948Y22595D01*
X307014Y22509D01*
X307077Y22420D01*
X307137Y22329D01*
X307194Y22236D01*
X307247Y22141D01*
X307296Y22044D01*
X307342Y21945D01*
X307384Y21845D01*
X307423Y21743D01*
X307458Y21639D01*
X307489Y21535D01*
X307517Y21430D01*
X307540Y21323D01*
X307560Y21216D01*
X307576Y21108D01*
X307588Y21000D01*
X307596Y20891D01*
X307600Y20782D01*
X307600Y20674D01*
X307596Y20565D01*
X307588Y20456D01*
X307576Y20348D01*
X307560Y20240D01*
X307540Y20133D01*
X307517Y20026D01*
X307489Y19921D01*
X307458Y19817D01*
X307423Y19713D01*
X307384Y19611D01*
X307342Y19511D01*
X307296Y19412D01*
X307247Y19315D01*
X307194Y19220D01*
X307137Y19127D01*
X307077Y19036D01*
X307014Y18947D01*
X306948Y18861D01*
X306879Y18777D01*
X306806Y18695D01*
X306731Y18616D01*
X306653Y18540D01*
X306572Y18467D01*
X306489Y18397D01*
X306403Y18330D01*
X306315Y18266D01*
X306224Y18206D01*
X306131Y18148D01*
X306037Y18094D01*
X305940Y18044D01*
X305842Y17997D01*
X305742Y17954D01*
X305640Y17914D01*
X305537Y17878D01*
X305433Y17846D01*
X305328Y17818D01*
X305222Y17793D01*
X305115Y17773D01*
X305007Y17756D01*
X304899Y17743D01*
X304791Y17734D01*
X304682Y17729D01*
X304573Y17728D01*
X304464Y17731D01*
X304355Y17738D01*
X304247Y17749D01*
X304139Y17764D01*
X304031Y17782D01*
X303925Y17805D01*
X303819Y17831D01*
X303714Y17862D01*
X303611Y17896D01*
X303509Y17933D01*
X303408Y17975D01*
X303309Y18020D01*
X303211Y18069D01*
X303116Y18121D01*
X303022Y18177D01*
X302930Y18235D01*
X302841Y18298D01*
X302754Y18363D01*
X302669Y18432D01*
X302587Y18503D01*
X302508Y18578D01*
X302431Y18655D01*
X302357Y18735D01*
X302286Y18818D01*
X302219Y18904D01*
X302154Y18991D01*
X302092Y19081D01*
X302034Y19173D01*
X301980Y19267D01*
X301928Y19364D01*
X301880Y19462D01*
X301836Y19561D01*
X301796Y19662D01*
X301759Y19765D01*
X301726Y19869D01*
X301696Y19973D01*
X301671Y20079D01*
X301649Y20186D01*
X301632Y20294D01*
X301618Y20402D01*
X301608Y20510D01*
X301602Y20619D01*
X301600Y20728D01*
X301600Y31092D02*
X301602Y31201D01*
X301608Y31310D01*
X301618Y31418D01*
X301632Y31526D01*
X301649Y31634D01*
X301671Y31741D01*
X301696Y31847D01*
X301726Y31951D01*
X301759Y32055D01*
X301796Y32158D01*
X301836Y32259D01*
X301880Y32358D01*
X301928Y32456D01*
X301980Y32553D01*
X302034Y32647D01*
X302092Y32739D01*
X302154Y32829D01*
X302219Y32916D01*
X302286Y33002D01*
X302357Y33085D01*
X302431Y33165D01*
X302508Y33242D01*
X302587Y33317D01*
X302669Y33388D01*
X302754Y33457D01*
X302841Y33522D01*
X302930Y33585D01*
X303022Y33643D01*
X303116Y33699D01*
X303211Y33751D01*
X303309Y33800D01*
X303408Y33845D01*
X303509Y33887D01*
X303611Y33924D01*
X303714Y33958D01*
X303819Y33989D01*
X303925Y34015D01*
X304031Y34038D01*
X304139Y34056D01*
X304247Y34071D01*
X304355Y34082D01*
X304464Y34089D01*
X304573Y34092D01*
X304682Y34091D01*
X304791Y34086D01*
X304899Y34077D01*
X305007Y34064D01*
X305115Y34047D01*
X305222Y34027D01*
X305328Y34002D01*
X305433Y33974D01*
X305537Y33942D01*
X305640Y33906D01*
X305742Y33866D01*
X305842Y33823D01*
X305940Y33776D01*
X306037Y33726D01*
X306131Y33672D01*
X306224Y33614D01*
X306315Y33554D01*
X306403Y33490D01*
X306489Y33423D01*
X306572Y33353D01*
X306653Y33280D01*
X306731Y33204D01*
X306806Y33125D01*
X306879Y33043D01*
X306948Y32959D01*
X307014Y32873D01*
X307077Y32784D01*
X307137Y32693D01*
X307194Y32600D01*
X307247Y32505D01*
X307296Y32408D01*
X307342Y32309D01*
X307384Y32209D01*
X307423Y32107D01*
X307458Y32003D01*
X307489Y31899D01*
X307517Y31794D01*
X307540Y31687D01*
X307560Y31580D01*
X307576Y31472D01*
X307588Y31364D01*
X307596Y31255D01*
X307600Y31146D01*
X307600Y31038D01*
X307596Y30929D01*
X307588Y30820D01*
X307576Y30712D01*
X307560Y30604D01*
X307540Y30497D01*
X307517Y30390D01*
X307489Y30285D01*
X307458Y30181D01*
X307423Y30077D01*
X307384Y29975D01*
X307342Y29875D01*
X307296Y29776D01*
X307247Y29679D01*
X307194Y29584D01*
X307137Y29491D01*
X307077Y29400D01*
X307014Y29311D01*
X306948Y29225D01*
X306879Y29141D01*
X306806Y29059D01*
X306731Y28980D01*
X306653Y28904D01*
X306572Y28831D01*
X306489Y28761D01*
X306403Y28694D01*
X306315Y28630D01*
X306224Y28570D01*
X306131Y28512D01*
X306037Y28458D01*
X305940Y28408D01*
X305842Y28361D01*
X305742Y28318D01*
X305640Y28278D01*
X305537Y28242D01*
X305433Y28210D01*
X305328Y28182D01*
X305222Y28157D01*
X305115Y28137D01*
X305007Y28120D01*
X304899Y28107D01*
X304791Y28098D01*
X304682Y28093D01*
X304573Y28092D01*
X304464Y28095D01*
X304355Y28102D01*
X304247Y28113D01*
X304139Y28128D01*
X304031Y28146D01*
X303925Y28169D01*
X303819Y28195D01*
X303714Y28226D01*
X303611Y28260D01*
X303509Y28297D01*
X303408Y28339D01*
X303309Y28384D01*
X303211Y28433D01*
X303116Y28485D01*
X303022Y28541D01*
X302930Y28599D01*
X302841Y28662D01*
X302754Y28727D01*
X302669Y28796D01*
X302587Y28867D01*
X302508Y28942D01*
X302431Y29019D01*
X302357Y29099D01*
X302286Y29182D01*
X302219Y29268D01*
X302154Y29355D01*
X302092Y29445D01*
X302034Y29537D01*
X301980Y29631D01*
X301928Y29728D01*
X301880Y29826D01*
X301836Y29925D01*
X301796Y30026D01*
X301759Y30129D01*
X301726Y30233D01*
X301696Y30337D01*
X301671Y30443D01*
X301649Y30550D01*
X301632Y30658D01*
X301618Y30766D01*
X301608Y30874D01*
X301602Y30983D01*
X301600Y31092D01*
X301600Y41456D02*
X301602Y41565D01*
X301608Y41674D01*
X301618Y41782D01*
X301632Y41890D01*
X301649Y41998D01*
X301671Y42105D01*
X301696Y42211D01*
X301726Y42315D01*
X301759Y42419D01*
X301796Y42522D01*
X301836Y42623D01*
X301880Y42722D01*
X301928Y42820D01*
X301980Y42917D01*
X302034Y43011D01*
X302092Y43103D01*
X302154Y43193D01*
X302219Y43280D01*
X302286Y43366D01*
X302357Y43449D01*
X302431Y43529D01*
X302508Y43606D01*
X302587Y43681D01*
X302669Y43752D01*
X302754Y43821D01*
X302841Y43886D01*
X302930Y43949D01*
X303022Y44007D01*
X303116Y44063D01*
X303211Y44115D01*
X303309Y44164D01*
X303408Y44209D01*
X303509Y44251D01*
X303611Y44288D01*
X303714Y44322D01*
X303819Y44353D01*
X303925Y44379D01*
X304031Y44402D01*
X304139Y44420D01*
X304247Y44435D01*
X304355Y44446D01*
X304464Y44453D01*
X304573Y44456D01*
X304682Y44455D01*
X304791Y44450D01*
X304899Y44441D01*
X305007Y44428D01*
X305115Y44411D01*
X305222Y44391D01*
X305328Y44366D01*
X305433Y44338D01*
X305537Y44306D01*
X305640Y44270D01*
X305742Y44230D01*
X305842Y44187D01*
X305940Y44140D01*
X306037Y44090D01*
X306131Y44036D01*
X306224Y43978D01*
X306315Y43918D01*
X306403Y43854D01*
X306489Y43787D01*
X306572Y43717D01*
X306653Y43644D01*
X306731Y43568D01*
X306806Y43489D01*
X306879Y43407D01*
X306948Y43323D01*
X307014Y43237D01*
X307077Y43148D01*
X307137Y43057D01*
X307194Y42964D01*
X307247Y42869D01*
X307296Y42772D01*
X307342Y42673D01*
X307384Y42573D01*
X307423Y42471D01*
X307458Y42367D01*
X307489Y42263D01*
X307517Y42158D01*
X307540Y42051D01*
X307560Y41944D01*
X307576Y41836D01*
X307588Y41728D01*
X307596Y41619D01*
X307600Y41510D01*
X307600Y41402D01*
X307596Y41293D01*
X307588Y41184D01*
X307576Y41076D01*
X307560Y40968D01*
X307540Y40861D01*
X307517Y40754D01*
X307489Y40649D01*
X307458Y40545D01*
X307423Y40441D01*
X307384Y40339D01*
X307342Y40239D01*
X307296Y40140D01*
X307247Y40043D01*
X307194Y39948D01*
X307137Y39855D01*
X307077Y39764D01*
X307014Y39675D01*
X306948Y39589D01*
X306879Y39505D01*
X306806Y39423D01*
X306731Y39344D01*
X306653Y39268D01*
X306572Y39195D01*
X306489Y39125D01*
X306403Y39058D01*
X306315Y38994D01*
X306224Y38934D01*
X306131Y38876D01*
X306037Y38822D01*
X305940Y38772D01*
X305842Y38725D01*
X305742Y38682D01*
X305640Y38642D01*
X305537Y38606D01*
X305433Y38574D01*
X305328Y38546D01*
X305222Y38521D01*
X305115Y38501D01*
X305007Y38484D01*
X304899Y38471D01*
X304791Y38462D01*
X304682Y38457D01*
X304573Y38456D01*
X304464Y38459D01*
X304355Y38466D01*
X304247Y38477D01*
X304139Y38492D01*
X304031Y38510D01*
X303925Y38533D01*
X303819Y38559D01*
X303714Y38590D01*
X303611Y38624D01*
X303509Y38661D01*
X303408Y38703D01*
X303309Y38748D01*
X303211Y38797D01*
X303116Y38849D01*
X303022Y38905D01*
X302930Y38963D01*
X302841Y39026D01*
X302754Y39091D01*
X302669Y39160D01*
X302587Y39231D01*
X302508Y39306D01*
X302431Y39383D01*
X302357Y39463D01*
X302286Y39546D01*
X302219Y39632D01*
X302154Y39719D01*
X302092Y39809D01*
X302034Y39901D01*
X301980Y39995D01*
X301928Y40092D01*
X301880Y40190D01*
X301836Y40289D01*
X301796Y40390D01*
X301759Y40493D01*
X301726Y40597D01*
X301696Y40701D01*
X301671Y40807D01*
X301649Y40914D01*
X301632Y41022D01*
X301618Y41130D01*
X301608Y41238D01*
X301602Y41347D01*
X301600Y41456D01*
X301600Y51820D02*
X301602Y51929D01*
X301608Y52038D01*
X301618Y52146D01*
X301632Y52254D01*
X301649Y52362D01*
X301671Y52469D01*
X301696Y52575D01*
X301726Y52679D01*
X301759Y52783D01*
X301796Y52886D01*
X301836Y52987D01*
X301880Y53086D01*
X301928Y53184D01*
X301980Y53281D01*
X302034Y53375D01*
X302092Y53467D01*
X302154Y53557D01*
X302219Y53644D01*
X302286Y53730D01*
X302357Y53813D01*
X302431Y53893D01*
X302508Y53970D01*
X302587Y54045D01*
X302669Y54116D01*
X302754Y54185D01*
X302841Y54250D01*
X302930Y54313D01*
X303022Y54371D01*
X303116Y54427D01*
X303211Y54479D01*
X303309Y54528D01*
X303408Y54573D01*
X303509Y54615D01*
X303611Y54652D01*
X303714Y54686D01*
X303819Y54717D01*
X303925Y54743D01*
X304031Y54766D01*
X304139Y54784D01*
X304247Y54799D01*
X304355Y54810D01*
X304464Y54817D01*
X304573Y54820D01*
X304682Y54819D01*
X304791Y54814D01*
X304899Y54805D01*
X305007Y54792D01*
X305115Y54775D01*
X305222Y54755D01*
X305328Y54730D01*
X305433Y54702D01*
X305537Y54670D01*
X305640Y54634D01*
X305742Y54594D01*
X305842Y54551D01*
X305940Y54504D01*
X306037Y54454D01*
X306131Y54400D01*
X306224Y54342D01*
X306315Y54282D01*
X306403Y54218D01*
X306489Y54151D01*
X306572Y54081D01*
X306653Y54008D01*
X306731Y53932D01*
X306806Y53853D01*
X306879Y53771D01*
X306948Y53687D01*
X307014Y53601D01*
X307077Y53512D01*
X307137Y53421D01*
X307194Y53328D01*
X307247Y53233D01*
X307296Y53136D01*
X307342Y53037D01*
X307384Y52937D01*
X307423Y52835D01*
X307458Y52731D01*
X307489Y52627D01*
X307517Y52522D01*
X307540Y52415D01*
X307560Y52308D01*
X307576Y52200D01*
X307588Y52092D01*
X307596Y51983D01*
X307600Y51874D01*
X307600Y51766D01*
X307596Y51657D01*
X307588Y51548D01*
X307576Y51440D01*
X307560Y51332D01*
X307540Y51225D01*
X307517Y51118D01*
X307489Y51013D01*
X307458Y50909D01*
X307423Y50805D01*
X307384Y50703D01*
X307342Y50603D01*
X307296Y50504D01*
X307247Y50407D01*
X307194Y50312D01*
X307137Y50219D01*
X307077Y50128D01*
X307014Y50039D01*
X306948Y49953D01*
X306879Y49869D01*
X306806Y49787D01*
X306731Y49708D01*
X306653Y49632D01*
X306572Y49559D01*
X306489Y49489D01*
X306403Y49422D01*
X306315Y49358D01*
X306224Y49298D01*
X306131Y49240D01*
X306037Y49186D01*
X305940Y49136D01*
X305842Y49089D01*
X305742Y49046D01*
X305640Y49006D01*
X305537Y48970D01*
X305433Y48938D01*
X305328Y48910D01*
X305222Y48885D01*
X305115Y48865D01*
X305007Y48848D01*
X304899Y48835D01*
X304791Y48826D01*
X304682Y48821D01*
X304573Y48820D01*
X304464Y48823D01*
X304355Y48830D01*
X304247Y48841D01*
X304139Y48856D01*
X304031Y48874D01*
X303925Y48897D01*
X303819Y48923D01*
X303714Y48954D01*
X303611Y48988D01*
X303509Y49025D01*
X303408Y49067D01*
X303309Y49112D01*
X303211Y49161D01*
X303116Y49213D01*
X303022Y49269D01*
X302930Y49327D01*
X302841Y49390D01*
X302754Y49455D01*
X302669Y49524D01*
X302587Y49595D01*
X302508Y49670D01*
X302431Y49747D01*
X302357Y49827D01*
X302286Y49910D01*
X302219Y49996D01*
X302154Y50083D01*
X302092Y50173D01*
X302034Y50265D01*
X301980Y50359D01*
X301928Y50456D01*
X301880Y50554D01*
X301836Y50653D01*
X301796Y50754D01*
X301759Y50857D01*
X301726Y50961D01*
X301696Y51065D01*
X301671Y51171D01*
X301649Y51278D01*
X301632Y51386D01*
X301618Y51494D01*
X301608Y51602D01*
X301602Y51711D01*
X301600Y51820D01*
X301600Y62184D02*
X301602Y62293D01*
X301608Y62402D01*
X301618Y62510D01*
X301632Y62618D01*
X301649Y62726D01*
X301671Y62833D01*
X301696Y62939D01*
X301726Y63043D01*
X301759Y63147D01*
X301796Y63250D01*
X301836Y63351D01*
X301880Y63450D01*
X301928Y63548D01*
X301980Y63645D01*
X302034Y63739D01*
X302092Y63831D01*
X302154Y63921D01*
X302219Y64008D01*
X302286Y64094D01*
X302357Y64177D01*
X302431Y64257D01*
X302508Y64334D01*
X302587Y64409D01*
X302669Y64480D01*
X302754Y64549D01*
X302841Y64614D01*
X302930Y64677D01*
X303022Y64735D01*
X303116Y64791D01*
X303211Y64843D01*
X303309Y64892D01*
X303408Y64937D01*
X303509Y64979D01*
X303611Y65016D01*
X303714Y65050D01*
X303819Y65081D01*
X303925Y65107D01*
X304031Y65130D01*
X304139Y65148D01*
X304247Y65163D01*
X304355Y65174D01*
X304464Y65181D01*
X304573Y65184D01*
X304682Y65183D01*
X304791Y65178D01*
X304899Y65169D01*
X305007Y65156D01*
X305115Y65139D01*
X305222Y65119D01*
X305328Y65094D01*
X305433Y65066D01*
X305537Y65034D01*
X305640Y64998D01*
X305742Y64958D01*
X305842Y64915D01*
X305940Y64868D01*
X306037Y64818D01*
X306131Y64764D01*
X306224Y64706D01*
X306315Y64646D01*
X306403Y64582D01*
X306489Y64515D01*
X306572Y64445D01*
X306653Y64372D01*
X306731Y64296D01*
X306806Y64217D01*
X306879Y64135D01*
X306948Y64051D01*
X307014Y63965D01*
X307077Y63876D01*
X307137Y63785D01*
X307194Y63692D01*
X307247Y63597D01*
X307296Y63500D01*
X307342Y63401D01*
X307384Y63301D01*
X307423Y63199D01*
X307458Y63095D01*
X307489Y62991D01*
X307517Y62886D01*
X307540Y62779D01*
X307560Y62672D01*
X307576Y62564D01*
X307588Y62456D01*
X307596Y62347D01*
X307600Y62238D01*
X307600Y62130D01*
X307596Y62021D01*
X307588Y61912D01*
X307576Y61804D01*
X307560Y61696D01*
X307540Y61589D01*
X307517Y61482D01*
X307489Y61377D01*
X307458Y61273D01*
X307423Y61169D01*
X307384Y61067D01*
X307342Y60967D01*
X307296Y60868D01*
X307247Y60771D01*
X307194Y60676D01*
X307137Y60583D01*
X307077Y60492D01*
X307014Y60403D01*
X306948Y60317D01*
X306879Y60233D01*
X306806Y60151D01*
X306731Y60072D01*
X306653Y59996D01*
X306572Y59923D01*
X306489Y59853D01*
X306403Y59786D01*
X306315Y59722D01*
X306224Y59662D01*
X306131Y59604D01*
X306037Y59550D01*
X305940Y59500D01*
X305842Y59453D01*
X305742Y59410D01*
X305640Y59370D01*
X305537Y59334D01*
X305433Y59302D01*
X305328Y59274D01*
X305222Y59249D01*
X305115Y59229D01*
X305007Y59212D01*
X304899Y59199D01*
X304791Y59190D01*
X304682Y59185D01*
X304573Y59184D01*
X304464Y59187D01*
X304355Y59194D01*
X304247Y59205D01*
X304139Y59220D01*
X304031Y59238D01*
X303925Y59261D01*
X303819Y59287D01*
X303714Y59318D01*
X303611Y59352D01*
X303509Y59389D01*
X303408Y59431D01*
X303309Y59476D01*
X303211Y59525D01*
X303116Y59577D01*
X303022Y59633D01*
X302930Y59691D01*
X302841Y59754D01*
X302754Y59819D01*
X302669Y59888D01*
X302587Y59959D01*
X302508Y60034D01*
X302431Y60111D01*
X302357Y60191D01*
X302286Y60274D01*
X302219Y60360D01*
X302154Y60447D01*
X302092Y60537D01*
X302034Y60629D01*
X301980Y60723D01*
X301928Y60820D01*
X301880Y60918D01*
X301836Y61017D01*
X301796Y61118D01*
X301759Y61221D01*
X301726Y61325D01*
X301696Y61429D01*
X301671Y61535D01*
X301649Y61642D01*
X301632Y61750D01*
X301618Y61858D01*
X301608Y61966D01*
X301602Y62075D01*
X301600Y62184D01*
X301600Y72548D02*
X301602Y72657D01*
X301608Y72766D01*
X301618Y72874D01*
X301632Y72982D01*
X301649Y73090D01*
X301671Y73197D01*
X301696Y73303D01*
X301726Y73407D01*
X301759Y73511D01*
X301796Y73614D01*
X301836Y73715D01*
X301880Y73814D01*
X301928Y73912D01*
X301980Y74009D01*
X302034Y74103D01*
X302092Y74195D01*
X302154Y74285D01*
X302219Y74372D01*
X302286Y74458D01*
X302357Y74541D01*
X302431Y74621D01*
X302508Y74698D01*
X302587Y74773D01*
X302669Y74844D01*
X302754Y74913D01*
X302841Y74978D01*
X302930Y75041D01*
X303022Y75099D01*
X303116Y75155D01*
X303211Y75207D01*
X303309Y75256D01*
X303408Y75301D01*
X303509Y75343D01*
X303611Y75380D01*
X303714Y75414D01*
X303819Y75445D01*
X303925Y75471D01*
X304031Y75494D01*
X304139Y75512D01*
X304247Y75527D01*
X304355Y75538D01*
X304464Y75545D01*
X304573Y75548D01*
X304682Y75547D01*
X304791Y75542D01*
X304899Y75533D01*
X305007Y75520D01*
X305115Y75503D01*
X305222Y75483D01*
X305328Y75458D01*
X305433Y75430D01*
X305537Y75398D01*
X305640Y75362D01*
X305742Y75322D01*
X305842Y75279D01*
X305940Y75232D01*
X306037Y75182D01*
X306131Y75128D01*
X306224Y75070D01*
X306315Y75010D01*
X306403Y74946D01*
X306489Y74879D01*
X306572Y74809D01*
X306653Y74736D01*
X306731Y74660D01*
X306806Y74581D01*
X306879Y74499D01*
X306948Y74415D01*
X307014Y74329D01*
X307077Y74240D01*
X307137Y74149D01*
X307194Y74056D01*
X307247Y73961D01*
X307296Y73864D01*
X307342Y73765D01*
X307384Y73665D01*
X307423Y73563D01*
X307458Y73459D01*
X307489Y73355D01*
X307517Y73250D01*
X307540Y73143D01*
X307560Y73036D01*
X307576Y72928D01*
X307588Y72820D01*
X307596Y72711D01*
X307600Y72602D01*
X307600Y72494D01*
X307596Y72385D01*
X307588Y72276D01*
X307576Y72168D01*
X307560Y72060D01*
X307540Y71953D01*
X307517Y71846D01*
X307489Y71741D01*
X307458Y71637D01*
X307423Y71533D01*
X307384Y71431D01*
X307342Y71331D01*
X307296Y71232D01*
X307247Y71135D01*
X307194Y71040D01*
X307137Y70947D01*
X307077Y70856D01*
X307014Y70767D01*
X306948Y70681D01*
X306879Y70597D01*
X306806Y70515D01*
X306731Y70436D01*
X306653Y70360D01*
X306572Y70287D01*
X306489Y70217D01*
X306403Y70150D01*
X306315Y70086D01*
X306224Y70026D01*
X306131Y69968D01*
X306037Y69914D01*
X305940Y69864D01*
X305842Y69817D01*
X305742Y69774D01*
X305640Y69734D01*
X305537Y69698D01*
X305433Y69666D01*
X305328Y69638D01*
X305222Y69613D01*
X305115Y69593D01*
X305007Y69576D01*
X304899Y69563D01*
X304791Y69554D01*
X304682Y69549D01*
X304573Y69548D01*
X304464Y69551D01*
X304355Y69558D01*
X304247Y69569D01*
X304139Y69584D01*
X304031Y69602D01*
X303925Y69625D01*
X303819Y69651D01*
X303714Y69682D01*
X303611Y69716D01*
X303509Y69753D01*
X303408Y69795D01*
X303309Y69840D01*
X303211Y69889D01*
X303116Y69941D01*
X303022Y69997D01*
X302930Y70055D01*
X302841Y70118D01*
X302754Y70183D01*
X302669Y70252D01*
X302587Y70323D01*
X302508Y70398D01*
X302431Y70475D01*
X302357Y70555D01*
X302286Y70638D01*
X302219Y70724D01*
X302154Y70811D01*
X302092Y70901D01*
X302034Y70993D01*
X301980Y71087D01*
X301928Y71184D01*
X301880Y71282D01*
X301836Y71381D01*
X301796Y71482D01*
X301759Y71585D01*
X301726Y71689D01*
X301696Y71793D01*
X301671Y71899D01*
X301649Y72006D01*
X301632Y72114D01*
X301618Y72222D01*
X301608Y72330D01*
X301602Y72439D01*
X301600Y72548D01*
X301600Y82912D02*
X301602Y83021D01*
X301608Y83130D01*
X301618Y83238D01*
X301632Y83346D01*
X301649Y83454D01*
X301671Y83561D01*
X301696Y83667D01*
X301726Y83771D01*
X301759Y83875D01*
X301796Y83978D01*
X301836Y84079D01*
X301880Y84178D01*
X301928Y84276D01*
X301980Y84373D01*
X302034Y84467D01*
X302092Y84559D01*
X302154Y84649D01*
X302219Y84736D01*
X302286Y84822D01*
X302357Y84905D01*
X302431Y84985D01*
X302508Y85062D01*
X302587Y85137D01*
X302669Y85208D01*
X302754Y85277D01*
X302841Y85342D01*
X302930Y85405D01*
X303022Y85463D01*
X303116Y85519D01*
X303211Y85571D01*
X303309Y85620D01*
X303408Y85665D01*
X303509Y85707D01*
X303611Y85744D01*
X303714Y85778D01*
X303819Y85809D01*
X303925Y85835D01*
X304031Y85858D01*
X304139Y85876D01*
X304247Y85891D01*
X304355Y85902D01*
X304464Y85909D01*
X304573Y85912D01*
X304682Y85911D01*
X304791Y85906D01*
X304899Y85897D01*
X305007Y85884D01*
X305115Y85867D01*
X305222Y85847D01*
X305328Y85822D01*
X305433Y85794D01*
X305537Y85762D01*
X305640Y85726D01*
X305742Y85686D01*
X305842Y85643D01*
X305940Y85596D01*
X306037Y85546D01*
X306131Y85492D01*
X306224Y85434D01*
X306315Y85374D01*
X306403Y85310D01*
X306489Y85243D01*
X306572Y85173D01*
X306653Y85100D01*
X306731Y85024D01*
X306806Y84945D01*
X306879Y84863D01*
X306948Y84779D01*
X307014Y84693D01*
X307077Y84604D01*
X307137Y84513D01*
X307194Y84420D01*
X307247Y84325D01*
X307296Y84228D01*
X307342Y84129D01*
X307384Y84029D01*
X307423Y83927D01*
X307458Y83823D01*
X307489Y83719D01*
X307517Y83614D01*
X307540Y83507D01*
X307560Y83400D01*
X307576Y83292D01*
X307588Y83184D01*
X307596Y83075D01*
X307600Y82966D01*
X307600Y82858D01*
X307596Y82749D01*
X307588Y82640D01*
X307576Y82532D01*
X307560Y82424D01*
X307540Y82317D01*
X307517Y82210D01*
X307489Y82105D01*
X307458Y82001D01*
X307423Y81897D01*
X307384Y81795D01*
X307342Y81695D01*
X307296Y81596D01*
X307247Y81499D01*
X307194Y81404D01*
X307137Y81311D01*
X307077Y81220D01*
X307014Y81131D01*
X306948Y81045D01*
X306879Y80961D01*
X306806Y80879D01*
X306731Y80800D01*
X306653Y80724D01*
X306572Y80651D01*
X306489Y80581D01*
X306403Y80514D01*
X306315Y80450D01*
X306224Y80390D01*
X306131Y80332D01*
X306037Y80278D01*
X305940Y80228D01*
X305842Y80181D01*
X305742Y80138D01*
X305640Y80098D01*
X305537Y80062D01*
X305433Y80030D01*
X305328Y80002D01*
X305222Y79977D01*
X305115Y79957D01*
X305007Y79940D01*
X304899Y79927D01*
X304791Y79918D01*
X304682Y79913D01*
X304573Y79912D01*
X304464Y79915D01*
X304355Y79922D01*
X304247Y79933D01*
X304139Y79948D01*
X304031Y79966D01*
X303925Y79989D01*
X303819Y80015D01*
X303714Y80046D01*
X303611Y80080D01*
X303509Y80117D01*
X303408Y80159D01*
X303309Y80204D01*
X303211Y80253D01*
X303116Y80305D01*
X303022Y80361D01*
X302930Y80419D01*
X302841Y80482D01*
X302754Y80547D01*
X302669Y80616D01*
X302587Y80687D01*
X302508Y80762D01*
X302431Y80839D01*
X302357Y80919D01*
X302286Y81002D01*
X302219Y81088D01*
X302154Y81175D01*
X302092Y81265D01*
X302034Y81357D01*
X301980Y81451D01*
X301928Y81548D01*
X301880Y81646D01*
X301836Y81745D01*
X301796Y81846D01*
X301759Y81949D01*
X301726Y82053D01*
X301696Y82157D01*
X301671Y82263D01*
X301649Y82370D01*
X301632Y82478D01*
X301618Y82586D01*
X301608Y82694D01*
X301602Y82803D01*
X301600Y82912D01*
X301600Y93276D02*
X301602Y93385D01*
X301608Y93494D01*
X301618Y93602D01*
X301632Y93710D01*
X301649Y93818D01*
X301671Y93925D01*
X301696Y94031D01*
X301726Y94135D01*
X301759Y94239D01*
X301796Y94342D01*
X301836Y94443D01*
X301880Y94542D01*
X301928Y94640D01*
X301980Y94737D01*
X302034Y94831D01*
X302092Y94923D01*
X302154Y95013D01*
X302219Y95100D01*
X302286Y95186D01*
X302357Y95269D01*
X302431Y95349D01*
X302508Y95426D01*
X302587Y95501D01*
X302669Y95572D01*
X302754Y95641D01*
X302841Y95706D01*
X302930Y95769D01*
X303022Y95827D01*
X303116Y95883D01*
X303211Y95935D01*
X303309Y95984D01*
X303408Y96029D01*
X303509Y96071D01*
X303611Y96108D01*
X303714Y96142D01*
X303819Y96173D01*
X303925Y96199D01*
X304031Y96222D01*
X304139Y96240D01*
X304247Y96255D01*
X304355Y96266D01*
X304464Y96273D01*
X304573Y96276D01*
X304682Y96275D01*
X304791Y96270D01*
X304899Y96261D01*
X305007Y96248D01*
X305115Y96231D01*
X305222Y96211D01*
X305328Y96186D01*
X305433Y96158D01*
X305537Y96126D01*
X305640Y96090D01*
X305742Y96050D01*
X305842Y96007D01*
X305940Y95960D01*
X306037Y95910D01*
X306131Y95856D01*
X306224Y95798D01*
X306315Y95738D01*
X306403Y95674D01*
X306489Y95607D01*
X306572Y95537D01*
X306653Y95464D01*
X306731Y95388D01*
X306806Y95309D01*
X306879Y95227D01*
X306948Y95143D01*
X307014Y95057D01*
X307077Y94968D01*
X307137Y94877D01*
X307194Y94784D01*
X307247Y94689D01*
X307296Y94592D01*
X307342Y94493D01*
X307384Y94393D01*
X307423Y94291D01*
X307458Y94187D01*
X307489Y94083D01*
X307517Y93978D01*
X307540Y93871D01*
X307560Y93764D01*
X307576Y93656D01*
X307588Y93548D01*
X307596Y93439D01*
X307600Y93330D01*
X307600Y93222D01*
X307596Y93113D01*
X307588Y93004D01*
X307576Y92896D01*
X307560Y92788D01*
X307540Y92681D01*
X307517Y92574D01*
X307489Y92469D01*
X307458Y92365D01*
X307423Y92261D01*
X307384Y92159D01*
X307342Y92059D01*
X307296Y91960D01*
X307247Y91863D01*
X307194Y91768D01*
X307137Y91675D01*
X307077Y91584D01*
X307014Y91495D01*
X306948Y91409D01*
X306879Y91325D01*
X306806Y91243D01*
X306731Y91164D01*
X306653Y91088D01*
X306572Y91015D01*
X306489Y90945D01*
X306403Y90878D01*
X306315Y90814D01*
X306224Y90754D01*
X306131Y90696D01*
X306037Y90642D01*
X305940Y90592D01*
X305842Y90545D01*
X305742Y90502D01*
X305640Y90462D01*
X305537Y90426D01*
X305433Y90394D01*
X305328Y90366D01*
X305222Y90341D01*
X305115Y90321D01*
X305007Y90304D01*
X304899Y90291D01*
X304791Y90282D01*
X304682Y90277D01*
X304573Y90276D01*
X304464Y90279D01*
X304355Y90286D01*
X304247Y90297D01*
X304139Y90312D01*
X304031Y90330D01*
X303925Y90353D01*
X303819Y90379D01*
X303714Y90410D01*
X303611Y90444D01*
X303509Y90481D01*
X303408Y90523D01*
X303309Y90568D01*
X303211Y90617D01*
X303116Y90669D01*
X303022Y90725D01*
X302930Y90783D01*
X302841Y90846D01*
X302754Y90911D01*
X302669Y90980D01*
X302587Y91051D01*
X302508Y91126D01*
X302431Y91203D01*
X302357Y91283D01*
X302286Y91366D01*
X302219Y91452D01*
X302154Y91539D01*
X302092Y91629D01*
X302034Y91721D01*
X301980Y91815D01*
X301928Y91912D01*
X301880Y92010D01*
X301836Y92109D01*
X301796Y92210D01*
X301759Y92313D01*
X301726Y92417D01*
X301696Y92521D01*
X301671Y92627D01*
X301649Y92734D01*
X301632Y92842D01*
X301618Y92950D01*
X301608Y93058D01*
X301602Y93167D01*
X301600Y93276D01*
X301600Y103640D02*
X301602Y103749D01*
X301608Y103858D01*
X301618Y103966D01*
X301632Y104074D01*
X301649Y104182D01*
X301671Y104289D01*
X301696Y104395D01*
X301726Y104499D01*
X301759Y104603D01*
X301796Y104706D01*
X301836Y104807D01*
X301880Y104906D01*
X301928Y105004D01*
X301980Y105101D01*
X302034Y105195D01*
X302092Y105287D01*
X302154Y105377D01*
X302219Y105464D01*
X302286Y105550D01*
X302357Y105633D01*
X302431Y105713D01*
X302508Y105790D01*
X302587Y105865D01*
X302669Y105936D01*
X302754Y106005D01*
X302841Y106070D01*
X302930Y106133D01*
X303022Y106191D01*
X303116Y106247D01*
X303211Y106299D01*
X303309Y106348D01*
X303408Y106393D01*
X303509Y106435D01*
X303611Y106472D01*
X303714Y106506D01*
X303819Y106537D01*
X303925Y106563D01*
X304031Y106586D01*
X304139Y106604D01*
X304247Y106619D01*
X304355Y106630D01*
X304464Y106637D01*
X304573Y106640D01*
X304682Y106639D01*
X304791Y106634D01*
X304899Y106625D01*
X305007Y106612D01*
X305115Y106595D01*
X305222Y106575D01*
X305328Y106550D01*
X305433Y106522D01*
X305537Y106490D01*
X305640Y106454D01*
X305742Y106414D01*
X305842Y106371D01*
X305940Y106324D01*
X306037Y106274D01*
X306131Y106220D01*
X306224Y106162D01*
X306315Y106102D01*
X306403Y106038D01*
X306489Y105971D01*
X306572Y105901D01*
X306653Y105828D01*
X306731Y105752D01*
X306806Y105673D01*
X306879Y105591D01*
X306948Y105507D01*
X307014Y105421D01*
X307077Y105332D01*
X307137Y105241D01*
X307194Y105148D01*
X307247Y105053D01*
X307296Y104956D01*
X307342Y104857D01*
X307384Y104757D01*
X307423Y104655D01*
X307458Y104551D01*
X307489Y104447D01*
X307517Y104342D01*
X307540Y104235D01*
X307560Y104128D01*
X307576Y104020D01*
X307588Y103912D01*
X307596Y103803D01*
X307600Y103694D01*
X307600Y103586D01*
X307596Y103477D01*
X307588Y103368D01*
X307576Y103260D01*
X307560Y103152D01*
X307540Y103045D01*
X307517Y102938D01*
X307489Y102833D01*
X307458Y102729D01*
X307423Y102625D01*
X307384Y102523D01*
X307342Y102423D01*
X307296Y102324D01*
X307247Y102227D01*
X307194Y102132D01*
X307137Y102039D01*
X307077Y101948D01*
X307014Y101859D01*
X306948Y101773D01*
X306879Y101689D01*
X306806Y101607D01*
X306731Y101528D01*
X306653Y101452D01*
X306572Y101379D01*
X306489Y101309D01*
X306403Y101242D01*
X306315Y101178D01*
X306224Y101118D01*
X306131Y101060D01*
X306037Y101006D01*
X305940Y100956D01*
X305842Y100909D01*
X305742Y100866D01*
X305640Y100826D01*
X305537Y100790D01*
X305433Y100758D01*
X305328Y100730D01*
X305222Y100705D01*
X305115Y100685D01*
X305007Y100668D01*
X304899Y100655D01*
X304791Y100646D01*
X304682Y100641D01*
X304573Y100640D01*
X304464Y100643D01*
X304355Y100650D01*
X304247Y100661D01*
X304139Y100676D01*
X304031Y100694D01*
X303925Y100717D01*
X303819Y100743D01*
X303714Y100774D01*
X303611Y100808D01*
X303509Y100845D01*
X303408Y100887D01*
X303309Y100932D01*
X303211Y100981D01*
X303116Y101033D01*
X303022Y101089D01*
X302930Y101147D01*
X302841Y101210D01*
X302754Y101275D01*
X302669Y101344D01*
X302587Y101415D01*
X302508Y101490D01*
X302431Y101567D01*
X302357Y101647D01*
X302286Y101730D01*
X302219Y101816D01*
X302154Y101903D01*
X302092Y101993D01*
X302034Y102085D01*
X301980Y102179D01*
X301928Y102276D01*
X301880Y102374D01*
X301836Y102473D01*
X301796Y102574D01*
X301759Y102677D01*
X301726Y102781D01*
X301696Y102885D01*
X301671Y102991D01*
X301649Y103098D01*
X301632Y103206D01*
X301618Y103314D01*
X301608Y103422D01*
X301602Y103531D01*
X301600Y103640D01*
X301600Y114004D02*
X301602Y114113D01*
X301608Y114222D01*
X301618Y114330D01*
X301632Y114438D01*
X301649Y114546D01*
X301671Y114653D01*
X301696Y114759D01*
X301726Y114863D01*
X301759Y114967D01*
X301796Y115070D01*
X301836Y115171D01*
X301880Y115270D01*
X301928Y115368D01*
X301980Y115465D01*
X302034Y115559D01*
X302092Y115651D01*
X302154Y115741D01*
X302219Y115828D01*
X302286Y115914D01*
X302357Y115997D01*
X302431Y116077D01*
X302508Y116154D01*
X302587Y116229D01*
X302669Y116300D01*
X302754Y116369D01*
X302841Y116434D01*
X302930Y116497D01*
X303022Y116555D01*
X303116Y116611D01*
X303211Y116663D01*
X303309Y116712D01*
X303408Y116757D01*
X303509Y116799D01*
X303611Y116836D01*
X303714Y116870D01*
X303819Y116901D01*
X303925Y116927D01*
X304031Y116950D01*
X304139Y116968D01*
X304247Y116983D01*
X304355Y116994D01*
X304464Y117001D01*
X304573Y117004D01*
X304682Y117003D01*
X304791Y116998D01*
X304899Y116989D01*
X305007Y116976D01*
X305115Y116959D01*
X305222Y116939D01*
X305328Y116914D01*
X305433Y116886D01*
X305537Y116854D01*
X305640Y116818D01*
X305742Y116778D01*
X305842Y116735D01*
X305940Y116688D01*
X306037Y116638D01*
X306131Y116584D01*
X306224Y116526D01*
X306315Y116466D01*
X306403Y116402D01*
X306489Y116335D01*
X306572Y116265D01*
X306653Y116192D01*
X306731Y116116D01*
X306806Y116037D01*
X306879Y115955D01*
X306948Y115871D01*
X307014Y115785D01*
X307077Y115696D01*
X307137Y115605D01*
X307194Y115512D01*
X307247Y115417D01*
X307296Y115320D01*
X307342Y115221D01*
X307384Y115121D01*
X307423Y115019D01*
X307458Y114915D01*
X307489Y114811D01*
X307517Y114706D01*
X307540Y114599D01*
X307560Y114492D01*
X307576Y114384D01*
X307588Y114276D01*
X307596Y114167D01*
X307600Y114058D01*
X307600Y113950D01*
X307596Y113841D01*
X307588Y113732D01*
X307576Y113624D01*
X307560Y113516D01*
X307540Y113409D01*
X307517Y113302D01*
X307489Y113197D01*
X307458Y113093D01*
X307423Y112989D01*
X307384Y112887D01*
X307342Y112787D01*
X307296Y112688D01*
X307247Y112591D01*
X307194Y112496D01*
X307137Y112403D01*
X307077Y112312D01*
X307014Y112223D01*
X306948Y112137D01*
X306879Y112053D01*
X306806Y111971D01*
X306731Y111892D01*
X306653Y111816D01*
X306572Y111743D01*
X306489Y111673D01*
X306403Y111606D01*
X306315Y111542D01*
X306224Y111482D01*
X306131Y111424D01*
X306037Y111370D01*
X305940Y111320D01*
X305842Y111273D01*
X305742Y111230D01*
X305640Y111190D01*
X305537Y111154D01*
X305433Y111122D01*
X305328Y111094D01*
X305222Y111069D01*
X305115Y111049D01*
X305007Y111032D01*
X304899Y111019D01*
X304791Y111010D01*
X304682Y111005D01*
X304573Y111004D01*
X304464Y111007D01*
X304355Y111014D01*
X304247Y111025D01*
X304139Y111040D01*
X304031Y111058D01*
X303925Y111081D01*
X303819Y111107D01*
X303714Y111138D01*
X303611Y111172D01*
X303509Y111209D01*
X303408Y111251D01*
X303309Y111296D01*
X303211Y111345D01*
X303116Y111397D01*
X303022Y111453D01*
X302930Y111511D01*
X302841Y111574D01*
X302754Y111639D01*
X302669Y111708D01*
X302587Y111779D01*
X302508Y111854D01*
X302431Y111931D01*
X302357Y112011D01*
X302286Y112094D01*
X302219Y112180D01*
X302154Y112267D01*
X302092Y112357D01*
X302034Y112449D01*
X301980Y112543D01*
X301928Y112640D01*
X301880Y112738D01*
X301836Y112837D01*
X301796Y112938D01*
X301759Y113041D01*
X301726Y113145D01*
X301696Y113249D01*
X301671Y113355D01*
X301649Y113462D01*
X301632Y113570D01*
X301618Y113678D01*
X301608Y113786D01*
X301602Y113895D01*
X301600Y114004D01*
X301600Y124368D02*
X301602Y124477D01*
X301608Y124586D01*
X301618Y124694D01*
X301632Y124802D01*
X301649Y124910D01*
X301671Y125017D01*
X301696Y125123D01*
X301726Y125227D01*
X301759Y125331D01*
X301796Y125434D01*
X301836Y125535D01*
X301880Y125634D01*
X301928Y125732D01*
X301980Y125829D01*
X302034Y125923D01*
X302092Y126015D01*
X302154Y126105D01*
X302219Y126192D01*
X302286Y126278D01*
X302357Y126361D01*
X302431Y126441D01*
X302508Y126518D01*
X302587Y126593D01*
X302669Y126664D01*
X302754Y126733D01*
X302841Y126798D01*
X302930Y126861D01*
X303022Y126919D01*
X303116Y126975D01*
X303211Y127027D01*
X303309Y127076D01*
X303408Y127121D01*
X303509Y127163D01*
X303611Y127200D01*
X303714Y127234D01*
X303819Y127265D01*
X303925Y127291D01*
X304031Y127314D01*
X304139Y127332D01*
X304247Y127347D01*
X304355Y127358D01*
X304464Y127365D01*
X304573Y127368D01*
X304682Y127367D01*
X304791Y127362D01*
X304899Y127353D01*
X305007Y127340D01*
X305115Y127323D01*
X305222Y127303D01*
X305328Y127278D01*
X305433Y127250D01*
X305537Y127218D01*
X305640Y127182D01*
X305742Y127142D01*
X305842Y127099D01*
X305940Y127052D01*
X306037Y127002D01*
X306131Y126948D01*
X306224Y126890D01*
X306315Y126830D01*
X306403Y126766D01*
X306489Y126699D01*
X306572Y126629D01*
X306653Y126556D01*
X306731Y126480D01*
X306806Y126401D01*
X306879Y126319D01*
X306948Y126235D01*
X307014Y126149D01*
X307077Y126060D01*
X307137Y125969D01*
X307194Y125876D01*
X307247Y125781D01*
X307296Y125684D01*
X307342Y125585D01*
X307384Y125485D01*
X307423Y125383D01*
X307458Y125279D01*
X307489Y125175D01*
X307517Y125070D01*
X307540Y124963D01*
X307560Y124856D01*
X307576Y124748D01*
X307588Y124640D01*
X307596Y124531D01*
X307600Y124422D01*
X307600Y124314D01*
X307596Y124205D01*
X307588Y124096D01*
X307576Y123988D01*
X307560Y123880D01*
X307540Y123773D01*
X307517Y123666D01*
X307489Y123561D01*
X307458Y123457D01*
X307423Y123353D01*
X307384Y123251D01*
X307342Y123151D01*
X307296Y123052D01*
X307247Y122955D01*
X307194Y122860D01*
X307137Y122767D01*
X307077Y122676D01*
X307014Y122587D01*
X306948Y122501D01*
X306879Y122417D01*
X306806Y122335D01*
X306731Y122256D01*
X306653Y122180D01*
X306572Y122107D01*
X306489Y122037D01*
X306403Y121970D01*
X306315Y121906D01*
X306224Y121846D01*
X306131Y121788D01*
X306037Y121734D01*
X305940Y121684D01*
X305842Y121637D01*
X305742Y121594D01*
X305640Y121554D01*
X305537Y121518D01*
X305433Y121486D01*
X305328Y121458D01*
X305222Y121433D01*
X305115Y121413D01*
X305007Y121396D01*
X304899Y121383D01*
X304791Y121374D01*
X304682Y121369D01*
X304573Y121368D01*
X304464Y121371D01*
X304355Y121378D01*
X304247Y121389D01*
X304139Y121404D01*
X304031Y121422D01*
X303925Y121445D01*
X303819Y121471D01*
X303714Y121502D01*
X303611Y121536D01*
X303509Y121573D01*
X303408Y121615D01*
X303309Y121660D01*
X303211Y121709D01*
X303116Y121761D01*
X303022Y121817D01*
X302930Y121875D01*
X302841Y121938D01*
X302754Y122003D01*
X302669Y122072D01*
X302587Y122143D01*
X302508Y122218D01*
X302431Y122295D01*
X302357Y122375D01*
X302286Y122458D01*
X302219Y122544D01*
X302154Y122631D01*
X302092Y122721D01*
X302034Y122813D01*
X301980Y122907D01*
X301928Y123004D01*
X301880Y123102D01*
X301836Y123201D01*
X301796Y123302D01*
X301759Y123405D01*
X301726Y123509D01*
X301696Y123613D01*
X301671Y123719D01*
X301649Y123826D01*
X301632Y123934D01*
X301618Y124042D01*
X301608Y124150D01*
X301602Y124259D01*
X301600Y124368D01*
X301600Y134732D02*
X301602Y134841D01*
X301608Y134950D01*
X301618Y135058D01*
X301632Y135166D01*
X301649Y135274D01*
X301671Y135381D01*
X301696Y135487D01*
X301726Y135591D01*
X301759Y135695D01*
X301796Y135798D01*
X301836Y135899D01*
X301880Y135998D01*
X301928Y136096D01*
X301980Y136193D01*
X302034Y136287D01*
X302092Y136379D01*
X302154Y136469D01*
X302219Y136556D01*
X302286Y136642D01*
X302357Y136725D01*
X302431Y136805D01*
X302508Y136882D01*
X302587Y136957D01*
X302669Y137028D01*
X302754Y137097D01*
X302841Y137162D01*
X302930Y137225D01*
X303022Y137283D01*
X303116Y137339D01*
X303211Y137391D01*
X303309Y137440D01*
X303408Y137485D01*
X303509Y137527D01*
X303611Y137564D01*
X303714Y137598D01*
X303819Y137629D01*
X303925Y137655D01*
X304031Y137678D01*
X304139Y137696D01*
X304247Y137711D01*
X304355Y137722D01*
X304464Y137729D01*
X304573Y137732D01*
X304682Y137731D01*
X304791Y137726D01*
X304899Y137717D01*
X305007Y137704D01*
X305115Y137687D01*
X305222Y137667D01*
X305328Y137642D01*
X305433Y137614D01*
X305537Y137582D01*
X305640Y137546D01*
X305742Y137506D01*
X305842Y137463D01*
X305940Y137416D01*
X306037Y137366D01*
X306131Y137312D01*
X306224Y137254D01*
X306315Y137194D01*
X306403Y137130D01*
X306489Y137063D01*
X306572Y136993D01*
X306653Y136920D01*
X306731Y136844D01*
X306806Y136765D01*
X306879Y136683D01*
X306948Y136599D01*
X307014Y136513D01*
X307077Y136424D01*
X307137Y136333D01*
X307194Y136240D01*
X307247Y136145D01*
X307296Y136048D01*
X307342Y135949D01*
X307384Y135849D01*
X307423Y135747D01*
X307458Y135643D01*
X307489Y135539D01*
X307517Y135434D01*
X307540Y135327D01*
X307560Y135220D01*
X307576Y135112D01*
X307588Y135004D01*
X307596Y134895D01*
X307600Y134786D01*
X307600Y134678D01*
X307596Y134569D01*
X307588Y134460D01*
X307576Y134352D01*
X307560Y134244D01*
X307540Y134137D01*
X307517Y134030D01*
X307489Y133925D01*
X307458Y133821D01*
X307423Y133717D01*
X307384Y133615D01*
X307342Y133515D01*
X307296Y133416D01*
X307247Y133319D01*
X307194Y133224D01*
X307137Y133131D01*
X307077Y133040D01*
X307014Y132951D01*
X306948Y132865D01*
X306879Y132781D01*
X306806Y132699D01*
X306731Y132620D01*
X306653Y132544D01*
X306572Y132471D01*
X306489Y132401D01*
X306403Y132334D01*
X306315Y132270D01*
X306224Y132210D01*
X306131Y132152D01*
X306037Y132098D01*
X305940Y132048D01*
X305842Y132001D01*
X305742Y131958D01*
X305640Y131918D01*
X305537Y131882D01*
X305433Y131850D01*
X305328Y131822D01*
X305222Y131797D01*
X305115Y131777D01*
X305007Y131760D01*
X304899Y131747D01*
X304791Y131738D01*
X304682Y131733D01*
X304573Y131732D01*
X304464Y131735D01*
X304355Y131742D01*
X304247Y131753D01*
X304139Y131768D01*
X304031Y131786D01*
X303925Y131809D01*
X303819Y131835D01*
X303714Y131866D01*
X303611Y131900D01*
X303509Y131937D01*
X303408Y131979D01*
X303309Y132024D01*
X303211Y132073D01*
X303116Y132125D01*
X303022Y132181D01*
X302930Y132239D01*
X302841Y132302D01*
X302754Y132367D01*
X302669Y132436D01*
X302587Y132507D01*
X302508Y132582D01*
X302431Y132659D01*
X302357Y132739D01*
X302286Y132822D01*
X302219Y132908D01*
X302154Y132995D01*
X302092Y133085D01*
X302034Y133177D01*
X301980Y133271D01*
X301928Y133368D01*
X301880Y133466D01*
X301836Y133565D01*
X301796Y133666D01*
X301759Y133769D01*
X301726Y133873D01*
X301696Y133977D01*
X301671Y134083D01*
X301649Y134190D01*
X301632Y134298D01*
X301618Y134406D01*
X301608Y134514D01*
X301602Y134623D01*
X301600Y134732D01*
X301600Y145096D02*
X301602Y145205D01*
X301608Y145314D01*
X301618Y145422D01*
X301632Y145530D01*
X301649Y145638D01*
X301671Y145745D01*
X301696Y145851D01*
X301726Y145955D01*
X301759Y146059D01*
X301796Y146162D01*
X301836Y146263D01*
X301880Y146362D01*
X301928Y146460D01*
X301980Y146557D01*
X302034Y146651D01*
X302092Y146743D01*
X302154Y146833D01*
X302219Y146920D01*
X302286Y147006D01*
X302357Y147089D01*
X302431Y147169D01*
X302508Y147246D01*
X302587Y147321D01*
X302669Y147392D01*
X302754Y147461D01*
X302841Y147526D01*
X302930Y147589D01*
X303022Y147647D01*
X303116Y147703D01*
X303211Y147755D01*
X303309Y147804D01*
X303408Y147849D01*
X303509Y147891D01*
X303611Y147928D01*
X303714Y147962D01*
X303819Y147993D01*
X303925Y148019D01*
X304031Y148042D01*
X304139Y148060D01*
X304247Y148075D01*
X304355Y148086D01*
X304464Y148093D01*
X304573Y148096D01*
X304682Y148095D01*
X304791Y148090D01*
X304899Y148081D01*
X305007Y148068D01*
X305115Y148051D01*
X305222Y148031D01*
X305328Y148006D01*
X305433Y147978D01*
X305537Y147946D01*
X305640Y147910D01*
X305742Y147870D01*
X305842Y147827D01*
X305940Y147780D01*
X306037Y147730D01*
X306131Y147676D01*
X306224Y147618D01*
X306315Y147558D01*
X306403Y147494D01*
X306489Y147427D01*
X306572Y147357D01*
X306653Y147284D01*
X306731Y147208D01*
X306806Y147129D01*
X306879Y147047D01*
X306948Y146963D01*
X307014Y146877D01*
X307077Y146788D01*
X307137Y146697D01*
X307194Y146604D01*
X307247Y146509D01*
X307296Y146412D01*
X307342Y146313D01*
X307384Y146213D01*
X307423Y146111D01*
X307458Y146007D01*
X307489Y145903D01*
X307517Y145798D01*
X307540Y145691D01*
X307560Y145584D01*
X307576Y145476D01*
X307588Y145368D01*
X307596Y145259D01*
X307600Y145150D01*
X307600Y145042D01*
X307596Y144933D01*
X307588Y144824D01*
X307576Y144716D01*
X307560Y144608D01*
X307540Y144501D01*
X307517Y144394D01*
X307489Y144289D01*
X307458Y144185D01*
X307423Y144081D01*
X307384Y143979D01*
X307342Y143879D01*
X307296Y143780D01*
X307247Y143683D01*
X307194Y143588D01*
X307137Y143495D01*
X307077Y143404D01*
X307014Y143315D01*
X306948Y143229D01*
X306879Y143145D01*
X306806Y143063D01*
X306731Y142984D01*
X306653Y142908D01*
X306572Y142835D01*
X306489Y142765D01*
X306403Y142698D01*
X306315Y142634D01*
X306224Y142574D01*
X306131Y142516D01*
X306037Y142462D01*
X305940Y142412D01*
X305842Y142365D01*
X305742Y142322D01*
X305640Y142282D01*
X305537Y142246D01*
X305433Y142214D01*
X305328Y142186D01*
X305222Y142161D01*
X305115Y142141D01*
X305007Y142124D01*
X304899Y142111D01*
X304791Y142102D01*
X304682Y142097D01*
X304573Y142096D01*
X304464Y142099D01*
X304355Y142106D01*
X304247Y142117D01*
X304139Y142132D01*
X304031Y142150D01*
X303925Y142173D01*
X303819Y142199D01*
X303714Y142230D01*
X303611Y142264D01*
X303509Y142301D01*
X303408Y142343D01*
X303309Y142388D01*
X303211Y142437D01*
X303116Y142489D01*
X303022Y142545D01*
X302930Y142603D01*
X302841Y142666D01*
X302754Y142731D01*
X302669Y142800D01*
X302587Y142871D01*
X302508Y142946D01*
X302431Y143023D01*
X302357Y143103D01*
X302286Y143186D01*
X302219Y143272D01*
X302154Y143359D01*
X302092Y143449D01*
X302034Y143541D01*
X301980Y143635D01*
X301928Y143732D01*
X301880Y143830D01*
X301836Y143929D01*
X301796Y144030D01*
X301759Y144133D01*
X301726Y144237D01*
X301696Y144341D01*
X301671Y144447D01*
X301649Y144554D01*
X301632Y144662D01*
X301618Y144770D01*
X301608Y144878D01*
X301602Y144987D01*
X301600Y145096D01*
M02*
